G04 #@! TF.FileFunction,Legend,Bot*
%FSLAX46Y46*%
G04 Gerber Fmt 4.6, Leading zero omitted, Abs format (unit mm)*
G04 Created by KiCad (PCBNEW 4.0.3-stable) date 11/02/16 23:14:01*
%MOMM*%
%LPD*%
G01*
G04 APERTURE LIST*
%ADD10C,0.100000*%
%ADD11C,0.300000*%
%ADD12C,0.200000*%
%ADD13C,1.000000*%
%ADD14C,2.000000*%
%ADD15C,1.000000*%
%ADD16C,1.600000*%
G04 APERTURE END LIST*
D10*
D11*
X122596429Y-111407143D02*
X121525000Y-111407143D01*
X121310714Y-111478571D01*
X121167857Y-111621428D01*
X121096429Y-111835714D01*
X121096429Y-111978571D01*
X121239286Y-110692857D02*
X121167857Y-110621429D01*
X121096429Y-110692857D01*
X121167857Y-110764286D01*
X121239286Y-110692857D01*
X121096429Y-110692857D01*
X122596429Y-108978571D02*
X121096429Y-108621428D01*
X122167857Y-108335714D01*
X121096429Y-108050000D01*
X122596429Y-107692857D01*
X121096429Y-106907142D02*
X121167857Y-107050000D01*
X121239286Y-107121428D01*
X121382143Y-107192857D01*
X121810714Y-107192857D01*
X121953571Y-107121428D01*
X122025000Y-107050000D01*
X122096429Y-106907142D01*
X122096429Y-106692857D01*
X122025000Y-106550000D01*
X121953571Y-106478571D01*
X121810714Y-106407142D01*
X121382143Y-106407142D01*
X121239286Y-106478571D01*
X121167857Y-106550000D01*
X121096429Y-106692857D01*
X121096429Y-106907142D01*
X121096429Y-105549999D02*
X121167857Y-105692857D01*
X121239286Y-105764285D01*
X121382143Y-105835714D01*
X121810714Y-105835714D01*
X121953571Y-105764285D01*
X122025000Y-105692857D01*
X122096429Y-105549999D01*
X122096429Y-105335714D01*
X122025000Y-105192857D01*
X121953571Y-105121428D01*
X121810714Y-105049999D01*
X121382143Y-105049999D01*
X121239286Y-105121428D01*
X121167857Y-105192857D01*
X121096429Y-105335714D01*
X121096429Y-105549999D01*
X121096429Y-103764285D02*
X122596429Y-103764285D01*
X121167857Y-103764285D02*
X121096429Y-103907142D01*
X121096429Y-104192856D01*
X121167857Y-104335714D01*
X121239286Y-104407142D01*
X121382143Y-104478571D01*
X121810714Y-104478571D01*
X121953571Y-104407142D01*
X122025000Y-104335714D01*
X122096429Y-104192856D01*
X122096429Y-103907142D01*
X122025000Y-103764285D01*
X119903571Y-110371428D02*
X119975000Y-110299999D01*
X120046429Y-110157142D01*
X120046429Y-109799999D01*
X119975000Y-109657142D01*
X119903571Y-109585713D01*
X119760714Y-109514285D01*
X119617857Y-109514285D01*
X119403571Y-109585713D01*
X118546429Y-110442856D01*
X118546429Y-109514285D01*
X120046429Y-108585714D02*
X120046429Y-108442857D01*
X119975000Y-108300000D01*
X119903571Y-108228571D01*
X119760714Y-108157142D01*
X119475000Y-108085714D01*
X119117857Y-108085714D01*
X118832143Y-108157142D01*
X118689286Y-108228571D01*
X118617857Y-108300000D01*
X118546429Y-108442857D01*
X118546429Y-108585714D01*
X118617857Y-108728571D01*
X118689286Y-108800000D01*
X118832143Y-108871428D01*
X119117857Y-108942857D01*
X119475000Y-108942857D01*
X119760714Y-108871428D01*
X119903571Y-108800000D01*
X119975000Y-108728571D01*
X120046429Y-108585714D01*
X118546429Y-106657143D02*
X118546429Y-107514286D01*
X118546429Y-107085714D02*
X120046429Y-107085714D01*
X119832143Y-107228571D01*
X119689286Y-107371429D01*
X119617857Y-107514286D01*
X120046429Y-105371429D02*
X120046429Y-105657143D01*
X119975000Y-105800000D01*
X119903571Y-105871429D01*
X119689286Y-106014286D01*
X119403571Y-106085715D01*
X118832143Y-106085715D01*
X118689286Y-106014286D01*
X118617857Y-105942858D01*
X118546429Y-105800000D01*
X118546429Y-105514286D01*
X118617857Y-105371429D01*
X118689286Y-105300000D01*
X118832143Y-105228572D01*
X119189286Y-105228572D01*
X119332143Y-105300000D01*
X119403571Y-105371429D01*
X119475000Y-105514286D01*
X119475000Y-105800000D01*
X119403571Y-105942858D01*
X119332143Y-106014286D01*
X119189286Y-106085715D01*
D12*
X123600000Y-85100000D02*
X123600000Y-134900000D01*
X123600000Y-134900000D02*
X136400000Y-134900000D01*
X136400000Y-134900000D02*
X136400000Y-85100000D01*
X136400000Y-85100000D02*
X123600000Y-85100000D01*
X130000000Y-90000000D02*
X130000000Y-93000000D01*
X130000000Y-130000000D02*
X130000000Y-127000000D01*
X128500000Y-128500000D02*
X131500000Y-128500000D01*
%LPC*%
D13*
X144601367Y-124511998D02*
X144824905Y-124400058D01*
X146593895Y-128490984D02*
X146817433Y-128379044D01*
X146120100Y-121570642D02*
X146924838Y-121167658D01*
X149858888Y-129036830D02*
X150663626Y-128633846D01*
D14*
X130000000Y-87650000D03*
X130000000Y-132350000D03*
D15*
X140695000Y-120560000D03*
X139679000Y-125640000D03*
X141711000Y-125640000D03*
D14*
X112750000Y-128750000D03*
X117250000Y-128750000D03*
X117250000Y-122250000D03*
X112750000Y-122250000D03*
D16*
X121000000Y-124500000D03*
X121000000Y-126500000D03*
X121000000Y-122500000D03*
D14*
X121000000Y-120400000D03*
X121000000Y-128600000D03*
M02*
