G04 #@! TF.FileFunction,Copper,L2,Bot,Signal*
%FSLAX46Y46*%
G04 Gerber Fmt 4.6, Leading zero omitted, Abs format (unit mm)*
G04 Created by KiCad (PCBNEW 4.0.3-stable) date 11/02/16 23:14:01*
%MOMM*%
%LPD*%
G01*
G04 APERTURE LIST*
%ADD10C,0.100000*%
%ADD11C,1.000000*%
%ADD12C,2.000000*%
%ADD13C,1.600000*%
%ADD14C,0.600000*%
%ADD15C,0.200000*%
%ADD16C,0.300000*%
G04 APERTURE END LIST*
D10*
D11*
X144601367Y-124511998D02*
X144824905Y-124400058D01*
X146593895Y-128490984D02*
X146817433Y-128379044D01*
X146120100Y-121570642D02*
X146924838Y-121167658D01*
X149858888Y-129036830D02*
X150663626Y-128633846D01*
D12*
X130000000Y-87650000D03*
X130000000Y-132350000D03*
X112750000Y-128750000D03*
X117250000Y-128750000D03*
X117250000Y-122250000D03*
X112750000Y-122250000D03*
D13*
X121000000Y-124500000D03*
X121000000Y-126500000D03*
X121000000Y-122500000D03*
D12*
X121000000Y-120400000D03*
X121000000Y-128600000D03*
D14*
X131100000Y-120975000D03*
X139500000Y-120600000D03*
X142100000Y-114800000D03*
X122800000Y-98800000D03*
X121500000Y-101000000D03*
X139500000Y-115400000D03*
X130800000Y-95700000D03*
X142524999Y-119200001D03*
X139300000Y-123700000D03*
X135300000Y-132000000D03*
X136300000Y-98100000D03*
X138900000Y-112200000D03*
X115600000Y-116500000D03*
X127400000Y-91100000D03*
X124500000Y-112800000D03*
X117600000Y-116300000D03*
X125000000Y-123200000D03*
X136000000Y-123000000D03*
X134100000Y-128800000D03*
X127800000Y-126700000D03*
X145200000Y-114100000D03*
X136400000Y-88600000D03*
X123600000Y-88600000D03*
X141000000Y-99304739D03*
X119200000Y-98804739D03*
X114600000Y-114200000D03*
X114100000Y-118800000D03*
X131900000Y-127500000D03*
X124600000Y-132400000D03*
X143700000Y-125800000D03*
X143800000Y-125300000D03*
X144200000Y-125600000D03*
X132600000Y-125000000D03*
X131300000Y-125700000D03*
X143800000Y-108300000D03*
X140400000Y-101500000D03*
X120600000Y-118300000D03*
X124800000Y-111800000D03*
X124800000Y-99800000D03*
X124800000Y-108800000D03*
X124800000Y-105800000D03*
X124800000Y-102800000D03*
X128300000Y-99800000D03*
X128300000Y-102800000D03*
X128300000Y-105800000D03*
X128300000Y-108800000D03*
X128300000Y-111800000D03*
X131800000Y-111800000D03*
X131800000Y-108800000D03*
X131800000Y-105800000D03*
X131800000Y-102800000D03*
X131800000Y-99800000D03*
X135300000Y-99800000D03*
X135300000Y-102800000D03*
X135300000Y-105800000D03*
X135300000Y-108800000D03*
X135300000Y-111800000D03*
X141100000Y-114800000D03*
X135500000Y-114700000D03*
X137600000Y-116400000D03*
X133100000Y-116200000D03*
X140500000Y-117800000D03*
X128900000Y-118224264D03*
X120900000Y-114900000D03*
X128800000Y-96600000D03*
X129600000Y-96600000D03*
X140200000Y-114900000D03*
X131500000Y-115400000D03*
X122200000Y-115600000D03*
X136000000Y-115400000D03*
X123100000Y-117000000D03*
X131300000Y-116900000D03*
X131000000Y-96800000D03*
X122300000Y-114000000D03*
D15*
X139500000Y-120600000D02*
X139034156Y-121065844D01*
X139034156Y-121065844D02*
X131190844Y-121065844D01*
X131190844Y-121065844D02*
X131100000Y-120975000D01*
X139500000Y-115400000D02*
X139799999Y-115699999D01*
X139799999Y-115699999D02*
X141200001Y-115699999D01*
X141200001Y-115699999D02*
X141300000Y-115600000D01*
X141300000Y-115600000D02*
X141800001Y-115099999D01*
X139500000Y-120600000D02*
X139500000Y-119900000D01*
X140800000Y-119400000D02*
X141300000Y-118900000D01*
X139500000Y-119900000D02*
X140000000Y-119400000D01*
X141300000Y-118900000D02*
X141300000Y-115600000D01*
X140000000Y-119400000D02*
X140800000Y-119400000D01*
X141800001Y-115099999D02*
X142100000Y-114800000D01*
D16*
X121500000Y-101000000D02*
X121500000Y-100100000D01*
X121500000Y-100100000D02*
X122800000Y-98800000D01*
X131300000Y-125700000D02*
X131900000Y-125700000D01*
X131900000Y-125700000D02*
X132600000Y-125000000D01*
D15*
X143800000Y-108300000D02*
X142300000Y-106800000D01*
X142300000Y-106800000D02*
X142300000Y-105600000D01*
X140400000Y-103700000D02*
X142300000Y-105600000D01*
X140400000Y-101924264D02*
X140400000Y-103700000D01*
X140400000Y-101500000D02*
X140400000Y-101924264D01*
X118249999Y-121250001D02*
X118249999Y-120500000D01*
X120600000Y-118300000D02*
X120175736Y-118300000D01*
X120175736Y-118300000D02*
X118249999Y-120225737D01*
X118249999Y-120225737D02*
X118249999Y-120500000D01*
X117250000Y-122250000D02*
X118249999Y-121250001D01*
D16*
X124800000Y-111800000D02*
X124800000Y-111375736D01*
X124800000Y-111375736D02*
X124800000Y-108800000D01*
X124800000Y-99800000D02*
X124800000Y-102800000D01*
X124800000Y-105800000D02*
X124800000Y-102800000D01*
X124800000Y-108800000D02*
X124800000Y-108375736D01*
X124800000Y-108375736D02*
X124800000Y-105800000D01*
X128300000Y-102800000D02*
X128300000Y-99800000D01*
X128300000Y-105800000D02*
X128300000Y-102800000D01*
X128300000Y-108800000D02*
X128300000Y-105800000D01*
X128300000Y-111800000D02*
X128300000Y-108800000D01*
X131800000Y-108800000D02*
X131800000Y-111800000D01*
X131800000Y-105800000D02*
X131800000Y-108800000D01*
X131800000Y-102800000D02*
X131800000Y-105800000D01*
X131800000Y-99800000D02*
X131800000Y-102800000D01*
X135300000Y-100224264D02*
X135300000Y-102800000D01*
X135300000Y-99800000D02*
X135300000Y-100224264D01*
X135300000Y-105800000D02*
X135300000Y-102800000D01*
X135300000Y-108800000D02*
X135300000Y-105800000D01*
X135300000Y-111800000D02*
X135300000Y-108800000D01*
D15*
X138700000Y-114100000D02*
X140400000Y-114100000D01*
X140400000Y-114100000D02*
X141100000Y-114800000D01*
X138100000Y-114700000D02*
X138700000Y-114100000D01*
X137500000Y-114700000D02*
X138100000Y-114700000D01*
X135500000Y-114700000D02*
X137500000Y-114700000D01*
X137600000Y-116400000D02*
X137600000Y-116824264D01*
X140075736Y-117800000D02*
X140500000Y-117800000D01*
X137600000Y-116824264D02*
X138575736Y-117800000D01*
X138575736Y-117800000D02*
X140075736Y-117800000D01*
X128900000Y-118224264D02*
X131075736Y-118224264D01*
X131075736Y-118224264D02*
X133100000Y-116200000D01*
X133100000Y-116200000D02*
X123599998Y-116200000D01*
X123599998Y-116200000D02*
X123499999Y-116299999D01*
X123499999Y-116299999D02*
X121499999Y-116299999D01*
X121499999Y-116299999D02*
X120900000Y-115700000D01*
X120900000Y-115700000D02*
X120900000Y-114900000D01*
X126500000Y-98475736D02*
X126500000Y-113700000D01*
X126500000Y-113700000D02*
X125300000Y-114900000D01*
X128800000Y-96600000D02*
X128375736Y-96600000D01*
X128375736Y-96600000D02*
X126500000Y-98475736D01*
X121324264Y-114900000D02*
X125300000Y-114900000D01*
X120900000Y-114900000D02*
X121324264Y-114900000D01*
X129600000Y-96600000D02*
X129600000Y-97024264D01*
X128600000Y-97400000D02*
X127000000Y-99000000D01*
X127000000Y-99000000D02*
X127000000Y-115600000D01*
X129600000Y-97024264D02*
X129224264Y-97400000D01*
X129224264Y-97400000D02*
X128600000Y-97400000D01*
X138100000Y-115400000D02*
X138899999Y-114600001D01*
X138899999Y-114600001D02*
X139900001Y-114600001D01*
X139900001Y-114600001D02*
X140200000Y-114900000D01*
X138100000Y-115400000D02*
X136000000Y-115400000D01*
X131500000Y-115400000D02*
X131075736Y-115400000D01*
X130875736Y-115600000D02*
X127000000Y-115600000D01*
X131075736Y-115400000D02*
X130875736Y-115600000D01*
X127000000Y-115600000D02*
X122200000Y-115600000D01*
X123100000Y-117000000D02*
X131200000Y-117000000D01*
X131200000Y-117000000D02*
X131300000Y-116900000D01*
X122300000Y-114000000D02*
X122599999Y-114299999D01*
X122599999Y-114299999D02*
X124800000Y-114300000D01*
X124800000Y-114300000D02*
X125900000Y-113200000D01*
X125900000Y-113200000D02*
X125900000Y-98200000D01*
X125900000Y-98200000D02*
X128200000Y-95900000D01*
X128200000Y-95900000D02*
X130100000Y-95900000D01*
X130100000Y-95900000D02*
X131000000Y-96800000D01*
G36*
X142690982Y-99500000D02*
X140500000Y-99500000D01*
X140482379Y-99503505D01*
X140464556Y-99501258D01*
X140387262Y-99522425D01*
X140308658Y-99538060D01*
X140293721Y-99548041D01*
X140276393Y-99552786D01*
X140213076Y-99601926D01*
X140146447Y-99646447D01*
X140136467Y-99661383D01*
X140122273Y-99672399D01*
X140082586Y-99742021D01*
X140038060Y-99808658D01*
X140034555Y-99826281D01*
X140025659Y-99841886D01*
X140015636Y-99921391D01*
X140000000Y-100000000D01*
X140003505Y-100017621D01*
X140001258Y-100035444D01*
X140022425Y-100112738D01*
X140038060Y-100191342D01*
X140048041Y-100206279D01*
X140052786Y-100223607D01*
X140340957Y-100799948D01*
X140261372Y-100799879D01*
X140004000Y-100906223D01*
X139806915Y-101102964D01*
X139700122Y-101360150D01*
X139699879Y-101638628D01*
X139806223Y-101896000D01*
X139900000Y-101989941D01*
X139900000Y-103700000D01*
X139938060Y-103891342D01*
X140046447Y-104053553D01*
X141800000Y-105807107D01*
X141800000Y-106800000D01*
X141838060Y-106991342D01*
X141946447Y-107153553D01*
X143099994Y-108307101D01*
X143099879Y-108438628D01*
X143206223Y-108696000D01*
X143402964Y-108893085D01*
X143660150Y-108999878D01*
X143938628Y-109000121D01*
X144196000Y-108893777D01*
X144323988Y-108766012D01*
X147190982Y-114500000D01*
X145000000Y-114500000D01*
X144982379Y-114503505D01*
X144964556Y-114501258D01*
X144887262Y-114522425D01*
X144808658Y-114538060D01*
X144793721Y-114548041D01*
X144776393Y-114552786D01*
X144713076Y-114601926D01*
X144646447Y-114646447D01*
X144636467Y-114661383D01*
X144622273Y-114672399D01*
X144582586Y-114742021D01*
X144538060Y-114808658D01*
X144534555Y-114826281D01*
X144525659Y-114841886D01*
X144515636Y-114921391D01*
X144500000Y-115000000D01*
X144503505Y-115017621D01*
X144501258Y-115035444D01*
X144522425Y-115112738D01*
X144538060Y-115191342D01*
X144548041Y-115206279D01*
X144552786Y-115223607D01*
X147082483Y-120283000D01*
X146884139Y-120258119D01*
X146545504Y-120351077D01*
X145693468Y-120777745D01*
X145416183Y-120993217D01*
X145242463Y-121298400D01*
X145198754Y-121646832D01*
X145291712Y-121985467D01*
X145507184Y-122262752D01*
X145812367Y-122436472D01*
X146160799Y-122480181D01*
X146499434Y-122387223D01*
X147351470Y-121960555D01*
X147628755Y-121745083D01*
X147727121Y-121572278D01*
X150815196Y-127748426D01*
X150622927Y-127724307D01*
X150284292Y-127817265D01*
X149432256Y-128243933D01*
X149154971Y-128459405D01*
X148981251Y-128764588D01*
X148937542Y-129113020D01*
X149030500Y-129451655D01*
X149068068Y-129500000D01*
X136500000Y-129500000D01*
X136308658Y-129538060D01*
X136146447Y-129646447D01*
X136038060Y-129808658D01*
X136000000Y-130000000D01*
X136000000Y-134500000D01*
X124000000Y-134500000D01*
X124000000Y-132627256D01*
X128599757Y-132627256D01*
X128812445Y-133142000D01*
X129205928Y-133536170D01*
X129720301Y-133749757D01*
X130277256Y-133750243D01*
X130792000Y-133537555D01*
X131186170Y-133144072D01*
X131399757Y-132629699D01*
X131400243Y-132072744D01*
X131187555Y-131558000D01*
X130794072Y-131163830D01*
X130279699Y-130950243D01*
X129722744Y-130949757D01*
X129208000Y-131162445D01*
X128813830Y-131555928D01*
X128600243Y-132070301D01*
X128599757Y-132627256D01*
X124000000Y-132627256D01*
X124000000Y-130000000D01*
X123961940Y-129808658D01*
X123853553Y-129646447D01*
X123691342Y-129538060D01*
X123500000Y-129500000D01*
X122080057Y-129500000D01*
X122186170Y-129394072D01*
X122399757Y-128879699D01*
X122400032Y-128564321D01*
X145678242Y-128564321D01*
X145771199Y-128902956D01*
X145986670Y-129180242D01*
X146291853Y-129353963D01*
X146640285Y-129397672D01*
X146978920Y-129304715D01*
X147238370Y-129174793D01*
X147515656Y-128959322D01*
X147689376Y-128654139D01*
X147733086Y-128305708D01*
X147640129Y-127967072D01*
X147424658Y-127689786D01*
X147119475Y-127516066D01*
X146771043Y-127472356D01*
X146432408Y-127565313D01*
X146172958Y-127695235D01*
X145895672Y-127910706D01*
X145721951Y-128215889D01*
X145678242Y-128564321D01*
X122400032Y-128564321D01*
X122400243Y-128322744D01*
X122187555Y-127808000D01*
X121794072Y-127413830D01*
X121786332Y-127410616D01*
X122016717Y-127180633D01*
X122199791Y-126739742D01*
X122200207Y-126262353D01*
X122025128Y-125838628D01*
X130599879Y-125838628D01*
X130706223Y-126096000D01*
X130902964Y-126293085D01*
X131160150Y-126399878D01*
X131438628Y-126400121D01*
X131696000Y-126293777D01*
X131739854Y-126250000D01*
X131900000Y-126250000D01*
X132110476Y-126208134D01*
X132288909Y-126088909D01*
X132559582Y-125818236D01*
X138778844Y-125818236D01*
X138915572Y-126149143D01*
X139168525Y-126402538D01*
X139499194Y-126539843D01*
X139857236Y-126540156D01*
X140188143Y-126403428D01*
X140441538Y-126150475D01*
X140578843Y-125819806D01*
X140578844Y-125818236D01*
X140810844Y-125818236D01*
X140947572Y-126149143D01*
X141200525Y-126402538D01*
X141531194Y-126539843D01*
X141889236Y-126540156D01*
X142220143Y-126403428D01*
X142473538Y-126150475D01*
X142610843Y-125819806D01*
X142611156Y-125461764D01*
X142474428Y-125130857D01*
X142221475Y-124877462D01*
X141890806Y-124740157D01*
X141532764Y-124739844D01*
X141201857Y-124876572D01*
X140948462Y-125129525D01*
X140811157Y-125460194D01*
X140810844Y-125818236D01*
X140578844Y-125818236D01*
X140579156Y-125461764D01*
X140442428Y-125130857D01*
X140189475Y-124877462D01*
X139858806Y-124740157D01*
X139500764Y-124739844D01*
X139169857Y-124876572D01*
X138916462Y-125129525D01*
X138779157Y-125460194D01*
X138778844Y-125818236D01*
X132559582Y-125818236D01*
X132677750Y-125700068D01*
X132738628Y-125700121D01*
X132996000Y-125593777D01*
X133193085Y-125397036D01*
X133299878Y-125139850D01*
X133300121Y-124861372D01*
X133193777Y-124604000D01*
X133175145Y-124585335D01*
X143685714Y-124585335D01*
X143778671Y-124923970D01*
X143994142Y-125201256D01*
X144299325Y-125374977D01*
X144647757Y-125418686D01*
X144986392Y-125325729D01*
X145245842Y-125195807D01*
X145523128Y-124980336D01*
X145696848Y-124675153D01*
X145740558Y-124326722D01*
X145647601Y-123988086D01*
X145432130Y-123710800D01*
X145126947Y-123537080D01*
X144778515Y-123493370D01*
X144439880Y-123586327D01*
X144180430Y-123716249D01*
X143903144Y-123931720D01*
X143729423Y-124236903D01*
X143685714Y-124585335D01*
X133175145Y-124585335D01*
X132997036Y-124406915D01*
X132739850Y-124300122D01*
X132461372Y-124299879D01*
X132204000Y-124406223D01*
X132006915Y-124602964D01*
X131900122Y-124860150D01*
X131900068Y-124922115D01*
X131706144Y-125116039D01*
X131697036Y-125106915D01*
X131439850Y-125000122D01*
X131161372Y-124999879D01*
X130904000Y-125106223D01*
X130706915Y-125302964D01*
X130600122Y-125560150D01*
X130599879Y-125838628D01*
X122025128Y-125838628D01*
X122017903Y-125821143D01*
X121697057Y-125499735D01*
X122016717Y-125180633D01*
X122199791Y-124739742D01*
X122200207Y-124262353D01*
X122017903Y-123821143D01*
X121697057Y-123499735D01*
X122016717Y-123180633D01*
X122199791Y-122739742D01*
X122200207Y-122262353D01*
X122017903Y-121821143D01*
X121786848Y-121589684D01*
X121792000Y-121587555D01*
X122186170Y-121194072D01*
X122219573Y-121113628D01*
X130399879Y-121113628D01*
X130506223Y-121371000D01*
X130702964Y-121568085D01*
X130960150Y-121674878D01*
X131238628Y-121675121D01*
X131496000Y-121568777D01*
X131498938Y-121565844D01*
X139034156Y-121565844D01*
X139225498Y-121527784D01*
X139387709Y-121419397D01*
X139507100Y-121300006D01*
X139638628Y-121300121D01*
X139896000Y-121193777D01*
X139976134Y-121113783D01*
X140184525Y-121322538D01*
X140515194Y-121459843D01*
X140873236Y-121460156D01*
X141204143Y-121323428D01*
X141457538Y-121070475D01*
X141594843Y-120739806D01*
X141595156Y-120381764D01*
X141458428Y-120050857D01*
X141205475Y-119797462D01*
X141132925Y-119767337D01*
X141153553Y-119753553D01*
X141653554Y-119253553D01*
X141761940Y-119091342D01*
X141800000Y-118900000D01*
X141800000Y-115807106D01*
X142107101Y-115500006D01*
X142238628Y-115500121D01*
X142496000Y-115393777D01*
X142693085Y-115197036D01*
X142799878Y-114939850D01*
X142800121Y-114661372D01*
X142693777Y-114404000D01*
X142497036Y-114206915D01*
X142239850Y-114100122D01*
X141961372Y-114099879D01*
X141704000Y-114206223D01*
X141599991Y-114310050D01*
X141497036Y-114206915D01*
X141239850Y-114100122D01*
X141107113Y-114100006D01*
X140753553Y-113746447D01*
X140591342Y-113638060D01*
X140400000Y-113600000D01*
X138700000Y-113600000D01*
X138508658Y-113638060D01*
X138346447Y-113746447D01*
X137892894Y-114200000D01*
X135989959Y-114200000D01*
X135897036Y-114106915D01*
X135639850Y-114000122D01*
X135361372Y-113999879D01*
X135104000Y-114106223D01*
X134906915Y-114302964D01*
X134800122Y-114560150D01*
X134799879Y-114838628D01*
X134906223Y-115096000D01*
X135102964Y-115293085D01*
X135300022Y-115374911D01*
X135299879Y-115538628D01*
X135406223Y-115796000D01*
X135602964Y-115993085D01*
X135860150Y-116099878D01*
X136138628Y-116100121D01*
X136396000Y-115993777D01*
X136489941Y-115900000D01*
X137110059Y-115900000D01*
X137006915Y-116002964D01*
X136900122Y-116260150D01*
X136899879Y-116538628D01*
X137006223Y-116796000D01*
X137116315Y-116906285D01*
X137138060Y-117015606D01*
X137246447Y-117177817D01*
X138222183Y-118153553D01*
X138384394Y-118261940D01*
X138575736Y-118300000D01*
X140010041Y-118300000D01*
X140102964Y-118393085D01*
X140360150Y-118499878D01*
X140638628Y-118500121D01*
X140800000Y-118433443D01*
X140800000Y-118692893D01*
X140592894Y-118900000D01*
X140000000Y-118900000D01*
X139808658Y-118938060D01*
X139646447Y-119046446D01*
X139146447Y-119546447D01*
X139038060Y-119708658D01*
X139000000Y-119900000D01*
X139000000Y-120110041D01*
X138906915Y-120202964D01*
X138800122Y-120460150D01*
X138800030Y-120565844D01*
X131680644Y-120565844D01*
X131497036Y-120381915D01*
X131239850Y-120275122D01*
X130961372Y-120274879D01*
X130704000Y-120381223D01*
X130506915Y-120577964D01*
X130400122Y-120835150D01*
X130399879Y-121113628D01*
X122219573Y-121113628D01*
X122399757Y-120679699D01*
X122400243Y-120122744D01*
X122187555Y-119608000D01*
X121794072Y-119213830D01*
X121279699Y-119000243D01*
X120739474Y-118999772D01*
X120996000Y-118893777D01*
X121193085Y-118697036D01*
X121299878Y-118439850D01*
X121300121Y-118161372D01*
X121193777Y-117904000D01*
X120997036Y-117706915D01*
X120739850Y-117600122D01*
X120461372Y-117599879D01*
X120204000Y-117706223D01*
X120093716Y-117816315D01*
X119984394Y-117838060D01*
X119822182Y-117946447D01*
X117896446Y-119872184D01*
X117788059Y-120034395D01*
X117749999Y-120225737D01*
X117749999Y-120941720D01*
X117529699Y-120850243D01*
X116972744Y-120849757D01*
X116458000Y-121062445D01*
X116063830Y-121455928D01*
X115850243Y-121970301D01*
X115849757Y-122527256D01*
X116062445Y-123042000D01*
X116455928Y-123436170D01*
X116970301Y-123649757D01*
X117527256Y-123650243D01*
X118042000Y-123437555D01*
X118436170Y-123044072D01*
X118649757Y-122529699D01*
X118650243Y-121972744D01*
X118528647Y-121678459D01*
X118603552Y-121603554D01*
X118711939Y-121441343D01*
X118734374Y-121328553D01*
X118749999Y-121250001D01*
X118749999Y-120432843D01*
X120264292Y-118918551D01*
X120460150Y-118999878D01*
X120721898Y-119000106D01*
X120208000Y-119212445D01*
X119813830Y-119605928D01*
X119600243Y-120120301D01*
X119599757Y-120677256D01*
X119812445Y-121192000D01*
X120205928Y-121586170D01*
X120213668Y-121589384D01*
X119983283Y-121819367D01*
X119800209Y-122260258D01*
X119799793Y-122737647D01*
X119982097Y-123178857D01*
X120302943Y-123500265D01*
X119983283Y-123819367D01*
X119800209Y-124260258D01*
X119799793Y-124737647D01*
X119982097Y-125178857D01*
X120302943Y-125500265D01*
X119983283Y-125819367D01*
X119800209Y-126260258D01*
X119799793Y-126737647D01*
X119982097Y-127178857D01*
X120213152Y-127410316D01*
X120208000Y-127412445D01*
X119813830Y-127805928D01*
X119600243Y-128320301D01*
X119599757Y-128877256D01*
X119812445Y-129392000D01*
X119920257Y-129500000D01*
X118454470Y-129500000D01*
X118649757Y-129029699D01*
X118650243Y-128472744D01*
X118437555Y-127958000D01*
X118044072Y-127563830D01*
X117529699Y-127350243D01*
X116972744Y-127349757D01*
X116458000Y-127562445D01*
X116063830Y-127955928D01*
X115850243Y-128470301D01*
X115849757Y-129027256D01*
X116045091Y-129500000D01*
X113954470Y-129500000D01*
X114149757Y-129029699D01*
X114150243Y-128472744D01*
X113937555Y-127958000D01*
X113544072Y-127563830D01*
X113029699Y-127350243D01*
X112472744Y-127349757D01*
X111958000Y-127562445D01*
X111563830Y-127955928D01*
X111350243Y-128470301D01*
X111349757Y-129027256D01*
X111545091Y-129500000D01*
X108309018Y-129500000D01*
X111551392Y-123015250D01*
X111562445Y-123042000D01*
X111955928Y-123436170D01*
X112470301Y-123649757D01*
X113027256Y-123650243D01*
X113542000Y-123437555D01*
X113936170Y-123044072D01*
X114149757Y-122529699D01*
X114150243Y-121972744D01*
X113937555Y-121458000D01*
X113544072Y-121063830D01*
X113029699Y-120850243D01*
X112634069Y-120849898D01*
X115447214Y-115223607D01*
X115451959Y-115206279D01*
X115461940Y-115191342D01*
X115477574Y-115112746D01*
X115497871Y-115038628D01*
X120199879Y-115038628D01*
X120306223Y-115296000D01*
X120400000Y-115389941D01*
X120400000Y-115700000D01*
X120429130Y-115846446D01*
X120438060Y-115891342D01*
X120546447Y-116053553D01*
X121146446Y-116653553D01*
X121243685Y-116718525D01*
X121308657Y-116761939D01*
X121499999Y-116799999D01*
X122425099Y-116799999D01*
X122400122Y-116860150D01*
X122399879Y-117138628D01*
X122506223Y-117396000D01*
X122702964Y-117593085D01*
X122960150Y-117699878D01*
X123238628Y-117700121D01*
X123496000Y-117593777D01*
X123589941Y-117500000D01*
X130919617Y-117500000D01*
X131042054Y-117550840D01*
X130868630Y-117724264D01*
X129389959Y-117724264D01*
X129297036Y-117631179D01*
X129039850Y-117524386D01*
X128761372Y-117524143D01*
X128504000Y-117630487D01*
X128306915Y-117827228D01*
X128200122Y-118084414D01*
X128199879Y-118362892D01*
X128306223Y-118620264D01*
X128502964Y-118817349D01*
X128760150Y-118924142D01*
X129038628Y-118924385D01*
X129296000Y-118818041D01*
X129389941Y-118724264D01*
X131075736Y-118724264D01*
X131267078Y-118686204D01*
X131429289Y-118577817D01*
X133107101Y-116900006D01*
X133238628Y-116900121D01*
X133496000Y-116793777D01*
X133693085Y-116597036D01*
X133799878Y-116339850D01*
X133800121Y-116061372D01*
X133693777Y-115804000D01*
X133497036Y-115606915D01*
X133239850Y-115500122D01*
X132961372Y-115499879D01*
X132704000Y-115606223D01*
X132610059Y-115700000D01*
X132133378Y-115700000D01*
X132199878Y-115539850D01*
X132200121Y-115261372D01*
X132093777Y-115004000D01*
X131897036Y-114806915D01*
X131639850Y-114700122D01*
X131361372Y-114699879D01*
X131104000Y-114806223D01*
X130993716Y-114916315D01*
X130884394Y-114938060D01*
X130819422Y-114981474D01*
X130722183Y-115046446D01*
X130668629Y-115100000D01*
X127500000Y-115100000D01*
X127500000Y-99938628D01*
X127599879Y-99938628D01*
X127706223Y-100196000D01*
X127750000Y-100239854D01*
X127750000Y-102359954D01*
X127706915Y-102402964D01*
X127600122Y-102660150D01*
X127599879Y-102938628D01*
X127706223Y-103196000D01*
X127750000Y-103239854D01*
X127750000Y-105359954D01*
X127706915Y-105402964D01*
X127600122Y-105660150D01*
X127599879Y-105938628D01*
X127706223Y-106196000D01*
X127750000Y-106239854D01*
X127750000Y-108359954D01*
X127706915Y-108402964D01*
X127600122Y-108660150D01*
X127599879Y-108938628D01*
X127706223Y-109196000D01*
X127750000Y-109239854D01*
X127750000Y-111359954D01*
X127706915Y-111402964D01*
X127600122Y-111660150D01*
X127599879Y-111938628D01*
X127706223Y-112196000D01*
X127902964Y-112393085D01*
X128160150Y-112499878D01*
X128438628Y-112500121D01*
X128696000Y-112393777D01*
X128893085Y-112197036D01*
X128999878Y-111939850D01*
X129000121Y-111661372D01*
X128893777Y-111404000D01*
X128850000Y-111360146D01*
X128850000Y-109240046D01*
X128893085Y-109197036D01*
X128999878Y-108939850D01*
X129000121Y-108661372D01*
X128893777Y-108404000D01*
X128850000Y-108360146D01*
X128850000Y-106240046D01*
X128893085Y-106197036D01*
X128999878Y-105939850D01*
X129000121Y-105661372D01*
X128893777Y-105404000D01*
X128850000Y-105360146D01*
X128850000Y-103240046D01*
X128893085Y-103197036D01*
X128999878Y-102939850D01*
X129000121Y-102661372D01*
X128893777Y-102404000D01*
X128850000Y-102360146D01*
X128850000Y-100240046D01*
X128893085Y-100197036D01*
X128999878Y-99939850D01*
X128999879Y-99938628D01*
X131099879Y-99938628D01*
X131206223Y-100196000D01*
X131250000Y-100239854D01*
X131250000Y-102359954D01*
X131206915Y-102402964D01*
X131100122Y-102660150D01*
X131099879Y-102938628D01*
X131206223Y-103196000D01*
X131250000Y-103239854D01*
X131250000Y-105359954D01*
X131206915Y-105402964D01*
X131100122Y-105660150D01*
X131099879Y-105938628D01*
X131206223Y-106196000D01*
X131250000Y-106239854D01*
X131250000Y-108359954D01*
X131206915Y-108402964D01*
X131100122Y-108660150D01*
X131099879Y-108938628D01*
X131206223Y-109196000D01*
X131250000Y-109239854D01*
X131250000Y-111359954D01*
X131206915Y-111402964D01*
X131100122Y-111660150D01*
X131099879Y-111938628D01*
X131206223Y-112196000D01*
X131402964Y-112393085D01*
X131660150Y-112499878D01*
X131938628Y-112500121D01*
X132196000Y-112393777D01*
X132393085Y-112197036D01*
X132499878Y-111939850D01*
X132500121Y-111661372D01*
X132393777Y-111404000D01*
X132350000Y-111360146D01*
X132350000Y-109240046D01*
X132393085Y-109197036D01*
X132499878Y-108939850D01*
X132500121Y-108661372D01*
X132393777Y-108404000D01*
X132350000Y-108360146D01*
X132350000Y-106240046D01*
X132393085Y-106197036D01*
X132499878Y-105939850D01*
X132500121Y-105661372D01*
X132393777Y-105404000D01*
X132350000Y-105360146D01*
X132350000Y-103240046D01*
X132393085Y-103197036D01*
X132499878Y-102939850D01*
X132500121Y-102661372D01*
X132393777Y-102404000D01*
X132350000Y-102360146D01*
X132350000Y-100240046D01*
X132393085Y-100197036D01*
X132499878Y-99939850D01*
X132499879Y-99938628D01*
X134599879Y-99938628D01*
X134706223Y-100196000D01*
X134750000Y-100239854D01*
X134750000Y-102359954D01*
X134706915Y-102402964D01*
X134600122Y-102660150D01*
X134599879Y-102938628D01*
X134706223Y-103196000D01*
X134750000Y-103239854D01*
X134750000Y-105359954D01*
X134706915Y-105402964D01*
X134600122Y-105660150D01*
X134599879Y-105938628D01*
X134706223Y-106196000D01*
X134750000Y-106239854D01*
X134750000Y-108359954D01*
X134706915Y-108402964D01*
X134600122Y-108660150D01*
X134599879Y-108938628D01*
X134706223Y-109196000D01*
X134750000Y-109239854D01*
X134750000Y-111359954D01*
X134706915Y-111402964D01*
X134600122Y-111660150D01*
X134599879Y-111938628D01*
X134706223Y-112196000D01*
X134902964Y-112393085D01*
X135160150Y-112499878D01*
X135438628Y-112500121D01*
X135696000Y-112393777D01*
X135893085Y-112197036D01*
X135999878Y-111939850D01*
X136000121Y-111661372D01*
X135893777Y-111404000D01*
X135850000Y-111360146D01*
X135850000Y-109240046D01*
X135893085Y-109197036D01*
X135999878Y-108939850D01*
X136000121Y-108661372D01*
X135893777Y-108404000D01*
X135850000Y-108360146D01*
X135850000Y-106240046D01*
X135893085Y-106197036D01*
X135999878Y-105939850D01*
X136000121Y-105661372D01*
X135893777Y-105404000D01*
X135850000Y-105360146D01*
X135850000Y-103240046D01*
X135893085Y-103197036D01*
X135999878Y-102939850D01*
X136000121Y-102661372D01*
X135893777Y-102404000D01*
X135850000Y-102360146D01*
X135850000Y-100240046D01*
X135893085Y-100197036D01*
X135999878Y-99939850D01*
X136000121Y-99661372D01*
X135893777Y-99404000D01*
X135697036Y-99206915D01*
X135439850Y-99100122D01*
X135161372Y-99099879D01*
X134904000Y-99206223D01*
X134706915Y-99402964D01*
X134600122Y-99660150D01*
X134599879Y-99938628D01*
X132499879Y-99938628D01*
X132500121Y-99661372D01*
X132393777Y-99404000D01*
X132197036Y-99206915D01*
X131939850Y-99100122D01*
X131661372Y-99099879D01*
X131404000Y-99206223D01*
X131206915Y-99402964D01*
X131100122Y-99660150D01*
X131099879Y-99938628D01*
X128999879Y-99938628D01*
X129000121Y-99661372D01*
X128893777Y-99404000D01*
X128697036Y-99206915D01*
X128439850Y-99100122D01*
X128161372Y-99099879D01*
X127904000Y-99206223D01*
X127706915Y-99402964D01*
X127600122Y-99660150D01*
X127599879Y-99938628D01*
X127500000Y-99938628D01*
X127500000Y-99207106D01*
X128807107Y-97900000D01*
X129224264Y-97900000D01*
X129415606Y-97861940D01*
X129577817Y-97753553D01*
X129953553Y-97377817D01*
X130061940Y-97215606D01*
X130083694Y-97106236D01*
X130193085Y-96997036D01*
X130280180Y-96787287D01*
X130299994Y-96807100D01*
X130299879Y-96938628D01*
X130406223Y-97196000D01*
X130602964Y-97393085D01*
X130860150Y-97499878D01*
X131138628Y-97500121D01*
X131396000Y-97393777D01*
X131593085Y-97197036D01*
X131699878Y-96939850D01*
X131700121Y-96661372D01*
X131593777Y-96404000D01*
X131397036Y-96206915D01*
X131139850Y-96100122D01*
X131007113Y-96100006D01*
X130453553Y-95546447D01*
X130291342Y-95438060D01*
X130100000Y-95400000D01*
X128200000Y-95400000D01*
X128008658Y-95438060D01*
X127846446Y-95546447D01*
X125546447Y-97846447D01*
X125438060Y-98008658D01*
X125400000Y-98200000D01*
X125400000Y-99419061D01*
X125393777Y-99404000D01*
X125197036Y-99206915D01*
X124939850Y-99100122D01*
X124661372Y-99099879D01*
X124404000Y-99206223D01*
X124206915Y-99402964D01*
X124100122Y-99660150D01*
X124099879Y-99938628D01*
X124206223Y-100196000D01*
X124250000Y-100239854D01*
X124250000Y-102359954D01*
X124206915Y-102402964D01*
X124100122Y-102660150D01*
X124099879Y-102938628D01*
X124206223Y-103196000D01*
X124250000Y-103239854D01*
X124250000Y-105359954D01*
X124206915Y-105402964D01*
X124100122Y-105660150D01*
X124099879Y-105938628D01*
X124206223Y-106196000D01*
X124250000Y-106239854D01*
X124250000Y-108359954D01*
X124206915Y-108402964D01*
X124100122Y-108660150D01*
X124099879Y-108938628D01*
X124206223Y-109196000D01*
X124250000Y-109239854D01*
X124250000Y-111359954D01*
X124206915Y-111402964D01*
X124100122Y-111660150D01*
X124099879Y-111938628D01*
X124206223Y-112196000D01*
X124402964Y-112393085D01*
X124660150Y-112499878D01*
X124938628Y-112500121D01*
X125196000Y-112393777D01*
X125393085Y-112197036D01*
X125400000Y-112180383D01*
X125400000Y-112992894D01*
X124592894Y-113800000D01*
X122974762Y-113799999D01*
X122893777Y-113604000D01*
X122697036Y-113406915D01*
X122439850Y-113300122D01*
X122161372Y-113299879D01*
X121904000Y-113406223D01*
X121706915Y-113602964D01*
X121600122Y-113860150D01*
X121599879Y-114138628D01*
X121706223Y-114396000D01*
X121710216Y-114400000D01*
X121389959Y-114400000D01*
X121297036Y-114306915D01*
X121039850Y-114200122D01*
X120761372Y-114199879D01*
X120504000Y-114306223D01*
X120306915Y-114502964D01*
X120200122Y-114760150D01*
X120199879Y-115038628D01*
X115497871Y-115038628D01*
X115498743Y-115035444D01*
X115496496Y-115017618D01*
X115500000Y-115000000D01*
X115484365Y-114921397D01*
X115474341Y-114841886D01*
X115465445Y-114826281D01*
X115461940Y-114808658D01*
X115417414Y-114742021D01*
X115377727Y-114672399D01*
X115363533Y-114661383D01*
X115353553Y-114646447D01*
X115286924Y-114601926D01*
X115223607Y-114552786D01*
X115206279Y-114548041D01*
X115191342Y-114538060D01*
X115112746Y-114522426D01*
X115035444Y-114501257D01*
X115017618Y-114503504D01*
X115000000Y-114500000D01*
X112809018Y-114500000D01*
X119489703Y-101138628D01*
X120799879Y-101138628D01*
X120906223Y-101396000D01*
X121102964Y-101593085D01*
X121360150Y-101699878D01*
X121638628Y-101700121D01*
X121896000Y-101593777D01*
X122093085Y-101397036D01*
X122199878Y-101139850D01*
X122200121Y-100861372D01*
X122093777Y-100604000D01*
X122050000Y-100560146D01*
X122050000Y-100327818D01*
X122877749Y-99500068D01*
X122938628Y-99500121D01*
X123196000Y-99393777D01*
X123393085Y-99197036D01*
X123499878Y-98939850D01*
X123500121Y-98661372D01*
X123393777Y-98404000D01*
X123197036Y-98206915D01*
X122939850Y-98100122D01*
X122661372Y-98099879D01*
X122404000Y-98206223D01*
X122206915Y-98402964D01*
X122100122Y-98660150D01*
X122100068Y-98722115D01*
X121111091Y-99711091D01*
X120991866Y-99889524D01*
X120950000Y-100100000D01*
X120950000Y-100559954D01*
X120906915Y-100602964D01*
X120800122Y-100860150D01*
X120799879Y-101138628D01*
X119489703Y-101138628D01*
X119947214Y-100223607D01*
X119951959Y-100206279D01*
X119961940Y-100191342D01*
X119977574Y-100112746D01*
X119998743Y-100035444D01*
X119996496Y-100017618D01*
X120000000Y-100000000D01*
X119984365Y-99921397D01*
X119974341Y-99841886D01*
X119965445Y-99826281D01*
X119961940Y-99808658D01*
X119917414Y-99742021D01*
X119877727Y-99672399D01*
X119863533Y-99661383D01*
X119853553Y-99646447D01*
X119786924Y-99601926D01*
X119723607Y-99552786D01*
X119706279Y-99548041D01*
X119691342Y-99538060D01*
X119612746Y-99522426D01*
X119535444Y-99501257D01*
X119517618Y-99503504D01*
X119500000Y-99500000D01*
X117309018Y-99500000D01*
X122747356Y-88623323D01*
X129097388Y-88623323D01*
X129201944Y-88833494D01*
X129715596Y-89048809D01*
X130272546Y-89051167D01*
X130788003Y-88840211D01*
X130798056Y-88833494D01*
X130902612Y-88623323D01*
X130000000Y-87720711D01*
X129097388Y-88623323D01*
X122747356Y-88623323D01*
X123097745Y-87922546D01*
X128598833Y-87922546D01*
X128809789Y-88438003D01*
X128816506Y-88448056D01*
X129026677Y-88552612D01*
X129929289Y-87650000D01*
X130070711Y-87650000D01*
X130973323Y-88552612D01*
X131183494Y-88448056D01*
X131398809Y-87934404D01*
X131401167Y-87377454D01*
X131190211Y-86861997D01*
X131183494Y-86851944D01*
X130973323Y-86747388D01*
X130070711Y-87650000D01*
X129929289Y-87650000D01*
X129026677Y-86747388D01*
X128816506Y-86851944D01*
X128601191Y-87365596D01*
X128598833Y-87922546D01*
X123097745Y-87922546D01*
X123720679Y-86676677D01*
X129097388Y-86676677D01*
X130000000Y-87579289D01*
X130902612Y-86676677D01*
X130798056Y-86466506D01*
X130284404Y-86251191D01*
X129727454Y-86248833D01*
X129211997Y-86459789D01*
X129201944Y-86466506D01*
X129097388Y-86676677D01*
X123720679Y-86676677D01*
X124309018Y-85500000D01*
X135690982Y-85500000D01*
X142690982Y-99500000D01*
X142690982Y-99500000D01*
G37*
X142690982Y-99500000D02*
X140500000Y-99500000D01*
X140482379Y-99503505D01*
X140464556Y-99501258D01*
X140387262Y-99522425D01*
X140308658Y-99538060D01*
X140293721Y-99548041D01*
X140276393Y-99552786D01*
X140213076Y-99601926D01*
X140146447Y-99646447D01*
X140136467Y-99661383D01*
X140122273Y-99672399D01*
X140082586Y-99742021D01*
X140038060Y-99808658D01*
X140034555Y-99826281D01*
X140025659Y-99841886D01*
X140015636Y-99921391D01*
X140000000Y-100000000D01*
X140003505Y-100017621D01*
X140001258Y-100035444D01*
X140022425Y-100112738D01*
X140038060Y-100191342D01*
X140048041Y-100206279D01*
X140052786Y-100223607D01*
X140340957Y-100799948D01*
X140261372Y-100799879D01*
X140004000Y-100906223D01*
X139806915Y-101102964D01*
X139700122Y-101360150D01*
X139699879Y-101638628D01*
X139806223Y-101896000D01*
X139900000Y-101989941D01*
X139900000Y-103700000D01*
X139938060Y-103891342D01*
X140046447Y-104053553D01*
X141800000Y-105807107D01*
X141800000Y-106800000D01*
X141838060Y-106991342D01*
X141946447Y-107153553D01*
X143099994Y-108307101D01*
X143099879Y-108438628D01*
X143206223Y-108696000D01*
X143402964Y-108893085D01*
X143660150Y-108999878D01*
X143938628Y-109000121D01*
X144196000Y-108893777D01*
X144323988Y-108766012D01*
X147190982Y-114500000D01*
X145000000Y-114500000D01*
X144982379Y-114503505D01*
X144964556Y-114501258D01*
X144887262Y-114522425D01*
X144808658Y-114538060D01*
X144793721Y-114548041D01*
X144776393Y-114552786D01*
X144713076Y-114601926D01*
X144646447Y-114646447D01*
X144636467Y-114661383D01*
X144622273Y-114672399D01*
X144582586Y-114742021D01*
X144538060Y-114808658D01*
X144534555Y-114826281D01*
X144525659Y-114841886D01*
X144515636Y-114921391D01*
X144500000Y-115000000D01*
X144503505Y-115017621D01*
X144501258Y-115035444D01*
X144522425Y-115112738D01*
X144538060Y-115191342D01*
X144548041Y-115206279D01*
X144552786Y-115223607D01*
X147082483Y-120283000D01*
X146884139Y-120258119D01*
X146545504Y-120351077D01*
X145693468Y-120777745D01*
X145416183Y-120993217D01*
X145242463Y-121298400D01*
X145198754Y-121646832D01*
X145291712Y-121985467D01*
X145507184Y-122262752D01*
X145812367Y-122436472D01*
X146160799Y-122480181D01*
X146499434Y-122387223D01*
X147351470Y-121960555D01*
X147628755Y-121745083D01*
X147727121Y-121572278D01*
X150815196Y-127748426D01*
X150622927Y-127724307D01*
X150284292Y-127817265D01*
X149432256Y-128243933D01*
X149154971Y-128459405D01*
X148981251Y-128764588D01*
X148937542Y-129113020D01*
X149030500Y-129451655D01*
X149068068Y-129500000D01*
X136500000Y-129500000D01*
X136308658Y-129538060D01*
X136146447Y-129646447D01*
X136038060Y-129808658D01*
X136000000Y-130000000D01*
X136000000Y-134500000D01*
X124000000Y-134500000D01*
X124000000Y-132627256D01*
X128599757Y-132627256D01*
X128812445Y-133142000D01*
X129205928Y-133536170D01*
X129720301Y-133749757D01*
X130277256Y-133750243D01*
X130792000Y-133537555D01*
X131186170Y-133144072D01*
X131399757Y-132629699D01*
X131400243Y-132072744D01*
X131187555Y-131558000D01*
X130794072Y-131163830D01*
X130279699Y-130950243D01*
X129722744Y-130949757D01*
X129208000Y-131162445D01*
X128813830Y-131555928D01*
X128600243Y-132070301D01*
X128599757Y-132627256D01*
X124000000Y-132627256D01*
X124000000Y-130000000D01*
X123961940Y-129808658D01*
X123853553Y-129646447D01*
X123691342Y-129538060D01*
X123500000Y-129500000D01*
X122080057Y-129500000D01*
X122186170Y-129394072D01*
X122399757Y-128879699D01*
X122400032Y-128564321D01*
X145678242Y-128564321D01*
X145771199Y-128902956D01*
X145986670Y-129180242D01*
X146291853Y-129353963D01*
X146640285Y-129397672D01*
X146978920Y-129304715D01*
X147238370Y-129174793D01*
X147515656Y-128959322D01*
X147689376Y-128654139D01*
X147733086Y-128305708D01*
X147640129Y-127967072D01*
X147424658Y-127689786D01*
X147119475Y-127516066D01*
X146771043Y-127472356D01*
X146432408Y-127565313D01*
X146172958Y-127695235D01*
X145895672Y-127910706D01*
X145721951Y-128215889D01*
X145678242Y-128564321D01*
X122400032Y-128564321D01*
X122400243Y-128322744D01*
X122187555Y-127808000D01*
X121794072Y-127413830D01*
X121786332Y-127410616D01*
X122016717Y-127180633D01*
X122199791Y-126739742D01*
X122200207Y-126262353D01*
X122025128Y-125838628D01*
X130599879Y-125838628D01*
X130706223Y-126096000D01*
X130902964Y-126293085D01*
X131160150Y-126399878D01*
X131438628Y-126400121D01*
X131696000Y-126293777D01*
X131739854Y-126250000D01*
X131900000Y-126250000D01*
X132110476Y-126208134D01*
X132288909Y-126088909D01*
X132559582Y-125818236D01*
X138778844Y-125818236D01*
X138915572Y-126149143D01*
X139168525Y-126402538D01*
X139499194Y-126539843D01*
X139857236Y-126540156D01*
X140188143Y-126403428D01*
X140441538Y-126150475D01*
X140578843Y-125819806D01*
X140578844Y-125818236D01*
X140810844Y-125818236D01*
X140947572Y-126149143D01*
X141200525Y-126402538D01*
X141531194Y-126539843D01*
X141889236Y-126540156D01*
X142220143Y-126403428D01*
X142473538Y-126150475D01*
X142610843Y-125819806D01*
X142611156Y-125461764D01*
X142474428Y-125130857D01*
X142221475Y-124877462D01*
X141890806Y-124740157D01*
X141532764Y-124739844D01*
X141201857Y-124876572D01*
X140948462Y-125129525D01*
X140811157Y-125460194D01*
X140810844Y-125818236D01*
X140578844Y-125818236D01*
X140579156Y-125461764D01*
X140442428Y-125130857D01*
X140189475Y-124877462D01*
X139858806Y-124740157D01*
X139500764Y-124739844D01*
X139169857Y-124876572D01*
X138916462Y-125129525D01*
X138779157Y-125460194D01*
X138778844Y-125818236D01*
X132559582Y-125818236D01*
X132677750Y-125700068D01*
X132738628Y-125700121D01*
X132996000Y-125593777D01*
X133193085Y-125397036D01*
X133299878Y-125139850D01*
X133300121Y-124861372D01*
X133193777Y-124604000D01*
X133175145Y-124585335D01*
X143685714Y-124585335D01*
X143778671Y-124923970D01*
X143994142Y-125201256D01*
X144299325Y-125374977D01*
X144647757Y-125418686D01*
X144986392Y-125325729D01*
X145245842Y-125195807D01*
X145523128Y-124980336D01*
X145696848Y-124675153D01*
X145740558Y-124326722D01*
X145647601Y-123988086D01*
X145432130Y-123710800D01*
X145126947Y-123537080D01*
X144778515Y-123493370D01*
X144439880Y-123586327D01*
X144180430Y-123716249D01*
X143903144Y-123931720D01*
X143729423Y-124236903D01*
X143685714Y-124585335D01*
X133175145Y-124585335D01*
X132997036Y-124406915D01*
X132739850Y-124300122D01*
X132461372Y-124299879D01*
X132204000Y-124406223D01*
X132006915Y-124602964D01*
X131900122Y-124860150D01*
X131900068Y-124922115D01*
X131706144Y-125116039D01*
X131697036Y-125106915D01*
X131439850Y-125000122D01*
X131161372Y-124999879D01*
X130904000Y-125106223D01*
X130706915Y-125302964D01*
X130600122Y-125560150D01*
X130599879Y-125838628D01*
X122025128Y-125838628D01*
X122017903Y-125821143D01*
X121697057Y-125499735D01*
X122016717Y-125180633D01*
X122199791Y-124739742D01*
X122200207Y-124262353D01*
X122017903Y-123821143D01*
X121697057Y-123499735D01*
X122016717Y-123180633D01*
X122199791Y-122739742D01*
X122200207Y-122262353D01*
X122017903Y-121821143D01*
X121786848Y-121589684D01*
X121792000Y-121587555D01*
X122186170Y-121194072D01*
X122219573Y-121113628D01*
X130399879Y-121113628D01*
X130506223Y-121371000D01*
X130702964Y-121568085D01*
X130960150Y-121674878D01*
X131238628Y-121675121D01*
X131496000Y-121568777D01*
X131498938Y-121565844D01*
X139034156Y-121565844D01*
X139225498Y-121527784D01*
X139387709Y-121419397D01*
X139507100Y-121300006D01*
X139638628Y-121300121D01*
X139896000Y-121193777D01*
X139976134Y-121113783D01*
X140184525Y-121322538D01*
X140515194Y-121459843D01*
X140873236Y-121460156D01*
X141204143Y-121323428D01*
X141457538Y-121070475D01*
X141594843Y-120739806D01*
X141595156Y-120381764D01*
X141458428Y-120050857D01*
X141205475Y-119797462D01*
X141132925Y-119767337D01*
X141153553Y-119753553D01*
X141653554Y-119253553D01*
X141761940Y-119091342D01*
X141800000Y-118900000D01*
X141800000Y-115807106D01*
X142107101Y-115500006D01*
X142238628Y-115500121D01*
X142496000Y-115393777D01*
X142693085Y-115197036D01*
X142799878Y-114939850D01*
X142800121Y-114661372D01*
X142693777Y-114404000D01*
X142497036Y-114206915D01*
X142239850Y-114100122D01*
X141961372Y-114099879D01*
X141704000Y-114206223D01*
X141599991Y-114310050D01*
X141497036Y-114206915D01*
X141239850Y-114100122D01*
X141107113Y-114100006D01*
X140753553Y-113746447D01*
X140591342Y-113638060D01*
X140400000Y-113600000D01*
X138700000Y-113600000D01*
X138508658Y-113638060D01*
X138346447Y-113746447D01*
X137892894Y-114200000D01*
X135989959Y-114200000D01*
X135897036Y-114106915D01*
X135639850Y-114000122D01*
X135361372Y-113999879D01*
X135104000Y-114106223D01*
X134906915Y-114302964D01*
X134800122Y-114560150D01*
X134799879Y-114838628D01*
X134906223Y-115096000D01*
X135102964Y-115293085D01*
X135300022Y-115374911D01*
X135299879Y-115538628D01*
X135406223Y-115796000D01*
X135602964Y-115993085D01*
X135860150Y-116099878D01*
X136138628Y-116100121D01*
X136396000Y-115993777D01*
X136489941Y-115900000D01*
X137110059Y-115900000D01*
X137006915Y-116002964D01*
X136900122Y-116260150D01*
X136899879Y-116538628D01*
X137006223Y-116796000D01*
X137116315Y-116906285D01*
X137138060Y-117015606D01*
X137246447Y-117177817D01*
X138222183Y-118153553D01*
X138384394Y-118261940D01*
X138575736Y-118300000D01*
X140010041Y-118300000D01*
X140102964Y-118393085D01*
X140360150Y-118499878D01*
X140638628Y-118500121D01*
X140800000Y-118433443D01*
X140800000Y-118692893D01*
X140592894Y-118900000D01*
X140000000Y-118900000D01*
X139808658Y-118938060D01*
X139646447Y-119046446D01*
X139146447Y-119546447D01*
X139038060Y-119708658D01*
X139000000Y-119900000D01*
X139000000Y-120110041D01*
X138906915Y-120202964D01*
X138800122Y-120460150D01*
X138800030Y-120565844D01*
X131680644Y-120565844D01*
X131497036Y-120381915D01*
X131239850Y-120275122D01*
X130961372Y-120274879D01*
X130704000Y-120381223D01*
X130506915Y-120577964D01*
X130400122Y-120835150D01*
X130399879Y-121113628D01*
X122219573Y-121113628D01*
X122399757Y-120679699D01*
X122400243Y-120122744D01*
X122187555Y-119608000D01*
X121794072Y-119213830D01*
X121279699Y-119000243D01*
X120739474Y-118999772D01*
X120996000Y-118893777D01*
X121193085Y-118697036D01*
X121299878Y-118439850D01*
X121300121Y-118161372D01*
X121193777Y-117904000D01*
X120997036Y-117706915D01*
X120739850Y-117600122D01*
X120461372Y-117599879D01*
X120204000Y-117706223D01*
X120093716Y-117816315D01*
X119984394Y-117838060D01*
X119822182Y-117946447D01*
X117896446Y-119872184D01*
X117788059Y-120034395D01*
X117749999Y-120225737D01*
X117749999Y-120941720D01*
X117529699Y-120850243D01*
X116972744Y-120849757D01*
X116458000Y-121062445D01*
X116063830Y-121455928D01*
X115850243Y-121970301D01*
X115849757Y-122527256D01*
X116062445Y-123042000D01*
X116455928Y-123436170D01*
X116970301Y-123649757D01*
X117527256Y-123650243D01*
X118042000Y-123437555D01*
X118436170Y-123044072D01*
X118649757Y-122529699D01*
X118650243Y-121972744D01*
X118528647Y-121678459D01*
X118603552Y-121603554D01*
X118711939Y-121441343D01*
X118734374Y-121328553D01*
X118749999Y-121250001D01*
X118749999Y-120432843D01*
X120264292Y-118918551D01*
X120460150Y-118999878D01*
X120721898Y-119000106D01*
X120208000Y-119212445D01*
X119813830Y-119605928D01*
X119600243Y-120120301D01*
X119599757Y-120677256D01*
X119812445Y-121192000D01*
X120205928Y-121586170D01*
X120213668Y-121589384D01*
X119983283Y-121819367D01*
X119800209Y-122260258D01*
X119799793Y-122737647D01*
X119982097Y-123178857D01*
X120302943Y-123500265D01*
X119983283Y-123819367D01*
X119800209Y-124260258D01*
X119799793Y-124737647D01*
X119982097Y-125178857D01*
X120302943Y-125500265D01*
X119983283Y-125819367D01*
X119800209Y-126260258D01*
X119799793Y-126737647D01*
X119982097Y-127178857D01*
X120213152Y-127410316D01*
X120208000Y-127412445D01*
X119813830Y-127805928D01*
X119600243Y-128320301D01*
X119599757Y-128877256D01*
X119812445Y-129392000D01*
X119920257Y-129500000D01*
X118454470Y-129500000D01*
X118649757Y-129029699D01*
X118650243Y-128472744D01*
X118437555Y-127958000D01*
X118044072Y-127563830D01*
X117529699Y-127350243D01*
X116972744Y-127349757D01*
X116458000Y-127562445D01*
X116063830Y-127955928D01*
X115850243Y-128470301D01*
X115849757Y-129027256D01*
X116045091Y-129500000D01*
X113954470Y-129500000D01*
X114149757Y-129029699D01*
X114150243Y-128472744D01*
X113937555Y-127958000D01*
X113544072Y-127563830D01*
X113029699Y-127350243D01*
X112472744Y-127349757D01*
X111958000Y-127562445D01*
X111563830Y-127955928D01*
X111350243Y-128470301D01*
X111349757Y-129027256D01*
X111545091Y-129500000D01*
X108309018Y-129500000D01*
X111551392Y-123015250D01*
X111562445Y-123042000D01*
X111955928Y-123436170D01*
X112470301Y-123649757D01*
X113027256Y-123650243D01*
X113542000Y-123437555D01*
X113936170Y-123044072D01*
X114149757Y-122529699D01*
X114150243Y-121972744D01*
X113937555Y-121458000D01*
X113544072Y-121063830D01*
X113029699Y-120850243D01*
X112634069Y-120849898D01*
X115447214Y-115223607D01*
X115451959Y-115206279D01*
X115461940Y-115191342D01*
X115477574Y-115112746D01*
X115497871Y-115038628D01*
X120199879Y-115038628D01*
X120306223Y-115296000D01*
X120400000Y-115389941D01*
X120400000Y-115700000D01*
X120429130Y-115846446D01*
X120438060Y-115891342D01*
X120546447Y-116053553D01*
X121146446Y-116653553D01*
X121243685Y-116718525D01*
X121308657Y-116761939D01*
X121499999Y-116799999D01*
X122425099Y-116799999D01*
X122400122Y-116860150D01*
X122399879Y-117138628D01*
X122506223Y-117396000D01*
X122702964Y-117593085D01*
X122960150Y-117699878D01*
X123238628Y-117700121D01*
X123496000Y-117593777D01*
X123589941Y-117500000D01*
X130919617Y-117500000D01*
X131042054Y-117550840D01*
X130868630Y-117724264D01*
X129389959Y-117724264D01*
X129297036Y-117631179D01*
X129039850Y-117524386D01*
X128761372Y-117524143D01*
X128504000Y-117630487D01*
X128306915Y-117827228D01*
X128200122Y-118084414D01*
X128199879Y-118362892D01*
X128306223Y-118620264D01*
X128502964Y-118817349D01*
X128760150Y-118924142D01*
X129038628Y-118924385D01*
X129296000Y-118818041D01*
X129389941Y-118724264D01*
X131075736Y-118724264D01*
X131267078Y-118686204D01*
X131429289Y-118577817D01*
X133107101Y-116900006D01*
X133238628Y-116900121D01*
X133496000Y-116793777D01*
X133693085Y-116597036D01*
X133799878Y-116339850D01*
X133800121Y-116061372D01*
X133693777Y-115804000D01*
X133497036Y-115606915D01*
X133239850Y-115500122D01*
X132961372Y-115499879D01*
X132704000Y-115606223D01*
X132610059Y-115700000D01*
X132133378Y-115700000D01*
X132199878Y-115539850D01*
X132200121Y-115261372D01*
X132093777Y-115004000D01*
X131897036Y-114806915D01*
X131639850Y-114700122D01*
X131361372Y-114699879D01*
X131104000Y-114806223D01*
X130993716Y-114916315D01*
X130884394Y-114938060D01*
X130819422Y-114981474D01*
X130722183Y-115046446D01*
X130668629Y-115100000D01*
X127500000Y-115100000D01*
X127500000Y-99938628D01*
X127599879Y-99938628D01*
X127706223Y-100196000D01*
X127750000Y-100239854D01*
X127750000Y-102359954D01*
X127706915Y-102402964D01*
X127600122Y-102660150D01*
X127599879Y-102938628D01*
X127706223Y-103196000D01*
X127750000Y-103239854D01*
X127750000Y-105359954D01*
X127706915Y-105402964D01*
X127600122Y-105660150D01*
X127599879Y-105938628D01*
X127706223Y-106196000D01*
X127750000Y-106239854D01*
X127750000Y-108359954D01*
X127706915Y-108402964D01*
X127600122Y-108660150D01*
X127599879Y-108938628D01*
X127706223Y-109196000D01*
X127750000Y-109239854D01*
X127750000Y-111359954D01*
X127706915Y-111402964D01*
X127600122Y-111660150D01*
X127599879Y-111938628D01*
X127706223Y-112196000D01*
X127902964Y-112393085D01*
X128160150Y-112499878D01*
X128438628Y-112500121D01*
X128696000Y-112393777D01*
X128893085Y-112197036D01*
X128999878Y-111939850D01*
X129000121Y-111661372D01*
X128893777Y-111404000D01*
X128850000Y-111360146D01*
X128850000Y-109240046D01*
X128893085Y-109197036D01*
X128999878Y-108939850D01*
X129000121Y-108661372D01*
X128893777Y-108404000D01*
X128850000Y-108360146D01*
X128850000Y-106240046D01*
X128893085Y-106197036D01*
X128999878Y-105939850D01*
X129000121Y-105661372D01*
X128893777Y-105404000D01*
X128850000Y-105360146D01*
X128850000Y-103240046D01*
X128893085Y-103197036D01*
X128999878Y-102939850D01*
X129000121Y-102661372D01*
X128893777Y-102404000D01*
X128850000Y-102360146D01*
X128850000Y-100240046D01*
X128893085Y-100197036D01*
X128999878Y-99939850D01*
X128999879Y-99938628D01*
X131099879Y-99938628D01*
X131206223Y-100196000D01*
X131250000Y-100239854D01*
X131250000Y-102359954D01*
X131206915Y-102402964D01*
X131100122Y-102660150D01*
X131099879Y-102938628D01*
X131206223Y-103196000D01*
X131250000Y-103239854D01*
X131250000Y-105359954D01*
X131206915Y-105402964D01*
X131100122Y-105660150D01*
X131099879Y-105938628D01*
X131206223Y-106196000D01*
X131250000Y-106239854D01*
X131250000Y-108359954D01*
X131206915Y-108402964D01*
X131100122Y-108660150D01*
X131099879Y-108938628D01*
X131206223Y-109196000D01*
X131250000Y-109239854D01*
X131250000Y-111359954D01*
X131206915Y-111402964D01*
X131100122Y-111660150D01*
X131099879Y-111938628D01*
X131206223Y-112196000D01*
X131402964Y-112393085D01*
X131660150Y-112499878D01*
X131938628Y-112500121D01*
X132196000Y-112393777D01*
X132393085Y-112197036D01*
X132499878Y-111939850D01*
X132500121Y-111661372D01*
X132393777Y-111404000D01*
X132350000Y-111360146D01*
X132350000Y-109240046D01*
X132393085Y-109197036D01*
X132499878Y-108939850D01*
X132500121Y-108661372D01*
X132393777Y-108404000D01*
X132350000Y-108360146D01*
X132350000Y-106240046D01*
X132393085Y-106197036D01*
X132499878Y-105939850D01*
X132500121Y-105661372D01*
X132393777Y-105404000D01*
X132350000Y-105360146D01*
X132350000Y-103240046D01*
X132393085Y-103197036D01*
X132499878Y-102939850D01*
X132500121Y-102661372D01*
X132393777Y-102404000D01*
X132350000Y-102360146D01*
X132350000Y-100240046D01*
X132393085Y-100197036D01*
X132499878Y-99939850D01*
X132499879Y-99938628D01*
X134599879Y-99938628D01*
X134706223Y-100196000D01*
X134750000Y-100239854D01*
X134750000Y-102359954D01*
X134706915Y-102402964D01*
X134600122Y-102660150D01*
X134599879Y-102938628D01*
X134706223Y-103196000D01*
X134750000Y-103239854D01*
X134750000Y-105359954D01*
X134706915Y-105402964D01*
X134600122Y-105660150D01*
X134599879Y-105938628D01*
X134706223Y-106196000D01*
X134750000Y-106239854D01*
X134750000Y-108359954D01*
X134706915Y-108402964D01*
X134600122Y-108660150D01*
X134599879Y-108938628D01*
X134706223Y-109196000D01*
X134750000Y-109239854D01*
X134750000Y-111359954D01*
X134706915Y-111402964D01*
X134600122Y-111660150D01*
X134599879Y-111938628D01*
X134706223Y-112196000D01*
X134902964Y-112393085D01*
X135160150Y-112499878D01*
X135438628Y-112500121D01*
X135696000Y-112393777D01*
X135893085Y-112197036D01*
X135999878Y-111939850D01*
X136000121Y-111661372D01*
X135893777Y-111404000D01*
X135850000Y-111360146D01*
X135850000Y-109240046D01*
X135893085Y-109197036D01*
X135999878Y-108939850D01*
X136000121Y-108661372D01*
X135893777Y-108404000D01*
X135850000Y-108360146D01*
X135850000Y-106240046D01*
X135893085Y-106197036D01*
X135999878Y-105939850D01*
X136000121Y-105661372D01*
X135893777Y-105404000D01*
X135850000Y-105360146D01*
X135850000Y-103240046D01*
X135893085Y-103197036D01*
X135999878Y-102939850D01*
X136000121Y-102661372D01*
X135893777Y-102404000D01*
X135850000Y-102360146D01*
X135850000Y-100240046D01*
X135893085Y-100197036D01*
X135999878Y-99939850D01*
X136000121Y-99661372D01*
X135893777Y-99404000D01*
X135697036Y-99206915D01*
X135439850Y-99100122D01*
X135161372Y-99099879D01*
X134904000Y-99206223D01*
X134706915Y-99402964D01*
X134600122Y-99660150D01*
X134599879Y-99938628D01*
X132499879Y-99938628D01*
X132500121Y-99661372D01*
X132393777Y-99404000D01*
X132197036Y-99206915D01*
X131939850Y-99100122D01*
X131661372Y-99099879D01*
X131404000Y-99206223D01*
X131206915Y-99402964D01*
X131100122Y-99660150D01*
X131099879Y-99938628D01*
X128999879Y-99938628D01*
X129000121Y-99661372D01*
X128893777Y-99404000D01*
X128697036Y-99206915D01*
X128439850Y-99100122D01*
X128161372Y-99099879D01*
X127904000Y-99206223D01*
X127706915Y-99402964D01*
X127600122Y-99660150D01*
X127599879Y-99938628D01*
X127500000Y-99938628D01*
X127500000Y-99207106D01*
X128807107Y-97900000D01*
X129224264Y-97900000D01*
X129415606Y-97861940D01*
X129577817Y-97753553D01*
X129953553Y-97377817D01*
X130061940Y-97215606D01*
X130083694Y-97106236D01*
X130193085Y-96997036D01*
X130280180Y-96787287D01*
X130299994Y-96807100D01*
X130299879Y-96938628D01*
X130406223Y-97196000D01*
X130602964Y-97393085D01*
X130860150Y-97499878D01*
X131138628Y-97500121D01*
X131396000Y-97393777D01*
X131593085Y-97197036D01*
X131699878Y-96939850D01*
X131700121Y-96661372D01*
X131593777Y-96404000D01*
X131397036Y-96206915D01*
X131139850Y-96100122D01*
X131007113Y-96100006D01*
X130453553Y-95546447D01*
X130291342Y-95438060D01*
X130100000Y-95400000D01*
X128200000Y-95400000D01*
X128008658Y-95438060D01*
X127846446Y-95546447D01*
X125546447Y-97846447D01*
X125438060Y-98008658D01*
X125400000Y-98200000D01*
X125400000Y-99419061D01*
X125393777Y-99404000D01*
X125197036Y-99206915D01*
X124939850Y-99100122D01*
X124661372Y-99099879D01*
X124404000Y-99206223D01*
X124206915Y-99402964D01*
X124100122Y-99660150D01*
X124099879Y-99938628D01*
X124206223Y-100196000D01*
X124250000Y-100239854D01*
X124250000Y-102359954D01*
X124206915Y-102402964D01*
X124100122Y-102660150D01*
X124099879Y-102938628D01*
X124206223Y-103196000D01*
X124250000Y-103239854D01*
X124250000Y-105359954D01*
X124206915Y-105402964D01*
X124100122Y-105660150D01*
X124099879Y-105938628D01*
X124206223Y-106196000D01*
X124250000Y-106239854D01*
X124250000Y-108359954D01*
X124206915Y-108402964D01*
X124100122Y-108660150D01*
X124099879Y-108938628D01*
X124206223Y-109196000D01*
X124250000Y-109239854D01*
X124250000Y-111359954D01*
X124206915Y-111402964D01*
X124100122Y-111660150D01*
X124099879Y-111938628D01*
X124206223Y-112196000D01*
X124402964Y-112393085D01*
X124660150Y-112499878D01*
X124938628Y-112500121D01*
X125196000Y-112393777D01*
X125393085Y-112197036D01*
X125400000Y-112180383D01*
X125400000Y-112992894D01*
X124592894Y-113800000D01*
X122974762Y-113799999D01*
X122893777Y-113604000D01*
X122697036Y-113406915D01*
X122439850Y-113300122D01*
X122161372Y-113299879D01*
X121904000Y-113406223D01*
X121706915Y-113602964D01*
X121600122Y-113860150D01*
X121599879Y-114138628D01*
X121706223Y-114396000D01*
X121710216Y-114400000D01*
X121389959Y-114400000D01*
X121297036Y-114306915D01*
X121039850Y-114200122D01*
X120761372Y-114199879D01*
X120504000Y-114306223D01*
X120306915Y-114502964D01*
X120200122Y-114760150D01*
X120199879Y-115038628D01*
X115497871Y-115038628D01*
X115498743Y-115035444D01*
X115496496Y-115017618D01*
X115500000Y-115000000D01*
X115484365Y-114921397D01*
X115474341Y-114841886D01*
X115465445Y-114826281D01*
X115461940Y-114808658D01*
X115417414Y-114742021D01*
X115377727Y-114672399D01*
X115363533Y-114661383D01*
X115353553Y-114646447D01*
X115286924Y-114601926D01*
X115223607Y-114552786D01*
X115206279Y-114548041D01*
X115191342Y-114538060D01*
X115112746Y-114522426D01*
X115035444Y-114501257D01*
X115017618Y-114503504D01*
X115000000Y-114500000D01*
X112809018Y-114500000D01*
X119489703Y-101138628D01*
X120799879Y-101138628D01*
X120906223Y-101396000D01*
X121102964Y-101593085D01*
X121360150Y-101699878D01*
X121638628Y-101700121D01*
X121896000Y-101593777D01*
X122093085Y-101397036D01*
X122199878Y-101139850D01*
X122200121Y-100861372D01*
X122093777Y-100604000D01*
X122050000Y-100560146D01*
X122050000Y-100327818D01*
X122877749Y-99500068D01*
X122938628Y-99500121D01*
X123196000Y-99393777D01*
X123393085Y-99197036D01*
X123499878Y-98939850D01*
X123500121Y-98661372D01*
X123393777Y-98404000D01*
X123197036Y-98206915D01*
X122939850Y-98100122D01*
X122661372Y-98099879D01*
X122404000Y-98206223D01*
X122206915Y-98402964D01*
X122100122Y-98660150D01*
X122100068Y-98722115D01*
X121111091Y-99711091D01*
X120991866Y-99889524D01*
X120950000Y-100100000D01*
X120950000Y-100559954D01*
X120906915Y-100602964D01*
X120800122Y-100860150D01*
X120799879Y-101138628D01*
X119489703Y-101138628D01*
X119947214Y-100223607D01*
X119951959Y-100206279D01*
X119961940Y-100191342D01*
X119977574Y-100112746D01*
X119998743Y-100035444D01*
X119996496Y-100017618D01*
X120000000Y-100000000D01*
X119984365Y-99921397D01*
X119974341Y-99841886D01*
X119965445Y-99826281D01*
X119961940Y-99808658D01*
X119917414Y-99742021D01*
X119877727Y-99672399D01*
X119863533Y-99661383D01*
X119853553Y-99646447D01*
X119786924Y-99601926D01*
X119723607Y-99552786D01*
X119706279Y-99548041D01*
X119691342Y-99538060D01*
X119612746Y-99522426D01*
X119535444Y-99501257D01*
X119517618Y-99503504D01*
X119500000Y-99500000D01*
X117309018Y-99500000D01*
X122747356Y-88623323D01*
X129097388Y-88623323D01*
X129201944Y-88833494D01*
X129715596Y-89048809D01*
X130272546Y-89051167D01*
X130788003Y-88840211D01*
X130798056Y-88833494D01*
X130902612Y-88623323D01*
X130000000Y-87720711D01*
X129097388Y-88623323D01*
X122747356Y-88623323D01*
X123097745Y-87922546D01*
X128598833Y-87922546D01*
X128809789Y-88438003D01*
X128816506Y-88448056D01*
X129026677Y-88552612D01*
X129929289Y-87650000D01*
X130070711Y-87650000D01*
X130973323Y-88552612D01*
X131183494Y-88448056D01*
X131398809Y-87934404D01*
X131401167Y-87377454D01*
X131190211Y-86861997D01*
X131183494Y-86851944D01*
X130973323Y-86747388D01*
X130070711Y-87650000D01*
X129929289Y-87650000D01*
X129026677Y-86747388D01*
X128816506Y-86851944D01*
X128601191Y-87365596D01*
X128598833Y-87922546D01*
X123097745Y-87922546D01*
X123720679Y-86676677D01*
X129097388Y-86676677D01*
X130000000Y-87579289D01*
X130902612Y-86676677D01*
X130798056Y-86466506D01*
X130284404Y-86251191D01*
X129727454Y-86248833D01*
X129211997Y-86459789D01*
X129201944Y-86466506D01*
X129097388Y-86676677D01*
X123720679Y-86676677D01*
X124309018Y-85500000D01*
X135690982Y-85500000D01*
X142690982Y-99500000D01*
M02*
