M48
METRIC,TZ
T1C0.300
T2C0.600
T3C0.650
T4C0.800
T5C1.000
T6C1.500
T7C1.000
%
G90
G05
T1
X114100Y-118800
X114600Y-114200
X115600Y-116500
X117600Y-116300
X119200Y-98805
X120600Y-118300
X120900Y-114900
X121500Y-101000
X122200Y-115600
X122300Y-114000
X122800Y-98800
X123100Y-117000
X123600Y-88600
X124500Y-112800
X124600Y-132400
X124800Y-99800
X124800Y-102800
X124800Y-105800
X124800Y-108800
X124800Y-111800
X125000Y-123200
X127400Y-91100
X127800Y-126700
X128300Y-99800
X128300Y-102800
X128300Y-105800
X128300Y-108800
X128300Y-111800
X128800Y-96600
X128900Y-118224
X129600Y-96600
X130800Y-95700
X131000Y-96800
X131100Y-120975
X131300Y-116900
X131300Y-125700
X131500Y-115400
X131800Y-99800
X131800Y-102800
X131800Y-105800
X131800Y-108800
X131800Y-111800
X131900Y-127500
X132600Y-125000
X133100Y-116200
X134100Y-128800
X135300Y-99800
X135300Y-102800
X135300Y-105800
X135300Y-108800
X135300Y-111800
X135300Y-132000
X135500Y-114700
X136000Y-115400
X136000Y-123000
X136300Y-98100
X136400Y-88600
X137600Y-116400
X138900Y-112200
X139300Y-123700
X139500Y-115400
X139500Y-120600
X140200Y-114900
X140400Y-101500
X140500Y-117800
X141000Y-99305
X141100Y-114800
X142100Y-114800
X142525Y-119200
X143700Y-125800
X143800Y-108300
X143800Y-125300
X144200Y-125600
X145200Y-114100
T4
X121000Y-122500
X121000Y-124500
X121000Y-126500
T5
X112750Y-122250
X112750Y-128750
X117250Y-122250
X117250Y-128750
X130000Y-87650
X130000Y-132350
T6
X121000Y-120400
X121000Y-128600
T7
X139679Y-125640
X140695Y-120560
X141711Y-125640
T2
X146210Y-121526G85X146835Y-121212
G05
X149948Y-128992G85X150574Y-128679
G05
T3
X144624Y-124501G85X144803Y-124411
G05
X146616Y-128480G85X146795Y-128390
G05
T0
M30
