G04 #@! TF.FileFunction,Soldermask,Top*
%FSLAX46Y46*%
G04 Gerber Fmt 4.6, Leading zero omitted, Abs format (unit mm)*
G04 Created by KiCad (PCBNEW 4.0.3-stable) date 11/02/16 23:14:01*
%MOMM*%
%LPD*%
G01*
G04 APERTURE LIST*
%ADD10C,0.100000*%
%ADD11C,1.000000*%
%ADD12R,0.450000X1.350000*%
%ADD13C,2.000000*%
%ADD14R,0.950000X1.000000*%
%ADD15R,1.350000X0.450000*%
%ADD16C,0.787000*%
%ADD17C,1.000000*%
%ADD18C,1.600000*%
%ADD19R,0.800000X1.700000*%
%ADD20R,0.950000X0.400000*%
%ADD21R,0.600000X1.000000*%
%ADD22R,1.000000X0.950000*%
%ADD23R,0.800000X0.800000*%
G04 APERTURE END LIST*
D10*
G36*
X146693106Y-126176593D02*
X145485998Y-126781068D01*
X145306894Y-126423407D01*
X146514002Y-125818932D01*
X146693106Y-126176593D01*
X146693106Y-126176593D01*
G37*
G36*
X146402063Y-125595392D02*
X145194955Y-126199867D01*
X145015851Y-125842206D01*
X146222959Y-125237731D01*
X146402063Y-125595392D01*
X146402063Y-125595392D01*
G37*
G36*
X146984150Y-126757793D02*
X145777042Y-127362268D01*
X145597938Y-127004607D01*
X146805046Y-126400132D01*
X146984150Y-126757793D01*
X146984150Y-126757793D01*
G37*
G36*
X147275193Y-127338993D02*
X146068085Y-127943468D01*
X145888981Y-127585807D01*
X147096089Y-126981332D01*
X147275193Y-127338993D01*
X147275193Y-127338993D01*
G37*
G36*
X146111020Y-125014192D02*
X144903912Y-125618667D01*
X144724808Y-125261006D01*
X145931916Y-124656531D01*
X146111020Y-125014192D01*
X146111020Y-125014192D01*
G37*
D11*
X144601367Y-124511998D02*
X144824905Y-124400058D01*
X146593895Y-128490984D02*
X146817433Y-128379044D01*
D10*
G36*
X149129370Y-124453335D02*
X147430477Y-125304077D01*
X146624510Y-123694599D01*
X148323403Y-122843857D01*
X149129370Y-124453335D01*
X149129370Y-124453335D01*
G37*
G36*
X150159216Y-126509889D02*
X148460323Y-127360631D01*
X147654356Y-125751153D01*
X149353249Y-124900411D01*
X150159216Y-126509889D01*
X150159216Y-126509889D01*
G37*
G36*
X148077136Y-122352072D02*
X146378243Y-123202815D01*
X145673022Y-121794522D01*
X147371915Y-120943779D01*
X148077136Y-122352072D01*
X148077136Y-122352072D01*
G37*
D11*
X146120100Y-121570642D02*
X146924838Y-121167658D01*
D10*
G36*
X151110704Y-128409966D02*
X149411811Y-129260709D01*
X148706590Y-127852416D01*
X150405483Y-127001673D01*
X151110704Y-128409966D01*
X151110704Y-128409966D01*
G37*
D11*
X149858888Y-129036830D02*
X150663626Y-128633846D01*
D12*
X132275000Y-92325000D03*
X131625000Y-92325000D03*
X130975000Y-92325000D03*
X130325000Y-92325000D03*
X129675000Y-92325000D03*
X129025000Y-92325000D03*
X128375000Y-92325000D03*
X127725000Y-92325000D03*
X127725000Y-98075000D03*
X128375000Y-98075000D03*
X129025000Y-98075000D03*
X129675000Y-98075000D03*
X130325000Y-98075000D03*
X130975000Y-98075000D03*
X131625000Y-98075000D03*
X132275000Y-98075000D03*
D13*
X130000000Y-87650000D03*
X130000000Y-132350000D03*
D12*
X143375000Y-110825000D03*
X142725000Y-110825000D03*
X142075000Y-110825000D03*
X141425000Y-110825000D03*
X140775000Y-110825000D03*
X140125000Y-110825000D03*
X139475000Y-110825000D03*
X138825000Y-110825000D03*
X138825000Y-116575000D03*
X139475000Y-116575000D03*
X140125000Y-116575000D03*
X140775000Y-116575000D03*
X141425000Y-116575000D03*
X142075000Y-116575000D03*
X142725000Y-116575000D03*
X143375000Y-116575000D03*
D14*
X134600000Y-95700000D03*
X136200000Y-95700000D03*
D15*
X127125000Y-117575000D03*
X127125000Y-118225000D03*
X127125000Y-118875000D03*
X127125000Y-119525000D03*
X127125000Y-120175000D03*
X127125000Y-120825000D03*
X127125000Y-121475000D03*
X127125000Y-122125000D03*
X127125000Y-122775000D03*
X127125000Y-123425000D03*
X132875000Y-123425000D03*
X132875000Y-122775000D03*
X132875000Y-122125000D03*
X132875000Y-121475000D03*
X132875000Y-120825000D03*
X132875000Y-120175000D03*
X132875000Y-119525000D03*
X132875000Y-118875000D03*
X132875000Y-118225000D03*
X132875000Y-117575000D03*
D10*
G36*
X143382030Y-108983833D02*
X144276185Y-108536074D01*
X144701556Y-109385521D01*
X143807401Y-109833280D01*
X143382030Y-108983833D01*
X143382030Y-108983833D01*
G37*
G36*
X144098444Y-110414479D02*
X144992599Y-109966720D01*
X145417970Y-110816167D01*
X144523815Y-111263926D01*
X144098444Y-110414479D01*
X144098444Y-110414479D01*
G37*
D16*
X140060000Y-121830000D03*
X141330000Y-121830000D03*
X140060000Y-123100000D03*
X141330000Y-123100000D03*
X140060000Y-124370000D03*
X141330000Y-124370000D03*
D17*
X140695000Y-120560000D03*
X139679000Y-125640000D03*
X141711000Y-125640000D03*
D13*
X112750000Y-128750000D03*
X117250000Y-128750000D03*
X117250000Y-122250000D03*
X112750000Y-122250000D03*
D18*
X121000000Y-124500000D03*
X121000000Y-126500000D03*
X121000000Y-122500000D03*
D13*
X121000000Y-120400000D03*
X121000000Y-128600000D03*
D10*
G36*
X119293783Y-98034025D02*
X117997260Y-97384774D01*
X118512183Y-96356497D01*
X119808706Y-97005748D01*
X119293783Y-98034025D01*
X119293783Y-98034025D01*
G37*
G36*
X118487817Y-99643503D02*
X117191294Y-98994252D01*
X117706217Y-97965975D01*
X119002740Y-98615226D01*
X118487817Y-99643503D01*
X118487817Y-99643503D01*
G37*
G36*
X140808706Y-99494252D02*
X139512183Y-100143503D01*
X138997260Y-99115226D01*
X140293783Y-98465975D01*
X140808706Y-99494252D01*
X140808706Y-99494252D01*
G37*
G36*
X140002740Y-97884774D02*
X138706217Y-98534025D01*
X138191294Y-97505748D01*
X139487817Y-96856497D01*
X140002740Y-97884774D01*
X140002740Y-97884774D01*
G37*
G36*
X142002740Y-97384774D02*
X140706217Y-98034025D01*
X140191294Y-97005748D01*
X141487817Y-96356497D01*
X142002740Y-97384774D01*
X142002740Y-97384774D01*
G37*
G36*
X142808706Y-98994252D02*
X141512183Y-99643503D01*
X140997260Y-98615226D01*
X142293783Y-97965975D01*
X142808706Y-98994252D01*
X142808706Y-98994252D01*
G37*
G36*
X146502740Y-112384774D02*
X145206217Y-113034025D01*
X144691294Y-112005748D01*
X145987817Y-111356497D01*
X146502740Y-112384774D01*
X146502740Y-112384774D01*
G37*
G36*
X147308706Y-113994252D02*
X146012183Y-114643503D01*
X145497260Y-113615226D01*
X146793783Y-112965975D01*
X147308706Y-113994252D01*
X147308706Y-113994252D01*
G37*
G36*
X120487817Y-100143503D02*
X119191294Y-99494252D01*
X119706217Y-98465975D01*
X121002740Y-99115226D01*
X120487817Y-100143503D01*
X120487817Y-100143503D01*
G37*
G36*
X121293783Y-98534025D02*
X119997260Y-97884774D01*
X120512183Y-96856497D01*
X121808706Y-97505748D01*
X121293783Y-98534025D01*
X121293783Y-98534025D01*
G37*
G36*
X114793783Y-113034025D02*
X113497260Y-112384774D01*
X114012183Y-111356497D01*
X115308706Y-112005748D01*
X114793783Y-113034025D01*
X114793783Y-113034025D01*
G37*
G36*
X113987817Y-114643503D02*
X112691294Y-113994252D01*
X113206217Y-112965975D01*
X114502740Y-113615226D01*
X113987817Y-114643503D01*
X113987817Y-114643503D01*
G37*
D19*
X126250000Y-131000000D03*
X124750000Y-131000000D03*
D20*
X126800000Y-128850000D03*
X126800000Y-128200000D03*
X126800000Y-127550000D03*
X124600000Y-127550000D03*
X124600000Y-128200000D03*
X124600000Y-128850000D03*
D21*
X134950000Y-129350000D03*
X133050000Y-129350000D03*
X134000000Y-131650000D03*
D15*
X124675000Y-118175000D03*
X124675000Y-117525000D03*
X124675000Y-116875000D03*
X124675000Y-116225000D03*
X124675000Y-115575000D03*
X124675000Y-114925000D03*
X124675000Y-114275000D03*
X124675000Y-113625000D03*
X118925000Y-113625000D03*
X118925000Y-114275000D03*
X118925000Y-114925000D03*
X118925000Y-115575000D03*
X118925000Y-116225000D03*
X118925000Y-116875000D03*
X118925000Y-117525000D03*
X118925000Y-118175000D03*
D10*
G36*
X115823815Y-108436074D02*
X116717970Y-108883833D01*
X116292599Y-109733280D01*
X115398444Y-109285521D01*
X115823815Y-108436074D01*
X115823815Y-108436074D01*
G37*
G36*
X115107401Y-109866720D02*
X116001556Y-110314479D01*
X115576185Y-111163926D01*
X114682030Y-110716167D01*
X115107401Y-109866720D01*
X115107401Y-109866720D01*
G37*
D14*
X126200000Y-95700000D03*
X124600000Y-95700000D03*
X126200000Y-94200000D03*
X124600000Y-94200000D03*
X126200000Y-92700000D03*
X124600000Y-92700000D03*
X134600000Y-92700000D03*
X136200000Y-92700000D03*
X134600000Y-94200000D03*
X136200000Y-94200000D03*
X141000000Y-104300000D03*
X139400000Y-104300000D03*
X141000000Y-105800000D03*
X139400000Y-105800000D03*
X141000000Y-107300000D03*
X139400000Y-107300000D03*
X141000000Y-108800000D03*
X139400000Y-108800000D03*
D22*
X137300000Y-115300000D03*
X137300000Y-113700000D03*
D14*
X133700000Y-98100000D03*
X135300000Y-98100000D03*
X117100000Y-117700000D03*
X115500000Y-117700000D03*
X143300000Y-118300000D03*
X141700000Y-118300000D03*
D22*
X135000000Y-121900000D03*
X135000000Y-120300000D03*
X125000000Y-121800000D03*
X125000000Y-120200000D03*
X137000000Y-121900000D03*
X137000000Y-120300000D03*
D14*
X126300000Y-133500000D03*
X124700000Y-133500000D03*
X124800000Y-126100000D03*
X126400000Y-126100000D03*
X133200000Y-133400000D03*
X134800000Y-133400000D03*
X133200000Y-127600000D03*
X134800000Y-127600000D03*
X115800000Y-120000000D03*
X114200000Y-120000000D03*
X130800000Y-129500000D03*
X129200000Y-129500000D03*
X129200000Y-127500000D03*
X130800000Y-127500000D03*
D10*
G36*
X135530330Y-88762564D02*
X136237436Y-89469670D01*
X135601040Y-90106066D01*
X134893934Y-89398960D01*
X135530330Y-88762564D01*
X135530330Y-88762564D01*
G37*
G36*
X134398960Y-89893934D02*
X135106066Y-90601040D01*
X134469670Y-91237436D01*
X133762564Y-90530330D01*
X134398960Y-89893934D01*
X134398960Y-89893934D01*
G37*
G36*
X123762564Y-89469670D02*
X124469670Y-88762564D01*
X125106066Y-89398960D01*
X124398960Y-90106066D01*
X123762564Y-89469670D01*
X123762564Y-89469670D01*
G37*
G36*
X124893934Y-90601040D02*
X125601040Y-89893934D01*
X126237436Y-90530330D01*
X125530330Y-91237436D01*
X124893934Y-90601040D01*
X124893934Y-90601040D01*
G37*
D23*
X136175000Y-111800000D03*
X137825000Y-111800000D03*
X136175000Y-108800000D03*
X137825000Y-108800000D03*
X136175000Y-105800000D03*
X137825000Y-105800000D03*
X136175000Y-102800000D03*
X137825000Y-102800000D03*
X136175000Y-99800000D03*
X137825000Y-99800000D03*
X132675000Y-111800000D03*
X134325000Y-111800000D03*
X132675000Y-108800000D03*
X134325000Y-108800000D03*
X132675000Y-105800000D03*
X134325000Y-105800000D03*
X132675000Y-102800000D03*
X134325000Y-102800000D03*
X129175000Y-111800000D03*
X130825000Y-111800000D03*
X129175000Y-108800000D03*
X130825000Y-108800000D03*
X129175000Y-105800000D03*
X130825000Y-105800000D03*
X129175000Y-102800000D03*
X130825000Y-102800000D03*
X129175000Y-99800000D03*
X130825000Y-99800000D03*
X125675000Y-111800000D03*
X127325000Y-111800000D03*
X125675000Y-108800000D03*
X127325000Y-108800000D03*
X125675000Y-105800000D03*
X127325000Y-105800000D03*
X125675000Y-102800000D03*
X127325000Y-102800000D03*
X125675000Y-99800000D03*
X127325000Y-99800000D03*
X122175000Y-111800000D03*
X123825000Y-111800000D03*
X122175000Y-108800000D03*
X123825000Y-108800000D03*
X122175000Y-105800000D03*
X123825000Y-105800000D03*
X122175000Y-102800000D03*
X123825000Y-102800000D03*
X122175000Y-99800000D03*
X123825000Y-99800000D03*
X132675000Y-99800000D03*
X134325000Y-99800000D03*
M02*
