G04 #@! TF.FileFunction,Copper,L1,Top,Signal*
%FSLAX46Y46*%
G04 Gerber Fmt 4.6, Leading zero omitted, Abs format (unit mm)*
G04 Created by KiCad (PCBNEW 4.0.3-stable) date 11/02/16 23:14:01*
%MOMM*%
%LPD*%
G01*
G04 APERTURE LIST*
%ADD10C,0.100000*%
%ADD11C,1.000000*%
%ADD12R,0.450000X1.350000*%
%ADD13C,2.000000*%
%ADD14R,0.950000X1.000000*%
%ADD15R,1.350000X0.450000*%
%ADD16C,0.787000*%
%ADD17C,1.600000*%
%ADD18R,0.800000X1.700000*%
%ADD19R,0.950000X0.400000*%
%ADD20R,0.600000X1.000000*%
%ADD21R,1.000000X0.950000*%
%ADD22R,0.800000X0.800000*%
%ADD23C,0.600000*%
%ADD24C,0.200000*%
%ADD25C,0.300000*%
%ADD26C,0.500000*%
%ADD27C,0.400000*%
G04 APERTURE END LIST*
D10*
G36*
X146693106Y-126176593D02*
X145485998Y-126781068D01*
X145306894Y-126423407D01*
X146514002Y-125818932D01*
X146693106Y-126176593D01*
X146693106Y-126176593D01*
G37*
G36*
X146402063Y-125595392D02*
X145194955Y-126199867D01*
X145015851Y-125842206D01*
X146222959Y-125237731D01*
X146402063Y-125595392D01*
X146402063Y-125595392D01*
G37*
G36*
X146984150Y-126757793D02*
X145777042Y-127362268D01*
X145597938Y-127004607D01*
X146805046Y-126400132D01*
X146984150Y-126757793D01*
X146984150Y-126757793D01*
G37*
G36*
X147275193Y-127338993D02*
X146068085Y-127943468D01*
X145888981Y-127585807D01*
X147096089Y-126981332D01*
X147275193Y-127338993D01*
X147275193Y-127338993D01*
G37*
G36*
X146111020Y-125014192D02*
X144903912Y-125618667D01*
X144724808Y-125261006D01*
X145931916Y-124656531D01*
X146111020Y-125014192D01*
X146111020Y-125014192D01*
G37*
D11*
X144601367Y-124511998D02*
X144824905Y-124400058D01*
X146593895Y-128490984D02*
X146817433Y-128379044D01*
D10*
G36*
X149129370Y-124453335D02*
X147430477Y-125304077D01*
X146624510Y-123694599D01*
X148323403Y-122843857D01*
X149129370Y-124453335D01*
X149129370Y-124453335D01*
G37*
G36*
X150159216Y-126509889D02*
X148460323Y-127360631D01*
X147654356Y-125751153D01*
X149353249Y-124900411D01*
X150159216Y-126509889D01*
X150159216Y-126509889D01*
G37*
G36*
X148077136Y-122352072D02*
X146378243Y-123202815D01*
X145673022Y-121794522D01*
X147371915Y-120943779D01*
X148077136Y-122352072D01*
X148077136Y-122352072D01*
G37*
D11*
X146120100Y-121570642D02*
X146924838Y-121167658D01*
D10*
G36*
X151110704Y-128409966D02*
X149411811Y-129260709D01*
X148706590Y-127852416D01*
X150405483Y-127001673D01*
X151110704Y-128409966D01*
X151110704Y-128409966D01*
G37*
D11*
X149858888Y-129036830D02*
X150663626Y-128633846D01*
D12*
X132275000Y-92325000D03*
X131625000Y-92325000D03*
X130975000Y-92325000D03*
X130325000Y-92325000D03*
X129675000Y-92325000D03*
X129025000Y-92325000D03*
X128375000Y-92325000D03*
X127725000Y-92325000D03*
X127725000Y-98075000D03*
X128375000Y-98075000D03*
X129025000Y-98075000D03*
X129675000Y-98075000D03*
X130325000Y-98075000D03*
X130975000Y-98075000D03*
X131625000Y-98075000D03*
X132275000Y-98075000D03*
D13*
X130000000Y-87650000D03*
X130000000Y-132350000D03*
D12*
X143375000Y-110825000D03*
X142725000Y-110825000D03*
X142075000Y-110825000D03*
X141425000Y-110825000D03*
X140775000Y-110825000D03*
X140125000Y-110825000D03*
X139475000Y-110825000D03*
X138825000Y-110825000D03*
X138825000Y-116575000D03*
X139475000Y-116575000D03*
X140125000Y-116575000D03*
X140775000Y-116575000D03*
X141425000Y-116575000D03*
X142075000Y-116575000D03*
X142725000Y-116575000D03*
X143375000Y-116575000D03*
D14*
X134600000Y-95700000D03*
X136200000Y-95700000D03*
D15*
X127125000Y-117575000D03*
X127125000Y-118225000D03*
X127125000Y-118875000D03*
X127125000Y-119525000D03*
X127125000Y-120175000D03*
X127125000Y-120825000D03*
X127125000Y-121475000D03*
X127125000Y-122125000D03*
X127125000Y-122775000D03*
X127125000Y-123425000D03*
X132875000Y-123425000D03*
X132875000Y-122775000D03*
X132875000Y-122125000D03*
X132875000Y-121475000D03*
X132875000Y-120825000D03*
X132875000Y-120175000D03*
X132875000Y-119525000D03*
X132875000Y-118875000D03*
X132875000Y-118225000D03*
X132875000Y-117575000D03*
D10*
G36*
X143382030Y-108983833D02*
X144276185Y-108536074D01*
X144701556Y-109385521D01*
X143807401Y-109833280D01*
X143382030Y-108983833D01*
X143382030Y-108983833D01*
G37*
G36*
X144098444Y-110414479D02*
X144992599Y-109966720D01*
X145417970Y-110816167D01*
X144523815Y-111263926D01*
X144098444Y-110414479D01*
X144098444Y-110414479D01*
G37*
D16*
X140060000Y-121830000D03*
X141330000Y-121830000D03*
X140060000Y-123100000D03*
X141330000Y-123100000D03*
X140060000Y-124370000D03*
X141330000Y-124370000D03*
D13*
X112750000Y-128750000D03*
X117250000Y-128750000D03*
X117250000Y-122250000D03*
X112750000Y-122250000D03*
D17*
X121000000Y-124500000D03*
X121000000Y-126500000D03*
X121000000Y-122500000D03*
D13*
X121000000Y-120400000D03*
X121000000Y-128600000D03*
D10*
G36*
X119293783Y-98034025D02*
X117997260Y-97384774D01*
X118512183Y-96356497D01*
X119808706Y-97005748D01*
X119293783Y-98034025D01*
X119293783Y-98034025D01*
G37*
G36*
X118487817Y-99643503D02*
X117191294Y-98994252D01*
X117706217Y-97965975D01*
X119002740Y-98615226D01*
X118487817Y-99643503D01*
X118487817Y-99643503D01*
G37*
G36*
X140808706Y-99494252D02*
X139512183Y-100143503D01*
X138997260Y-99115226D01*
X140293783Y-98465975D01*
X140808706Y-99494252D01*
X140808706Y-99494252D01*
G37*
G36*
X140002740Y-97884774D02*
X138706217Y-98534025D01*
X138191294Y-97505748D01*
X139487817Y-96856497D01*
X140002740Y-97884774D01*
X140002740Y-97884774D01*
G37*
G36*
X142002740Y-97384774D02*
X140706217Y-98034025D01*
X140191294Y-97005748D01*
X141487817Y-96356497D01*
X142002740Y-97384774D01*
X142002740Y-97384774D01*
G37*
G36*
X142808706Y-98994252D02*
X141512183Y-99643503D01*
X140997260Y-98615226D01*
X142293783Y-97965975D01*
X142808706Y-98994252D01*
X142808706Y-98994252D01*
G37*
G36*
X146502740Y-112384774D02*
X145206217Y-113034025D01*
X144691294Y-112005748D01*
X145987817Y-111356497D01*
X146502740Y-112384774D01*
X146502740Y-112384774D01*
G37*
G36*
X147308706Y-113994252D02*
X146012183Y-114643503D01*
X145497260Y-113615226D01*
X146793783Y-112965975D01*
X147308706Y-113994252D01*
X147308706Y-113994252D01*
G37*
G36*
X120487817Y-100143503D02*
X119191294Y-99494252D01*
X119706217Y-98465975D01*
X121002740Y-99115226D01*
X120487817Y-100143503D01*
X120487817Y-100143503D01*
G37*
G36*
X121293783Y-98534025D02*
X119997260Y-97884774D01*
X120512183Y-96856497D01*
X121808706Y-97505748D01*
X121293783Y-98534025D01*
X121293783Y-98534025D01*
G37*
G36*
X114793783Y-113034025D02*
X113497260Y-112384774D01*
X114012183Y-111356497D01*
X115308706Y-112005748D01*
X114793783Y-113034025D01*
X114793783Y-113034025D01*
G37*
G36*
X113987817Y-114643503D02*
X112691294Y-113994252D01*
X113206217Y-112965975D01*
X114502740Y-113615226D01*
X113987817Y-114643503D01*
X113987817Y-114643503D01*
G37*
D18*
X126250000Y-131000000D03*
X124750000Y-131000000D03*
D19*
X126800000Y-128850000D03*
X126800000Y-128200000D03*
X126800000Y-127550000D03*
X124600000Y-127550000D03*
X124600000Y-128200000D03*
X124600000Y-128850000D03*
D20*
X134950000Y-129350000D03*
X133050000Y-129350000D03*
X134000000Y-131650000D03*
D15*
X124675000Y-118175000D03*
X124675000Y-117525000D03*
X124675000Y-116875000D03*
X124675000Y-116225000D03*
X124675000Y-115575000D03*
X124675000Y-114925000D03*
X124675000Y-114275000D03*
X124675000Y-113625000D03*
X118925000Y-113625000D03*
X118925000Y-114275000D03*
X118925000Y-114925000D03*
X118925000Y-115575000D03*
X118925000Y-116225000D03*
X118925000Y-116875000D03*
X118925000Y-117525000D03*
X118925000Y-118175000D03*
D10*
G36*
X115823815Y-108436074D02*
X116717970Y-108883833D01*
X116292599Y-109733280D01*
X115398444Y-109285521D01*
X115823815Y-108436074D01*
X115823815Y-108436074D01*
G37*
G36*
X115107401Y-109866720D02*
X116001556Y-110314479D01*
X115576185Y-111163926D01*
X114682030Y-110716167D01*
X115107401Y-109866720D01*
X115107401Y-109866720D01*
G37*
D14*
X126200000Y-95700000D03*
X124600000Y-95700000D03*
X126200000Y-94200000D03*
X124600000Y-94200000D03*
X126200000Y-92700000D03*
X124600000Y-92700000D03*
X134600000Y-92700000D03*
X136200000Y-92700000D03*
X134600000Y-94200000D03*
X136200000Y-94200000D03*
X141000000Y-104300000D03*
X139400000Y-104300000D03*
X141000000Y-105800000D03*
X139400000Y-105800000D03*
X141000000Y-107300000D03*
X139400000Y-107300000D03*
X141000000Y-108800000D03*
X139400000Y-108800000D03*
D21*
X137300000Y-115300000D03*
X137300000Y-113700000D03*
D14*
X133700000Y-98100000D03*
X135300000Y-98100000D03*
X117100000Y-117700000D03*
X115500000Y-117700000D03*
X143300000Y-118300000D03*
X141700000Y-118300000D03*
D21*
X135000000Y-121900000D03*
X135000000Y-120300000D03*
X125000000Y-121800000D03*
X125000000Y-120200000D03*
X137000000Y-121900000D03*
X137000000Y-120300000D03*
D14*
X126300000Y-133500000D03*
X124700000Y-133500000D03*
X124800000Y-126100000D03*
X126400000Y-126100000D03*
X133200000Y-133400000D03*
X134800000Y-133400000D03*
X133200000Y-127600000D03*
X134800000Y-127600000D03*
X115800000Y-120000000D03*
X114200000Y-120000000D03*
X130800000Y-129500000D03*
X129200000Y-129500000D03*
X129200000Y-127500000D03*
X130800000Y-127500000D03*
D10*
G36*
X135530330Y-88762564D02*
X136237436Y-89469670D01*
X135601040Y-90106066D01*
X134893934Y-89398960D01*
X135530330Y-88762564D01*
X135530330Y-88762564D01*
G37*
G36*
X134398960Y-89893934D02*
X135106066Y-90601040D01*
X134469670Y-91237436D01*
X133762564Y-90530330D01*
X134398960Y-89893934D01*
X134398960Y-89893934D01*
G37*
G36*
X123762564Y-89469670D02*
X124469670Y-88762564D01*
X125106066Y-89398960D01*
X124398960Y-90106066D01*
X123762564Y-89469670D01*
X123762564Y-89469670D01*
G37*
G36*
X124893934Y-90601040D02*
X125601040Y-89893934D01*
X126237436Y-90530330D01*
X125530330Y-91237436D01*
X124893934Y-90601040D01*
X124893934Y-90601040D01*
G37*
D22*
X136175000Y-111800000D03*
X137825000Y-111800000D03*
X136175000Y-108800000D03*
X137825000Y-108800000D03*
X136175000Y-105800000D03*
X137825000Y-105800000D03*
X136175000Y-102800000D03*
X137825000Y-102800000D03*
X136175000Y-99800000D03*
X137825000Y-99800000D03*
X132675000Y-111800000D03*
X134325000Y-111800000D03*
X132675000Y-108800000D03*
X134325000Y-108800000D03*
X132675000Y-105800000D03*
X134325000Y-105800000D03*
X132675000Y-102800000D03*
X134325000Y-102800000D03*
X129175000Y-111800000D03*
X130825000Y-111800000D03*
X129175000Y-108800000D03*
X130825000Y-108800000D03*
X129175000Y-105800000D03*
X130825000Y-105800000D03*
X129175000Y-102800000D03*
X130825000Y-102800000D03*
X129175000Y-99800000D03*
X130825000Y-99800000D03*
X125675000Y-111800000D03*
X127325000Y-111800000D03*
X125675000Y-108800000D03*
X127325000Y-108800000D03*
X125675000Y-105800000D03*
X127325000Y-105800000D03*
X125675000Y-102800000D03*
X127325000Y-102800000D03*
X125675000Y-99800000D03*
X127325000Y-99800000D03*
X122175000Y-111800000D03*
X123825000Y-111800000D03*
X122175000Y-108800000D03*
X123825000Y-108800000D03*
X122175000Y-105800000D03*
X123825000Y-105800000D03*
X122175000Y-102800000D03*
X123825000Y-102800000D03*
X122175000Y-99800000D03*
X123825000Y-99800000D03*
X132675000Y-99800000D03*
X134325000Y-99800000D03*
D23*
X131100000Y-120975000D03*
X139500000Y-120600000D03*
X142100000Y-114800000D03*
X122800000Y-98800000D03*
X121500000Y-101000000D03*
X139500000Y-115400000D03*
X130800000Y-95700000D03*
X142524999Y-119200001D03*
X139300000Y-123700000D03*
X135300000Y-132000000D03*
X136300000Y-98100000D03*
X138900000Y-112200000D03*
X115600000Y-116500000D03*
X127400000Y-91100000D03*
X124500000Y-112800000D03*
X117600000Y-116300000D03*
X125000000Y-123200000D03*
X136000000Y-123000000D03*
X134100000Y-128800000D03*
X127800000Y-126700000D03*
X145200000Y-114100000D03*
X136400000Y-88600000D03*
X123600000Y-88600000D03*
X141000000Y-99304739D03*
X119200000Y-98804739D03*
X114600000Y-114200000D03*
X114100000Y-118800000D03*
X131900000Y-127500000D03*
X124600000Y-132400000D03*
X143700000Y-125800000D03*
X143800000Y-125300000D03*
X144200000Y-125600000D03*
X132600000Y-125000000D03*
X131300000Y-125700000D03*
X143800000Y-108300000D03*
X140400000Y-101500000D03*
X120600000Y-118300000D03*
X124800000Y-111800000D03*
X124800000Y-99800000D03*
X124800000Y-108800000D03*
X124800000Y-105800000D03*
X124800000Y-102800000D03*
X128300000Y-99800000D03*
X128300000Y-102800000D03*
X128300000Y-105800000D03*
X128300000Y-108800000D03*
X128300000Y-111800000D03*
X131800000Y-111800000D03*
X131800000Y-108800000D03*
X131800000Y-105800000D03*
X131800000Y-102800000D03*
X131800000Y-99800000D03*
X135300000Y-99800000D03*
X135300000Y-102800000D03*
X135300000Y-105800000D03*
X135300000Y-108800000D03*
X135300000Y-111800000D03*
X141100000Y-114800000D03*
X135500000Y-114700000D03*
X137600000Y-116400000D03*
X133100000Y-116200000D03*
X140500000Y-117800000D03*
X128900000Y-118224264D03*
X120900000Y-114900000D03*
X128800000Y-96600000D03*
X129600000Y-96600000D03*
X140200000Y-114900000D03*
X131500000Y-115400000D03*
X122200000Y-115600000D03*
X136000000Y-115400000D03*
X123100000Y-117000000D03*
X131300000Y-116900000D03*
X131000000Y-96800000D03*
X122300000Y-114000000D03*
D24*
X132875000Y-117575000D02*
X133750000Y-117575000D01*
X133750000Y-117575000D02*
X133975000Y-117800000D01*
X133975000Y-117800000D02*
X139465698Y-117800000D01*
X139465698Y-117800000D02*
X140865699Y-119200001D01*
X140865699Y-119200001D02*
X141530454Y-119200000D01*
X141530454Y-119200000D02*
X142500000Y-120169546D01*
X141723499Y-122706501D02*
X141330000Y-123100000D01*
X142500000Y-120169546D02*
X142500000Y-121930000D01*
X142500000Y-121930000D02*
X141723499Y-122706501D01*
X141330000Y-121830000D02*
X142000000Y-121160000D01*
X142000000Y-121160000D02*
X142000000Y-120465698D01*
X142000000Y-120465698D02*
X141134313Y-119600011D01*
X141134313Y-119600011D02*
X140600011Y-119600011D01*
X140600011Y-119600011D02*
X139300000Y-118300000D01*
X139300000Y-118300000D02*
X134000000Y-118300000D01*
X134000000Y-118300000D02*
X133925000Y-118225000D01*
X133925000Y-118225000D02*
X132875000Y-118225000D01*
X146000000Y-126300000D02*
X145700000Y-126300000D01*
X145700000Y-126300000D02*
X145100000Y-126900000D01*
X145100000Y-126900000D02*
X138700000Y-126900000D01*
X138700000Y-126900000D02*
X138600000Y-126800000D01*
X138600000Y-119394299D02*
X138080701Y-118875000D01*
X138600000Y-126800000D02*
X138600000Y-119394299D01*
X138080701Y-118875000D02*
X132875000Y-118875000D01*
X145800000Y-126300000D02*
X146000000Y-126300000D01*
X146291044Y-126881200D02*
X145958800Y-126881200D01*
X145958800Y-126881200D02*
X145410000Y-127430000D01*
X145410000Y-127430000D02*
X138530000Y-127430000D01*
X138100000Y-127000000D02*
X138100000Y-119459998D01*
X138530000Y-127430000D02*
X138100000Y-127000000D01*
X138100000Y-119459998D02*
X137940002Y-119300000D01*
X137940002Y-119300000D02*
X133975000Y-119300000D01*
X133975000Y-119300000D02*
X133750000Y-119525000D01*
X133750000Y-119525000D02*
X132875000Y-119525000D01*
D25*
X130300000Y-121775000D02*
X131100000Y-120975000D01*
X131100000Y-120975000D02*
X131900000Y-120175000D01*
D24*
X143375000Y-116575000D02*
X143375000Y-118225000D01*
X143375000Y-118225000D02*
X143300000Y-118300000D01*
X139500000Y-120600000D02*
X139500000Y-121270000D01*
X139500000Y-121270000D02*
X140060000Y-121830000D01*
D25*
X128900000Y-124100000D02*
X130300000Y-122700000D01*
X130300000Y-122700000D02*
X130300000Y-121775000D01*
X123500000Y-123600000D02*
X124000000Y-124100000D01*
X124000000Y-124100000D02*
X128900000Y-124100000D01*
X117950000Y-114275000D02*
X116900000Y-115325000D01*
X116900000Y-115325000D02*
X116900000Y-116700000D01*
X116900000Y-116700000D02*
X117100000Y-116900000D01*
X117100000Y-116900000D02*
X117100000Y-117700000D01*
D24*
X132275000Y-98075000D02*
X132275000Y-98950000D01*
X132275000Y-98950000D02*
X132174999Y-99050001D01*
X132174999Y-99050001D02*
X128475001Y-99050001D01*
X128475001Y-99050001D02*
X128375000Y-98950000D01*
X128375000Y-98950000D02*
X128375000Y-98075000D01*
D25*
X122800000Y-98800000D02*
X125469998Y-98800000D01*
X128324999Y-97049999D02*
X128375000Y-97100000D01*
X125469998Y-98800000D02*
X127219999Y-97049999D01*
X127219999Y-97049999D02*
X128324999Y-97049999D01*
X128375000Y-97100000D02*
X128375000Y-98075000D01*
X120900001Y-102199999D02*
X120900001Y-101599999D01*
X120900001Y-101599999D02*
X121500000Y-101000000D01*
D24*
X142100000Y-114800000D02*
X142524264Y-114800000D01*
X142524264Y-114800000D02*
X143375000Y-115650736D01*
X143375000Y-115650736D02*
X143375000Y-115700000D01*
X143375000Y-115700000D02*
X143375000Y-116575000D01*
D25*
X117950000Y-114275000D02*
X117875000Y-114275000D01*
X117875000Y-114275000D02*
X117700000Y-114100000D01*
X117700000Y-114100000D02*
X117700000Y-106800000D01*
X117700000Y-106800000D02*
X118800000Y-105700000D01*
X118800000Y-105700000D02*
X118800000Y-104300000D01*
X118800000Y-104300000D02*
X120900001Y-102199999D01*
D24*
X143400000Y-116550000D02*
X143375000Y-116575000D01*
X139475000Y-116575000D02*
X139475000Y-115425000D01*
X139475000Y-115425000D02*
X139500000Y-115400000D01*
X132275000Y-98075000D02*
X133675000Y-98075000D01*
X133675000Y-98075000D02*
X133700000Y-98100000D01*
D25*
X117950000Y-114275000D02*
X118925000Y-114275000D01*
X117100000Y-117675000D02*
X117100000Y-117700000D01*
X118925000Y-118175000D02*
X117575000Y-118175000D01*
X117575000Y-118175000D02*
X117100000Y-117700000D01*
X119100000Y-119000000D02*
X118925000Y-118825000D01*
X118925000Y-118825000D02*
X118925000Y-118175000D01*
D24*
X140060000Y-121830000D02*
X139930000Y-121830000D01*
D25*
X135000000Y-120200000D02*
X136000000Y-120200000D01*
X136000000Y-120200000D02*
X137000000Y-120200000D01*
D24*
X136003876Y-120203876D02*
X136000000Y-120200000D01*
D25*
X119100000Y-124500000D02*
X115000000Y-124500000D01*
X115000000Y-124500000D02*
X112750000Y-122250000D01*
X132875000Y-120175000D02*
X134975000Y-120175000D01*
X134975000Y-120175000D02*
X135000000Y-120200000D01*
X131900000Y-120175000D02*
X132875000Y-120175000D01*
X123500000Y-119625000D02*
X123975000Y-120100000D01*
X122875000Y-119000000D02*
X123500000Y-119625000D01*
X123500000Y-119625000D02*
X123500000Y-123600000D01*
X127125000Y-120175000D02*
X125075000Y-120175000D01*
X125075000Y-120175000D02*
X125000000Y-120100000D01*
X119100000Y-119000000D02*
X122875000Y-119000000D01*
X123975000Y-120100000D02*
X125000000Y-120100000D01*
X119100000Y-124500000D02*
X119100000Y-119000000D01*
X119100000Y-124500000D02*
X121000000Y-124500000D01*
D24*
X130325000Y-98075000D02*
X130325000Y-96175000D01*
X130325000Y-96175000D02*
X130800000Y-95700000D01*
D25*
X141700000Y-118300000D02*
X141700000Y-118375002D01*
X141700000Y-118375002D02*
X142524999Y-119200001D01*
X141425000Y-116575000D02*
X141425000Y-118025000D01*
X141425000Y-118025000D02*
X141700000Y-118300000D01*
X126800000Y-127550000D02*
X126950000Y-127550000D01*
X126950000Y-127550000D02*
X127800000Y-126700000D01*
D26*
X140060000Y-124370000D02*
X139970000Y-124370000D01*
X139970000Y-124370000D02*
X139300000Y-123700000D01*
D25*
X134900000Y-133400000D02*
X134900000Y-132400000D01*
X134900000Y-132400000D02*
X135300000Y-132000000D01*
X135300000Y-98100000D02*
X136300000Y-98100000D01*
X138825000Y-110825000D02*
X138825000Y-112125000D01*
X138825000Y-112125000D02*
X138900000Y-112200000D01*
X115500000Y-117700000D02*
X115500000Y-116600000D01*
X115500000Y-116600000D02*
X115600000Y-116500000D01*
X127725000Y-92325000D02*
X127725000Y-91425000D01*
X127725000Y-91425000D02*
X127400000Y-91100000D01*
X124675000Y-113625000D02*
X124675000Y-112975000D01*
X124675000Y-112975000D02*
X124500000Y-112800000D01*
X118925000Y-116225000D02*
X117675000Y-116225000D01*
X117675000Y-116225000D02*
X117600000Y-116300000D01*
X125000000Y-121900000D02*
X125000000Y-123200000D01*
X136000000Y-122000000D02*
X137000000Y-122000000D01*
X135000000Y-122000000D02*
X136000000Y-122000000D01*
X136000000Y-122000000D02*
X136000000Y-123000000D01*
X132875000Y-120825000D02*
X133825000Y-120825000D01*
X133825000Y-120825000D02*
X135000000Y-122000000D01*
X134950000Y-129350000D02*
X134650000Y-129350000D01*
X134650000Y-129350000D02*
X134100000Y-128800000D01*
X134900000Y-127600000D02*
X134900000Y-128000000D01*
X134900000Y-128000000D02*
X134100000Y-128800000D01*
X126500000Y-126100000D02*
X127200000Y-126100000D01*
X127200000Y-126100000D02*
X127800000Y-126700000D01*
X146402983Y-113804739D02*
X145495261Y-113804739D01*
X145495261Y-113804739D02*
X145200000Y-114100000D01*
X135636396Y-89363604D02*
X136400000Y-88600000D01*
X124363604Y-89363604D02*
X123600000Y-88600000D01*
X141000000Y-99304739D02*
X141402983Y-99304739D01*
X139902983Y-99304739D02*
X141000000Y-99304739D01*
X141402983Y-99304739D02*
X141902983Y-98804739D01*
X119200000Y-98804739D02*
X119597017Y-98804739D01*
X118097017Y-98804739D02*
X119200000Y-98804739D01*
X119597017Y-98804739D02*
X120097017Y-99304739D01*
X113597017Y-113804739D02*
X114204739Y-113804739D01*
X114204739Y-113804739D02*
X114600000Y-114200000D01*
X114100000Y-120000000D02*
X114100000Y-118800000D01*
D26*
X130900000Y-127500000D02*
X131900000Y-127500000D01*
X124600000Y-133500000D02*
X124600000Y-132400000D01*
D24*
X144200000Y-125600000D02*
X144624264Y-125600000D01*
X144624264Y-125600000D02*
X144750000Y-125474264D01*
X145255513Y-125300000D02*
X145417914Y-125137599D01*
X143700000Y-125800000D02*
X144600000Y-125800000D01*
X144600000Y-125800000D02*
X144800000Y-125600000D01*
X143800000Y-125300000D02*
X143800000Y-125700000D01*
X143800000Y-125700000D02*
X143700000Y-125800000D01*
X144200000Y-125600000D02*
X144100000Y-125600000D01*
X144100000Y-125600000D02*
X143800000Y-125300000D01*
X144800000Y-125600000D02*
X144200000Y-125600000D01*
X145262401Y-125137599D02*
X144800000Y-125600000D01*
X145417914Y-125137599D02*
X145262401Y-125137599D01*
X134600000Y-95700000D02*
X133475000Y-95700000D01*
X133475000Y-95700000D02*
X130975000Y-93200000D01*
X130975000Y-93200000D02*
X130975000Y-92325000D01*
X134600000Y-94200000D02*
X132625000Y-94200000D01*
X132625000Y-94200000D02*
X131625000Y-93200000D01*
X131625000Y-93200000D02*
X131625000Y-92325000D01*
X132275000Y-92325000D02*
X134225000Y-92325000D01*
X134225000Y-92325000D02*
X134600000Y-92700000D01*
D25*
X132600000Y-125000000D02*
X132600000Y-123700000D01*
X132600000Y-123700000D02*
X132875000Y-123425000D01*
X129100000Y-127500000D02*
X129100000Y-127350000D01*
X129100000Y-127350000D02*
X130750000Y-125700000D01*
X130750000Y-125700000D02*
X131300000Y-125700000D01*
D26*
X129100000Y-129500000D02*
X129100000Y-127500000D01*
D24*
X130325000Y-92325000D02*
X130325000Y-93200000D01*
X133725000Y-96600000D02*
X136800000Y-96600000D01*
X130325000Y-93200000D02*
X133725000Y-96600000D01*
X136800000Y-96600000D02*
X136800000Y-97300000D01*
X136800000Y-97300000D02*
X138600000Y-99100000D01*
X138600000Y-99900000D02*
X140200000Y-101500000D01*
X138600000Y-99100000D02*
X138600000Y-99900000D01*
X140200000Y-101500000D02*
X140400000Y-101500000D01*
X144041793Y-109184677D02*
X144041793Y-108541793D01*
X144041793Y-108541793D02*
X143800000Y-108300000D01*
X128375000Y-92325000D02*
X128375000Y-93200000D01*
X128375000Y-93200000D02*
X128175000Y-93400000D01*
X128175000Y-93400000D02*
X126875000Y-93400000D01*
X126875000Y-93400000D02*
X126200000Y-92725000D01*
X126200000Y-92725000D02*
X126200000Y-92700000D01*
X126200000Y-94200000D02*
X128025000Y-94200000D01*
X128025000Y-94200000D02*
X129025000Y-93200000D01*
X129025000Y-93200000D02*
X129025000Y-92325000D01*
X126200000Y-95700000D02*
X127175000Y-95700000D01*
X127175000Y-95700000D02*
X129675000Y-93200000D01*
X129675000Y-93200000D02*
X129675000Y-92325000D01*
X116058207Y-109084677D02*
X117000000Y-108142884D01*
X117000000Y-106400000D02*
X118200000Y-105200000D01*
X117000000Y-108142884D02*
X117000000Y-106400000D01*
X119400000Y-101655601D02*
X121474999Y-99580602D01*
X118200000Y-105200000D02*
X118200000Y-104000000D01*
X122200000Y-98400000D02*
X122200000Y-97300000D01*
X128440698Y-95000000D02*
X130988002Y-95000000D01*
X118200000Y-104000000D02*
X119400000Y-102800000D01*
X126740698Y-96700000D02*
X128440698Y-95000000D01*
X119400000Y-102800000D02*
X119400000Y-101655601D01*
X121474999Y-99580602D02*
X121474999Y-99125001D01*
X121474999Y-99125001D02*
X122200000Y-98400000D01*
X131625000Y-95636998D02*
X131625000Y-98075000D01*
X122200000Y-97300000D02*
X122800000Y-96700000D01*
X122800000Y-96700000D02*
X126740698Y-96700000D01*
X130988002Y-95000000D02*
X131625000Y-95636998D01*
X127125000Y-117575000D02*
X126334998Y-117575000D01*
X126334998Y-117575000D02*
X125650001Y-118259997D01*
X125650001Y-118259997D02*
X125650001Y-118640001D01*
X125650001Y-118640001D02*
X125590001Y-118700001D01*
X125590001Y-118700001D02*
X123211411Y-118700001D01*
X123211411Y-118700001D02*
X122811410Y-118300000D01*
X122811410Y-118300000D02*
X121024264Y-118300000D01*
X121024264Y-118300000D02*
X120600000Y-118300000D01*
X116975000Y-120000000D02*
X117250000Y-120275000D01*
X117250000Y-120275000D02*
X117250000Y-122250000D01*
X116975000Y-120000000D02*
X115900000Y-120000000D01*
D25*
X136200000Y-129100000D02*
X144390000Y-129100000D01*
X145990000Y-127730000D02*
X144620000Y-129100000D01*
X144620000Y-129100000D02*
X144390000Y-129100000D01*
X146153057Y-127730000D02*
X145990000Y-127730000D01*
X146582087Y-127462400D02*
X146420657Y-127462400D01*
X146420657Y-127462400D02*
X146153057Y-127730000D01*
X134000000Y-131650000D02*
X134600000Y-131650000D01*
X134600000Y-131650000D02*
X135700000Y-130550000D01*
X135700000Y-130550000D02*
X135700000Y-129600000D01*
X135700000Y-129600000D02*
X136200000Y-129100000D01*
X130900000Y-129500000D02*
X130900000Y-129650000D01*
X130900000Y-129650000D02*
X132900000Y-131650000D01*
X132900000Y-131650000D02*
X133400000Y-131650000D01*
X133400000Y-131650000D02*
X134000000Y-131650000D01*
X133100000Y-133400000D02*
X133100000Y-132550000D01*
X133100000Y-132550000D02*
X134000000Y-131650000D01*
X133100000Y-127600000D02*
X133100000Y-126575000D01*
X133100000Y-126575000D02*
X131425000Y-124900000D01*
X123400000Y-124900000D02*
X121000000Y-122500000D01*
X131425000Y-124900000D02*
X123400000Y-124900000D01*
X133050000Y-129350000D02*
X133050000Y-127650000D01*
X133050000Y-127650000D02*
X133100000Y-127600000D01*
X126250000Y-131000000D02*
X126250000Y-129400000D01*
X126250000Y-129400000D02*
X126800000Y-128850000D01*
X124600000Y-128850000D02*
X126800000Y-128850000D01*
D26*
X126400000Y-133500000D02*
X126400000Y-131150000D01*
X126400000Y-131150000D02*
X126250000Y-131000000D01*
X126400000Y-133500000D02*
X128850000Y-133500000D01*
X128850000Y-133500000D02*
X130000000Y-132350000D01*
D25*
X124600000Y-128200000D02*
X123825000Y-128200000D01*
X123825000Y-128200000D02*
X123600000Y-128425000D01*
X123900000Y-129600000D02*
X124500000Y-129600000D01*
X123600000Y-128425000D02*
X123600000Y-129300000D01*
X123600000Y-129300000D02*
X123900000Y-129600000D01*
X124500000Y-129600000D02*
X124750000Y-129850000D01*
X124750000Y-129850000D02*
X124750000Y-131000000D01*
X121000000Y-126500000D02*
X124300000Y-126500000D01*
X124300000Y-126500000D02*
X124700000Y-126100000D01*
X124600000Y-127550000D02*
X124600000Y-126200000D01*
X124600000Y-126200000D02*
X124700000Y-126100000D01*
X126800000Y-128200000D02*
X126025000Y-128200000D01*
X126025000Y-128200000D02*
X125375000Y-127550000D01*
X125375000Y-127550000D02*
X124600000Y-127550000D01*
D24*
X125636396Y-90636396D02*
X124600000Y-91672792D01*
X124600000Y-91672792D02*
X124600000Y-92700000D01*
D25*
X115341793Y-110515323D02*
X115341793Y-111256451D01*
X115341793Y-111256451D02*
X114402983Y-112195261D01*
D24*
X120902983Y-97695261D02*
X122898244Y-95700000D01*
X122898244Y-95700000D02*
X124600000Y-95700000D01*
D25*
X144758207Y-110615323D02*
X144758207Y-111356451D01*
X144758207Y-111356451D02*
X145597017Y-112195261D01*
D24*
X134363604Y-90636396D02*
X136200000Y-92472792D01*
X136200000Y-92472792D02*
X136200000Y-92700000D01*
X136200000Y-94200000D02*
X138101756Y-94200000D01*
X138101756Y-94200000D02*
X141097017Y-97195261D01*
X139097017Y-97695261D02*
X137101756Y-95700000D01*
X137101756Y-95700000D02*
X136200000Y-95700000D01*
X118902983Y-97195261D02*
X121898244Y-94200000D01*
X121898244Y-94200000D02*
X124600000Y-94200000D01*
D25*
X122175000Y-102100000D02*
X122175000Y-99800000D01*
X122175000Y-102800000D02*
X122175000Y-102100000D01*
X122175000Y-105800000D02*
X122175000Y-102800000D01*
X122175000Y-108800000D02*
X122175000Y-105800000D01*
X122175000Y-111800000D02*
X122175000Y-108800000D01*
X122175000Y-111800000D02*
X122175000Y-112750000D01*
X122175000Y-112750000D02*
X123700000Y-114275000D01*
X123700000Y-114275000D02*
X124675000Y-114275000D01*
X137825000Y-100725000D02*
X134550000Y-100725000D01*
X134550000Y-100725000D02*
X134325000Y-100500000D01*
X134125000Y-100700000D02*
X131025000Y-100700000D01*
X131025000Y-100700000D02*
X130825000Y-100500000D01*
X134325000Y-99800000D02*
X134325000Y-100500000D01*
X134325000Y-100500000D02*
X134125000Y-100700000D01*
X130625000Y-100700000D02*
X127525000Y-100700000D01*
X127525000Y-100700000D02*
X127325000Y-100500000D01*
X130825000Y-99800000D02*
X130825000Y-100500000D01*
X130825000Y-100500000D02*
X130625000Y-100700000D01*
X124025000Y-100700000D02*
X127125000Y-100700000D01*
X127125000Y-100700000D02*
X127325000Y-100500000D01*
X127325000Y-100500000D02*
X127325000Y-99800000D01*
X123825000Y-99800000D02*
X123825000Y-100500000D01*
X123825000Y-100500000D02*
X124025000Y-100700000D01*
X139400000Y-102300000D02*
X137825000Y-100725000D01*
X137825000Y-100725000D02*
X137825000Y-99800000D01*
X139400000Y-102300000D02*
X139400000Y-104300000D01*
X137625000Y-101900000D02*
X134525000Y-101900000D01*
X134525000Y-101900000D02*
X134325000Y-102100000D01*
X137825000Y-102800000D02*
X137824999Y-102099999D01*
X137824999Y-102099999D02*
X137625000Y-101900000D01*
X134125000Y-101900000D02*
X131025000Y-101900000D01*
X131025000Y-101900000D02*
X130825000Y-102100000D01*
X134325000Y-102800000D02*
X134325000Y-102100000D01*
X134325000Y-102100000D02*
X134125000Y-101900000D01*
X130625000Y-101900000D02*
X127525000Y-101900000D01*
X127525000Y-101900000D02*
X127325000Y-102100000D01*
X130825000Y-102800000D02*
X130825000Y-102100000D01*
X130825000Y-102100000D02*
X130625000Y-101900000D01*
X124025000Y-101900000D02*
X127125000Y-101900000D01*
X127125000Y-101900000D02*
X127325000Y-102100000D01*
X127325000Y-102100000D02*
X127325000Y-102800000D01*
X123825000Y-102800000D02*
X123825000Y-102100000D01*
X123825000Y-102100000D02*
X124025000Y-101900000D01*
X139300000Y-105800000D02*
X137825000Y-104325000D01*
X137825000Y-104325000D02*
X137825000Y-104200000D01*
X139400000Y-105800000D02*
X139300000Y-105800000D01*
X137825000Y-102800000D02*
X137825000Y-104200000D01*
X139400000Y-105775000D02*
X139400000Y-105800000D01*
X134325000Y-105800000D02*
X134325000Y-105100000D01*
X134125000Y-104900000D02*
X131025000Y-104900000D01*
X131025000Y-104900000D02*
X130825000Y-105100000D01*
X134324999Y-105099999D02*
X134125000Y-104900000D01*
X130625000Y-104900000D02*
X127525000Y-104900000D01*
X127525000Y-104900000D02*
X127325000Y-105100000D01*
X130825000Y-105800000D02*
X130825000Y-105100000D01*
X130825000Y-105100000D02*
X130625000Y-104900000D01*
X124025000Y-104900000D02*
X127125000Y-104900000D01*
X127125000Y-104900000D02*
X127325000Y-105100000D01*
X127325000Y-105100000D02*
X127325000Y-105800000D01*
X123825000Y-105800000D02*
X123825000Y-105100000D01*
X123825000Y-105100000D02*
X124025000Y-104900000D01*
X137625000Y-104900000D02*
X134525000Y-104900000D01*
X134525000Y-104900000D02*
X134325000Y-105100000D01*
X137825000Y-105800000D02*
X137825000Y-105100000D01*
X137825000Y-105100000D02*
X137625000Y-104900000D01*
X137825000Y-105800000D02*
X137900000Y-105800000D01*
X137900000Y-105800000D02*
X139400000Y-107300000D01*
X137625000Y-107900000D02*
X134525000Y-107900000D01*
X134525000Y-107900000D02*
X134325000Y-108100000D01*
X137825000Y-108800000D02*
X137825000Y-108100000D01*
X137825000Y-108100000D02*
X137625000Y-107900000D01*
X134125000Y-107900000D02*
X131025000Y-107900000D01*
X131025000Y-107900000D02*
X130825000Y-108100000D01*
X134325000Y-108800000D02*
X134325000Y-108100000D01*
X134325000Y-108100000D02*
X134125000Y-107900000D01*
X130625000Y-107900000D02*
X127525000Y-107900000D01*
X127525000Y-107900000D02*
X127325000Y-108100000D01*
X130825000Y-108800000D02*
X130825000Y-108100000D01*
X130825000Y-108100000D02*
X130625000Y-107900000D01*
X124025000Y-107900000D02*
X127125000Y-107900000D01*
X127125000Y-107900000D02*
X127325000Y-108100000D01*
X127325000Y-108100000D02*
X127325000Y-108800000D01*
X123825000Y-108800000D02*
X123825000Y-108100000D01*
X123825000Y-108100000D02*
X124025000Y-107900000D01*
X137825000Y-108800000D02*
X139400000Y-108800000D01*
X137625000Y-110900000D02*
X134525000Y-110900000D01*
X134525000Y-110900000D02*
X134325000Y-111100000D01*
X137825000Y-111800000D02*
X137825000Y-111100000D01*
X137825000Y-111100000D02*
X137625000Y-110900000D01*
X134125000Y-110900000D02*
X131025000Y-110900000D01*
X131025000Y-110900000D02*
X130825000Y-111100000D01*
X134325000Y-111800000D02*
X134325000Y-111100000D01*
X134325000Y-111100000D02*
X134125000Y-110900000D01*
X130625000Y-110900000D02*
X127525000Y-110900000D01*
X127525000Y-110900000D02*
X127325000Y-111100000D01*
X130825000Y-111800000D02*
X130825000Y-111100000D01*
X130825000Y-111100000D02*
X130625000Y-110900000D01*
X124025000Y-110900000D02*
X127125000Y-110900000D01*
X127125000Y-110900000D02*
X127325000Y-111100000D01*
X127325000Y-111100000D02*
X127325000Y-111800000D01*
X123825000Y-111800000D02*
X123825000Y-111100000D01*
X123825000Y-111100000D02*
X124025000Y-110900000D01*
X137300000Y-113700000D02*
X137300000Y-112325000D01*
X137300000Y-112325000D02*
X137825000Y-111800000D01*
X126000000Y-114480002D02*
X126000000Y-112825000D01*
X126000000Y-112825000D02*
X125675000Y-112500000D01*
X125675000Y-112500000D02*
X125675000Y-111800000D01*
X124675000Y-114925000D02*
X125555002Y-114925000D01*
X125555002Y-114925000D02*
X126000000Y-114480002D01*
X125675000Y-111800000D02*
X124800000Y-111800000D01*
X125675000Y-99800000D02*
X124800000Y-99800000D01*
X125675000Y-108800000D02*
X124800000Y-108800000D01*
X125675000Y-105800000D02*
X124800000Y-105800000D01*
X125675000Y-102800000D02*
X124800000Y-102800000D01*
X128300000Y-99800000D02*
X129175000Y-99800000D01*
X128300000Y-102800000D02*
X129175000Y-102800000D01*
X128300000Y-105800000D02*
X129175000Y-105800000D01*
X128300000Y-108800000D02*
X129175000Y-108800000D01*
X129175000Y-111800000D02*
X128300000Y-111800000D01*
X124675000Y-115575000D02*
X126100000Y-115575000D01*
X126100000Y-115575000D02*
X129175000Y-112500000D01*
X129175000Y-112500000D02*
X129175000Y-111800000D01*
X124675000Y-116225000D02*
X127375000Y-116225000D01*
X132675000Y-112500000D02*
X132675000Y-111800000D01*
X127375000Y-116225000D02*
X130500000Y-113100000D01*
X130500000Y-113100000D02*
X132075000Y-113100000D01*
X132075000Y-113100000D02*
X132675000Y-112500000D01*
X131800000Y-111800000D02*
X132675000Y-111800000D01*
X131800000Y-108800000D02*
X132675000Y-108800000D01*
X131800000Y-105800000D02*
X132675000Y-105800000D01*
X131800000Y-102800000D02*
X132675000Y-102800000D01*
X132675000Y-99800000D02*
X131800000Y-99800000D01*
X124675000Y-116875000D02*
X127925000Y-116875000D01*
X135000000Y-114000000D02*
X136175000Y-112825000D01*
X127925000Y-116875000D02*
X130800000Y-114000000D01*
X136175000Y-112825000D02*
X136175000Y-112500000D01*
X130800000Y-114000000D02*
X135000000Y-114000000D01*
X136175000Y-112500000D02*
X136175000Y-111800000D01*
X136175000Y-99800000D02*
X135300000Y-99800000D01*
X135300000Y-102800000D02*
X136175000Y-102800000D01*
X135300000Y-105800000D02*
X136175000Y-105800000D01*
X135300000Y-108800000D02*
X136175000Y-108800000D01*
X136175000Y-111800000D02*
X135300000Y-111800000D01*
D24*
X141100000Y-114800000D02*
X142075000Y-115775000D01*
X142075000Y-115775000D02*
X142075000Y-116575000D01*
X135500000Y-114700000D02*
X131185998Y-114700000D01*
X128200000Y-120450002D02*
X128200000Y-117685998D01*
X128200000Y-117685998D02*
X131185998Y-114700000D01*
X127125000Y-120825000D02*
X127825002Y-120825000D01*
X127825002Y-120825000D02*
X128200000Y-120450002D01*
X133100000Y-116200000D02*
X137400000Y-116200000D01*
X137400000Y-116200000D02*
X137600000Y-116400000D01*
X140125000Y-116575000D02*
X140125000Y-117425000D01*
X140125000Y-117425000D02*
X140500000Y-117800000D01*
X127125000Y-121475000D02*
X128000000Y-121475000D01*
X128000000Y-121475000D02*
X128900000Y-120575000D01*
X128900000Y-120575000D02*
X128900000Y-118224264D01*
X128800000Y-96600000D02*
X129025000Y-96825000D01*
X129025000Y-96825000D02*
X129025000Y-98075000D01*
X120900000Y-114900000D02*
X118950000Y-114900000D01*
X118950000Y-114900000D02*
X118925000Y-114925000D01*
X127125000Y-122125000D02*
X128175000Y-122125000D01*
X128175000Y-122125000D02*
X129600000Y-120700000D01*
X129600000Y-117300000D02*
X131500000Y-115400000D01*
X129600000Y-120700000D02*
X129600000Y-117300000D01*
X129675000Y-98075000D02*
X129675000Y-96675000D01*
X129675000Y-96675000D02*
X129600000Y-96600000D01*
X140775000Y-115475000D02*
X140200000Y-114900000D01*
X140775000Y-116575000D02*
X140775000Y-115475000D01*
X131500000Y-115400000D02*
X136000000Y-115400000D01*
X122200000Y-115600000D02*
X118950000Y-115600000D01*
X118950000Y-115600000D02*
X118925000Y-115575000D01*
X142000000Y-107400000D02*
X142000000Y-106825000D01*
X142000000Y-106825000D02*
X141000000Y-105825000D01*
X141000000Y-105825000D02*
X141000000Y-105800000D01*
X142500000Y-107900000D02*
X142000000Y-107400000D01*
X142500000Y-109600000D02*
X142500000Y-107900000D01*
X142725000Y-109825000D02*
X142500000Y-109600000D01*
X142725000Y-110825000D02*
X142725000Y-109825000D01*
X142075000Y-108375000D02*
X141000000Y-107300000D01*
X142075000Y-110825000D02*
X142075000Y-108375000D01*
X141000000Y-108800000D02*
X141000000Y-109500000D01*
X141000000Y-109500000D02*
X141425000Y-109925000D01*
X141425000Y-109925000D02*
X141425000Y-109950000D01*
X141425000Y-109950000D02*
X141425000Y-110825000D01*
D25*
X137300000Y-115300000D02*
X138100000Y-115300000D01*
X138100000Y-115300000D02*
X140775000Y-112625000D01*
X140775000Y-112625000D02*
X140775000Y-111800000D01*
X140775000Y-111800000D02*
X140775000Y-110825000D01*
D24*
X138600000Y-117300000D02*
X136000000Y-117300000D01*
X136000000Y-117300000D02*
X135600000Y-116900000D01*
X138825000Y-117075000D02*
X138600000Y-117300000D01*
X138825000Y-116575000D02*
X138825000Y-117075000D01*
X135600000Y-116900000D02*
X131300000Y-116900000D01*
X118925000Y-116875000D02*
X122975000Y-116875000D01*
X122975000Y-116875000D02*
X123100000Y-117000000D01*
X141000000Y-104300000D02*
X141000000Y-104325000D01*
X142100000Y-105100000D02*
X142100000Y-106100000D01*
X141000000Y-104325000D02*
X141475000Y-104800000D01*
X141475000Y-104800000D02*
X141800000Y-104800000D01*
X142600000Y-107200000D02*
X143000000Y-107600000D01*
X141800000Y-104800000D02*
X142100000Y-105100000D01*
X143000000Y-107600000D02*
X143000000Y-109400000D01*
X142100000Y-106100000D02*
X142600000Y-106600000D01*
X142600000Y-106600000D02*
X142600000Y-107200000D01*
X143000000Y-109400000D02*
X143375000Y-109775000D01*
X143375000Y-109775000D02*
X143375000Y-110825000D01*
X130975000Y-96825000D02*
X131000000Y-96800000D01*
X130975000Y-98075000D02*
X130975000Y-96825000D01*
X118925000Y-113625000D02*
X121925000Y-113625000D01*
X121925000Y-113625000D02*
X122300000Y-114000000D01*
D27*
G36*
X132298959Y-132251041D02*
X132308234Y-132257238D01*
X132290186Y-132347970D01*
X132227349Y-132388405D01*
X132067518Y-132622326D01*
X132011287Y-132900000D01*
X132011287Y-133900000D01*
X132060097Y-134159404D01*
X132086220Y-134200000D01*
X129479474Y-134200000D01*
X129521751Y-134171751D01*
X129648659Y-134044843D01*
X129660366Y-134049704D01*
X130336667Y-134050294D01*
X130961715Y-133792030D01*
X131440350Y-133314230D01*
X131699704Y-132689634D01*
X131700294Y-132013333D01*
X131446133Y-131398215D01*
X132298959Y-132251041D01*
X132298959Y-132251041D01*
G37*
X132298959Y-132251041D02*
X132308234Y-132257238D01*
X132290186Y-132347970D01*
X132227349Y-132388405D01*
X132067518Y-132622326D01*
X132011287Y-132900000D01*
X132011287Y-133900000D01*
X132060097Y-134159404D01*
X132086220Y-134200000D01*
X129479474Y-134200000D01*
X129521751Y-134171751D01*
X129648659Y-134044843D01*
X129660366Y-134049704D01*
X130336667Y-134050294D01*
X130961715Y-133792030D01*
X131440350Y-133314230D01*
X131699704Y-132689634D01*
X131700294Y-132013333D01*
X131446133Y-131398215D01*
X132298959Y-132251041D01*
G36*
X128011287Y-128000000D02*
X128060097Y-128259404D01*
X128150000Y-128399117D01*
X128150000Y-128601609D01*
X128067518Y-128722326D01*
X128011287Y-129000000D01*
X128011287Y-130000000D01*
X128060097Y-130259404D01*
X128213405Y-130497651D01*
X128447326Y-130657482D01*
X128725000Y-130713713D01*
X129508424Y-130713713D01*
X129038285Y-130907970D01*
X128559650Y-131385770D01*
X128300296Y-132010366D01*
X128299825Y-132550000D01*
X127350000Y-132550000D01*
X127350000Y-131917716D01*
X127363713Y-131850000D01*
X127363713Y-130150000D01*
X127314903Y-129890596D01*
X127233256Y-129763713D01*
X127275000Y-129763713D01*
X127534404Y-129714903D01*
X127772651Y-129561595D01*
X127932482Y-129327674D01*
X127988713Y-129050000D01*
X127988713Y-128650000D01*
X127964329Y-128520410D01*
X127988713Y-128400000D01*
X127988713Y-128000000D01*
X127964329Y-127870410D01*
X127988713Y-127750000D01*
X127988713Y-127713368D01*
X128004632Y-127697449D01*
X128011287Y-127694699D01*
X128011287Y-128000000D01*
X128011287Y-128000000D01*
G37*
X128011287Y-128000000D02*
X128060097Y-128259404D01*
X128150000Y-128399117D01*
X128150000Y-128601609D01*
X128067518Y-128722326D01*
X128011287Y-129000000D01*
X128011287Y-130000000D01*
X128060097Y-130259404D01*
X128213405Y-130497651D01*
X128447326Y-130657482D01*
X128725000Y-130713713D01*
X129508424Y-130713713D01*
X129038285Y-130907970D01*
X128559650Y-131385770D01*
X128300296Y-132010366D01*
X128299825Y-132550000D01*
X127350000Y-132550000D01*
X127350000Y-131917716D01*
X127363713Y-131850000D01*
X127363713Y-130150000D01*
X127314903Y-129890596D01*
X127233256Y-129763713D01*
X127275000Y-129763713D01*
X127534404Y-129714903D01*
X127772651Y-129561595D01*
X127932482Y-129327674D01*
X127988713Y-129050000D01*
X127988713Y-128650000D01*
X127964329Y-128520410D01*
X127988713Y-128400000D01*
X127988713Y-128000000D01*
X127964329Y-127870410D01*
X127988713Y-127750000D01*
X127988713Y-127713368D01*
X128004632Y-127697449D01*
X128011287Y-127694699D01*
X128011287Y-128000000D01*
G36*
X130952837Y-130904919D02*
X130492360Y-130713713D01*
X130761631Y-130713713D01*
X130952837Y-130904919D01*
X130952837Y-130904919D01*
G37*
X130952837Y-130904919D02*
X130492360Y-130713713D01*
X130761631Y-130713713D01*
X130952837Y-130904919D01*
G36*
X133202349Y-130638405D02*
X133156942Y-130704860D01*
X133015795Y-130563713D01*
X133318423Y-130563713D01*
X133202349Y-130638405D01*
X133202349Y-130638405D01*
G37*
X133202349Y-130638405D02*
X133156942Y-130704860D01*
X133015795Y-130563713D01*
X133318423Y-130563713D01*
X133202349Y-130638405D01*
G36*
X130036422Y-130650031D02*
X129957622Y-130649963D01*
X129998151Y-130623883D01*
X130036422Y-130650031D01*
X130036422Y-130650031D01*
G37*
X130036422Y-130650031D02*
X129957622Y-130649963D01*
X129998151Y-130623883D01*
X130036422Y-130650031D01*
G36*
X134138405Y-130347651D02*
X134268128Y-130436287D01*
X133731577Y-130436287D01*
X133847651Y-130361595D01*
X134002008Y-130135685D01*
X134138405Y-130347651D01*
X134138405Y-130347651D01*
G37*
X134138405Y-130347651D02*
X134268128Y-130436287D01*
X133731577Y-130436287D01*
X133847651Y-130361595D01*
X134002008Y-130135685D01*
X134138405Y-130347651D01*
G36*
X132146382Y-128493494D02*
X132092518Y-128572326D01*
X132036287Y-128850000D01*
X132036287Y-129584205D01*
X131988713Y-129536631D01*
X131988713Y-129000000D01*
X131939903Y-128740596D01*
X131786595Y-128502349D01*
X131783008Y-128499898D01*
X132098040Y-128500173D01*
X132139623Y-128482991D01*
X132146382Y-128493494D01*
X132146382Y-128493494D01*
G37*
X132146382Y-128493494D02*
X132092518Y-128572326D01*
X132036287Y-128850000D01*
X132036287Y-129584205D01*
X131988713Y-129536631D01*
X131988713Y-129000000D01*
X131939903Y-128740596D01*
X131786595Y-128502349D01*
X131783008Y-128499898D01*
X132098040Y-128500173D01*
X132139623Y-128482991D01*
X132146382Y-128493494D01*
G36*
X111785770Y-123690350D02*
X112410366Y-123949704D01*
X113086667Y-123950294D01*
X113200980Y-123903061D01*
X114398957Y-125101038D01*
X114398959Y-125101041D01*
X114596159Y-125232806D01*
X114674719Y-125285298D01*
X115000000Y-125350001D01*
X115000005Y-125350000D01*
X119729046Y-125350000D01*
X119878678Y-125499894D01*
X119729103Y-125649209D01*
X119500261Y-126200323D01*
X119499740Y-126797059D01*
X119727620Y-127348572D01*
X119787380Y-127408437D01*
X119575287Y-127620161D01*
X119568921Y-127622064D01*
X119565615Y-127629815D01*
X119559650Y-127635770D01*
X119433100Y-127940538D01*
X119303615Y-128244154D01*
X119303527Y-128252584D01*
X119300296Y-128260366D01*
X119300008Y-128590282D01*
X119296568Y-128920420D01*
X119299713Y-128928243D01*
X119299706Y-128936667D01*
X119408513Y-129200000D01*
X118906231Y-129200000D01*
X118946385Y-129105846D01*
X118946473Y-129097416D01*
X118949704Y-129089634D01*
X118949992Y-128759718D01*
X118953432Y-128429580D01*
X118950287Y-128421757D01*
X118950294Y-128413333D01*
X118824297Y-128108396D01*
X118701146Y-127802096D01*
X118692212Y-127788726D01*
X118692030Y-127788285D01*
X118691690Y-127787945D01*
X118681079Y-127772064D01*
X118673607Y-127769830D01*
X118229839Y-127325287D01*
X118227936Y-127318921D01*
X118220185Y-127315615D01*
X118214230Y-127309650D01*
X117909462Y-127183100D01*
X117605846Y-127053615D01*
X117597416Y-127053527D01*
X117589634Y-127050296D01*
X117259718Y-127050008D01*
X116929580Y-127046568D01*
X116921757Y-127049713D01*
X116913333Y-127049706D01*
X116608396Y-127175703D01*
X116302096Y-127298854D01*
X116288726Y-127307788D01*
X116288285Y-127307970D01*
X116287945Y-127308310D01*
X116272064Y-127318921D01*
X116269830Y-127326393D01*
X115825287Y-127770161D01*
X115818921Y-127772064D01*
X115815615Y-127779815D01*
X115809650Y-127785770D01*
X115683100Y-128090538D01*
X115553615Y-128394154D01*
X115553527Y-128402584D01*
X115550296Y-128410366D01*
X115550008Y-128740282D01*
X115546568Y-129070420D01*
X115549713Y-129078243D01*
X115549706Y-129086667D01*
X115596534Y-129200000D01*
X114406231Y-129200000D01*
X114446385Y-129105846D01*
X114446473Y-129097416D01*
X114449704Y-129089634D01*
X114449992Y-128759718D01*
X114453432Y-128429580D01*
X114450287Y-128421757D01*
X114450294Y-128413333D01*
X114324297Y-128108396D01*
X114201146Y-127802096D01*
X114192212Y-127788726D01*
X114192030Y-127788285D01*
X114191690Y-127787945D01*
X114181079Y-127772064D01*
X114173607Y-127769830D01*
X113729839Y-127325287D01*
X113727936Y-127318921D01*
X113720185Y-127315615D01*
X113714230Y-127309650D01*
X113409462Y-127183100D01*
X113105846Y-127053615D01*
X113097416Y-127053527D01*
X113089634Y-127050296D01*
X112759718Y-127050008D01*
X112429580Y-127046568D01*
X112421757Y-127049713D01*
X112413333Y-127049706D01*
X112108396Y-127175703D01*
X111802096Y-127298854D01*
X111788726Y-127307788D01*
X111788285Y-127307970D01*
X111787945Y-127308310D01*
X111772064Y-127318921D01*
X111769830Y-127326393D01*
X111325287Y-127770161D01*
X111318921Y-127772064D01*
X111315615Y-127779815D01*
X111309650Y-127785770D01*
X111183100Y-128090538D01*
X111053615Y-128394154D01*
X111053527Y-128402584D01*
X111050296Y-128410366D01*
X111050008Y-128740282D01*
X111046568Y-129070420D01*
X111049713Y-129078243D01*
X111049706Y-129086667D01*
X111096534Y-129200000D01*
X108794428Y-129200000D01*
X111628183Y-123532488D01*
X111785770Y-123690350D01*
X111785770Y-123690350D01*
G37*
X111785770Y-123690350D02*
X112410366Y-123949704D01*
X113086667Y-123950294D01*
X113200980Y-123903061D01*
X114398957Y-125101038D01*
X114398959Y-125101041D01*
X114596159Y-125232806D01*
X114674719Y-125285298D01*
X115000000Y-125350001D01*
X115000005Y-125350000D01*
X119729046Y-125350000D01*
X119878678Y-125499894D01*
X119729103Y-125649209D01*
X119500261Y-126200323D01*
X119499740Y-126797059D01*
X119727620Y-127348572D01*
X119787380Y-127408437D01*
X119575287Y-127620161D01*
X119568921Y-127622064D01*
X119565615Y-127629815D01*
X119559650Y-127635770D01*
X119433100Y-127940538D01*
X119303615Y-128244154D01*
X119303527Y-128252584D01*
X119300296Y-128260366D01*
X119300008Y-128590282D01*
X119296568Y-128920420D01*
X119299713Y-128928243D01*
X119299706Y-128936667D01*
X119408513Y-129200000D01*
X118906231Y-129200000D01*
X118946385Y-129105846D01*
X118946473Y-129097416D01*
X118949704Y-129089634D01*
X118949992Y-128759718D01*
X118953432Y-128429580D01*
X118950287Y-128421757D01*
X118950294Y-128413333D01*
X118824297Y-128108396D01*
X118701146Y-127802096D01*
X118692212Y-127788726D01*
X118692030Y-127788285D01*
X118691690Y-127787945D01*
X118681079Y-127772064D01*
X118673607Y-127769830D01*
X118229839Y-127325287D01*
X118227936Y-127318921D01*
X118220185Y-127315615D01*
X118214230Y-127309650D01*
X117909462Y-127183100D01*
X117605846Y-127053615D01*
X117597416Y-127053527D01*
X117589634Y-127050296D01*
X117259718Y-127050008D01*
X116929580Y-127046568D01*
X116921757Y-127049713D01*
X116913333Y-127049706D01*
X116608396Y-127175703D01*
X116302096Y-127298854D01*
X116288726Y-127307788D01*
X116288285Y-127307970D01*
X116287945Y-127308310D01*
X116272064Y-127318921D01*
X116269830Y-127326393D01*
X115825287Y-127770161D01*
X115818921Y-127772064D01*
X115815615Y-127779815D01*
X115809650Y-127785770D01*
X115683100Y-128090538D01*
X115553615Y-128394154D01*
X115553527Y-128402584D01*
X115550296Y-128410366D01*
X115550008Y-128740282D01*
X115546568Y-129070420D01*
X115549713Y-129078243D01*
X115549706Y-129086667D01*
X115596534Y-129200000D01*
X114406231Y-129200000D01*
X114446385Y-129105846D01*
X114446473Y-129097416D01*
X114449704Y-129089634D01*
X114449992Y-128759718D01*
X114453432Y-128429580D01*
X114450287Y-128421757D01*
X114450294Y-128413333D01*
X114324297Y-128108396D01*
X114201146Y-127802096D01*
X114192212Y-127788726D01*
X114192030Y-127788285D01*
X114191690Y-127787945D01*
X114181079Y-127772064D01*
X114173607Y-127769830D01*
X113729839Y-127325287D01*
X113727936Y-127318921D01*
X113720185Y-127315615D01*
X113714230Y-127309650D01*
X113409462Y-127183100D01*
X113105846Y-127053615D01*
X113097416Y-127053527D01*
X113089634Y-127050296D01*
X112759718Y-127050008D01*
X112429580Y-127046568D01*
X112421757Y-127049713D01*
X112413333Y-127049706D01*
X112108396Y-127175703D01*
X111802096Y-127298854D01*
X111788726Y-127307788D01*
X111788285Y-127307970D01*
X111787945Y-127308310D01*
X111772064Y-127318921D01*
X111769830Y-127326393D01*
X111325287Y-127770161D01*
X111318921Y-127772064D01*
X111315615Y-127779815D01*
X111309650Y-127785770D01*
X111183100Y-128090538D01*
X111053615Y-128394154D01*
X111053527Y-128402584D01*
X111050296Y-128410366D01*
X111050008Y-128740282D01*
X111046568Y-129070420D01*
X111049713Y-129078243D01*
X111049706Y-129086667D01*
X111096534Y-129200000D01*
X108794428Y-129200000D01*
X111628183Y-123532488D01*
X111785770Y-123690350D01*
G36*
X123411287Y-127473790D02*
X123223959Y-127598959D01*
X122998959Y-127823959D01*
X122814702Y-128099719D01*
X122750000Y-128425000D01*
X122750000Y-129200000D01*
X122592259Y-129200000D01*
X122696385Y-128955846D01*
X122696473Y-128947416D01*
X122699704Y-128939634D01*
X122699992Y-128609718D01*
X122703432Y-128279580D01*
X122700287Y-128271757D01*
X122700294Y-128263333D01*
X122574297Y-127958396D01*
X122451146Y-127652096D01*
X122442212Y-127638726D01*
X122442030Y-127638285D01*
X122441690Y-127637945D01*
X122431079Y-127622064D01*
X122423607Y-127619830D01*
X122212866Y-127408721D01*
X122270897Y-127350791D01*
X122271225Y-127350000D01*
X123411287Y-127350000D01*
X123411287Y-127473790D01*
X123411287Y-127473790D01*
G37*
X123411287Y-127473790D02*
X123223959Y-127598959D01*
X122998959Y-127823959D01*
X122814702Y-128099719D01*
X122750000Y-128425000D01*
X122750000Y-129200000D01*
X122592259Y-129200000D01*
X122696385Y-128955846D01*
X122696473Y-128947416D01*
X122699704Y-128939634D01*
X122699992Y-128609718D01*
X122703432Y-128279580D01*
X122700287Y-128271757D01*
X122700294Y-128263333D01*
X122574297Y-127958396D01*
X122451146Y-127652096D01*
X122442212Y-127638726D01*
X122442030Y-127638285D01*
X122441690Y-127637945D01*
X122431079Y-127622064D01*
X122423607Y-127619830D01*
X122212866Y-127408721D01*
X122270897Y-127350791D01*
X122271225Y-127350000D01*
X123411287Y-127350000D01*
X123411287Y-127473790D01*
G36*
X147867046Y-127739226D02*
X147896760Y-127798563D01*
X147941952Y-127837709D01*
X147981948Y-127890295D01*
X147994478Y-127897717D01*
X147994368Y-127898526D01*
X148013043Y-127967489D01*
X148018337Y-128041346D01*
X148050361Y-128105297D01*
X148068421Y-128171988D01*
X148583211Y-129200000D01*
X147687326Y-129200000D01*
X147747668Y-129153109D01*
X147979295Y-128746199D01*
X148037573Y-128281624D01*
X147913629Y-127830110D01*
X147847623Y-127745168D01*
X147858105Y-127727471D01*
X147867046Y-127739226D01*
X147867046Y-127739226D01*
G37*
X147867046Y-127739226D02*
X147896760Y-127798563D01*
X147941952Y-127837709D01*
X147981948Y-127890295D01*
X147994478Y-127897717D01*
X147994368Y-127898526D01*
X148013043Y-127967489D01*
X148018337Y-128041346D01*
X148050361Y-128105297D01*
X148068421Y-128171988D01*
X148583211Y-129200000D01*
X147687326Y-129200000D01*
X147747668Y-129153109D01*
X147979295Y-128746199D01*
X148037573Y-128281624D01*
X147913629Y-127830110D01*
X147847623Y-127745168D01*
X147858105Y-127727471D01*
X147867046Y-127739226D01*
G36*
X134500000Y-123088713D02*
X134999922Y-123088713D01*
X134999827Y-123198040D01*
X135151747Y-123565714D01*
X135432806Y-123847264D01*
X135800215Y-123999826D01*
X136198040Y-124000173D01*
X136565714Y-123848253D01*
X136847264Y-123567194D01*
X136999826Y-123199785D01*
X136999923Y-123088713D01*
X137300000Y-123088713D01*
X137300000Y-127000000D01*
X137353148Y-127267194D01*
X137360896Y-127306147D01*
X137534315Y-127565685D01*
X137964315Y-127995686D01*
X138223853Y-128169104D01*
X138530000Y-128230000D01*
X144287918Y-128230000D01*
X144267918Y-128250000D01*
X136200000Y-128250000D01*
X135948194Y-128300087D01*
X135988713Y-128100000D01*
X135988713Y-127100000D01*
X135939903Y-126840596D01*
X135786595Y-126602349D01*
X135552674Y-126442518D01*
X135275000Y-126386287D01*
X134325000Y-126386287D01*
X134065596Y-126435097D01*
X134001849Y-126476117D01*
X133952674Y-126442518D01*
X133922430Y-126436393D01*
X133885298Y-126249719D01*
X133701041Y-125973959D01*
X133370703Y-125643621D01*
X133447264Y-125567194D01*
X133599826Y-125199785D01*
X133600173Y-124801960D01*
X133450000Y-124438514D01*
X133450000Y-124363713D01*
X133550000Y-124363713D01*
X133809404Y-124314903D01*
X134047651Y-124161595D01*
X134207482Y-123927674D01*
X134263713Y-123650000D01*
X134263713Y-123200000D01*
X134244206Y-123096328D01*
X134255764Y-123039253D01*
X134500000Y-123088713D01*
X134500000Y-123088713D01*
G37*
X134500000Y-123088713D02*
X134999922Y-123088713D01*
X134999827Y-123198040D01*
X135151747Y-123565714D01*
X135432806Y-123847264D01*
X135800215Y-123999826D01*
X136198040Y-124000173D01*
X136565714Y-123848253D01*
X136847264Y-123567194D01*
X136999826Y-123199785D01*
X136999923Y-123088713D01*
X137300000Y-123088713D01*
X137300000Y-127000000D01*
X137353148Y-127267194D01*
X137360896Y-127306147D01*
X137534315Y-127565685D01*
X137964315Y-127995686D01*
X138223853Y-128169104D01*
X138530000Y-128230000D01*
X144287918Y-128230000D01*
X144267918Y-128250000D01*
X136200000Y-128250000D01*
X135948194Y-128300087D01*
X135988713Y-128100000D01*
X135988713Y-127100000D01*
X135939903Y-126840596D01*
X135786595Y-126602349D01*
X135552674Y-126442518D01*
X135275000Y-126386287D01*
X134325000Y-126386287D01*
X134065596Y-126435097D01*
X134001849Y-126476117D01*
X133952674Y-126442518D01*
X133922430Y-126436393D01*
X133885298Y-126249719D01*
X133701041Y-125973959D01*
X133370703Y-125643621D01*
X133447264Y-125567194D01*
X133599826Y-125199785D01*
X133600173Y-124801960D01*
X133450000Y-124438514D01*
X133450000Y-124363713D01*
X133550000Y-124363713D01*
X133809404Y-124314903D01*
X134047651Y-124161595D01*
X134207482Y-123927674D01*
X134263713Y-123650000D01*
X134263713Y-123200000D01*
X134244206Y-123096328D01*
X134255764Y-123039253D01*
X134500000Y-123088713D01*
G36*
X128961631Y-126286287D02*
X128725000Y-126286287D01*
X128712064Y-126288721D01*
X128648253Y-126134286D01*
X128367194Y-125852736D01*
X128119779Y-125750000D01*
X129497919Y-125750000D01*
X128961631Y-126286287D01*
X128961631Y-126286287D01*
G37*
X128961631Y-126286287D02*
X128725000Y-126286287D01*
X128712064Y-126288721D01*
X128648253Y-126134286D01*
X128367194Y-125852736D01*
X128119779Y-125750000D01*
X129497919Y-125750000D01*
X128961631Y-126286287D01*
G36*
X122798957Y-125501038D02*
X122798959Y-125501041D01*
X122958421Y-125607590D01*
X123021892Y-125650000D01*
X122270954Y-125650000D01*
X122121322Y-125500106D01*
X122270897Y-125350791D01*
X122381749Y-125083830D01*
X122798957Y-125501038D01*
X122798957Y-125501038D01*
G37*
X122798957Y-125501038D02*
X122798959Y-125501041D01*
X122958421Y-125607590D01*
X123021892Y-125650000D01*
X122270954Y-125650000D01*
X122121322Y-125500106D01*
X122270897Y-125350791D01*
X122381749Y-125083830D01*
X122798957Y-125501038D01*
G36*
X144053125Y-112325320D02*
X144556120Y-113329777D01*
X144352736Y-113532806D01*
X144200174Y-113900215D01*
X144199827Y-114298040D01*
X144324217Y-114599087D01*
X144260896Y-114693853D01*
X144255288Y-114722048D01*
X144241054Y-114747018D01*
X144225016Y-114874233D01*
X144200000Y-115000000D01*
X144205607Y-115028191D01*
X144202012Y-115056711D01*
X144235881Y-115180387D01*
X144260896Y-115306147D01*
X144276866Y-115330047D01*
X144284458Y-115357771D01*
X146618005Y-120024866D01*
X146512957Y-120053702D01*
X146432235Y-120072285D01*
X146257969Y-120159551D01*
X145553886Y-120512129D01*
X145553884Y-120512130D01*
X145538081Y-120520044D01*
X145474851Y-120573545D01*
X145184173Y-120799426D01*
X144952545Y-121206335D01*
X144894267Y-121670911D01*
X145018210Y-122122425D01*
X145076747Y-122197754D01*
X145740074Y-123522387D01*
X145784966Y-123581410D01*
X145814680Y-123640747D01*
X145859872Y-123679893D01*
X145899868Y-123732479D01*
X145912398Y-123739901D01*
X145912288Y-123740709D01*
X145930963Y-123809671D01*
X145936257Y-123883530D01*
X145968282Y-123947482D01*
X145970543Y-123955832D01*
X145949041Y-123952908D01*
X145921101Y-123851124D01*
X145633805Y-123481411D01*
X145226895Y-123249784D01*
X144762319Y-123191506D01*
X144310805Y-123315450D01*
X144040845Y-123450636D01*
X143671132Y-123737933D01*
X143439505Y-124144843D01*
X143410120Y-124379094D01*
X143234286Y-124451747D01*
X142952736Y-124732806D01*
X142800174Y-125100215D01*
X142800146Y-125132682D01*
X142729402Y-124961892D01*
X142729203Y-124961870D01*
X142728903Y-124961143D01*
X142403794Y-124635465D01*
X142423310Y-124588465D01*
X142423689Y-124153444D01*
X142257565Y-123751391D01*
X142241443Y-123735241D01*
X142256484Y-123720227D01*
X142423310Y-123318465D01*
X142423467Y-123137903D01*
X143065685Y-122495686D01*
X143239104Y-122236147D01*
X143258066Y-122140816D01*
X143300000Y-121930000D01*
X143300000Y-120169546D01*
X143245198Y-119894038D01*
X143372263Y-119767195D01*
X143477518Y-119513713D01*
X143775000Y-119513713D01*
X144034404Y-119464903D01*
X144272651Y-119311595D01*
X144432482Y-119077674D01*
X144488713Y-118800000D01*
X144488713Y-117800000D01*
X144439903Y-117540596D01*
X144299158Y-117321873D01*
X144313713Y-117250000D01*
X144313713Y-115900000D01*
X144264903Y-115640596D01*
X144131856Y-115433836D01*
X144114104Y-115344589D01*
X144072064Y-115281672D01*
X143940685Y-115085050D01*
X143089949Y-114234315D01*
X142830411Y-114060896D01*
X142761478Y-114047184D01*
X142667194Y-113952736D01*
X142299785Y-113800174D01*
X141901960Y-113799827D01*
X141599710Y-113924714D01*
X141299785Y-113800174D01*
X140901960Y-113799827D01*
X140732049Y-113870033D01*
X141376041Y-113226041D01*
X141560298Y-112950281D01*
X141625000Y-112625000D01*
X141625000Y-112213713D01*
X141650000Y-112213713D01*
X141753672Y-112194206D01*
X141850000Y-112213713D01*
X142300000Y-112213713D01*
X142403672Y-112194206D01*
X142500000Y-112213713D01*
X142950000Y-112213713D01*
X143053672Y-112194206D01*
X143150000Y-112213713D01*
X143600000Y-112213713D01*
X143859404Y-112164903D01*
X143987383Y-112082550D01*
X144053125Y-112325320D01*
X144053125Y-112325320D01*
G37*
X144053125Y-112325320D02*
X144556120Y-113329777D01*
X144352736Y-113532806D01*
X144200174Y-113900215D01*
X144199827Y-114298040D01*
X144324217Y-114599087D01*
X144260896Y-114693853D01*
X144255288Y-114722048D01*
X144241054Y-114747018D01*
X144225016Y-114874233D01*
X144200000Y-115000000D01*
X144205607Y-115028191D01*
X144202012Y-115056711D01*
X144235881Y-115180387D01*
X144260896Y-115306147D01*
X144276866Y-115330047D01*
X144284458Y-115357771D01*
X146618005Y-120024866D01*
X146512957Y-120053702D01*
X146432235Y-120072285D01*
X146257969Y-120159551D01*
X145553886Y-120512129D01*
X145553884Y-120512130D01*
X145538081Y-120520044D01*
X145474851Y-120573545D01*
X145184173Y-120799426D01*
X144952545Y-121206335D01*
X144894267Y-121670911D01*
X145018210Y-122122425D01*
X145076747Y-122197754D01*
X145740074Y-123522387D01*
X145784966Y-123581410D01*
X145814680Y-123640747D01*
X145859872Y-123679893D01*
X145899868Y-123732479D01*
X145912398Y-123739901D01*
X145912288Y-123740709D01*
X145930963Y-123809671D01*
X145936257Y-123883530D01*
X145968282Y-123947482D01*
X145970543Y-123955832D01*
X145949041Y-123952908D01*
X145921101Y-123851124D01*
X145633805Y-123481411D01*
X145226895Y-123249784D01*
X144762319Y-123191506D01*
X144310805Y-123315450D01*
X144040845Y-123450636D01*
X143671132Y-123737933D01*
X143439505Y-124144843D01*
X143410120Y-124379094D01*
X143234286Y-124451747D01*
X142952736Y-124732806D01*
X142800174Y-125100215D01*
X142800146Y-125132682D01*
X142729402Y-124961892D01*
X142729203Y-124961870D01*
X142728903Y-124961143D01*
X142403794Y-124635465D01*
X142423310Y-124588465D01*
X142423689Y-124153444D01*
X142257565Y-123751391D01*
X142241443Y-123735241D01*
X142256484Y-123720227D01*
X142423310Y-123318465D01*
X142423467Y-123137903D01*
X143065685Y-122495686D01*
X143239104Y-122236147D01*
X143258066Y-122140816D01*
X143300000Y-121930000D01*
X143300000Y-120169546D01*
X143245198Y-119894038D01*
X143372263Y-119767195D01*
X143477518Y-119513713D01*
X143775000Y-119513713D01*
X144034404Y-119464903D01*
X144272651Y-119311595D01*
X144432482Y-119077674D01*
X144488713Y-118800000D01*
X144488713Y-117800000D01*
X144439903Y-117540596D01*
X144299158Y-117321873D01*
X144313713Y-117250000D01*
X144313713Y-115900000D01*
X144264903Y-115640596D01*
X144131856Y-115433836D01*
X144114104Y-115344589D01*
X144072064Y-115281672D01*
X143940685Y-115085050D01*
X143089949Y-114234315D01*
X142830411Y-114060896D01*
X142761478Y-114047184D01*
X142667194Y-113952736D01*
X142299785Y-113800174D01*
X141901960Y-113799827D01*
X141599710Y-113924714D01*
X141299785Y-113800174D01*
X140901960Y-113799827D01*
X140732049Y-113870033D01*
X141376041Y-113226041D01*
X141560298Y-112950281D01*
X141625000Y-112625000D01*
X141625000Y-112213713D01*
X141650000Y-112213713D01*
X141753672Y-112194206D01*
X141850000Y-112213713D01*
X142300000Y-112213713D01*
X142403672Y-112194206D01*
X142500000Y-112213713D01*
X142950000Y-112213713D01*
X143053672Y-112194206D01*
X143150000Y-112213713D01*
X143600000Y-112213713D01*
X143859404Y-112164903D01*
X143987383Y-112082550D01*
X144053125Y-112325320D01*
G36*
X131486287Y-121900000D02*
X131486287Y-122350000D01*
X131505794Y-122453672D01*
X131486287Y-122550000D01*
X131486287Y-123000000D01*
X131505794Y-123103672D01*
X131486287Y-123200000D01*
X131486287Y-123650000D01*
X131535097Y-123909404D01*
X131655008Y-124095751D01*
X131425000Y-124050000D01*
X130152082Y-124050000D01*
X130901041Y-123301041D01*
X131085298Y-123025281D01*
X131150000Y-122700000D01*
X131150000Y-122127082D01*
X131304633Y-121972449D01*
X131486864Y-121897153D01*
X131486287Y-121900000D01*
X131486287Y-121900000D01*
G37*
X131486287Y-121900000D02*
X131486287Y-122350000D01*
X131505794Y-122453672D01*
X131486287Y-122550000D01*
X131486287Y-123000000D01*
X131505794Y-123103672D01*
X131486287Y-123200000D01*
X131486287Y-123650000D01*
X131535097Y-123909404D01*
X131655008Y-124095751D01*
X131425000Y-124050000D01*
X130152082Y-124050000D01*
X130901041Y-123301041D01*
X131085298Y-123025281D01*
X131150000Y-122700000D01*
X131150000Y-122127082D01*
X131304633Y-121972449D01*
X131486864Y-121897153D01*
X131486287Y-121900000D01*
G36*
X115047326Y-121157482D02*
X115325000Y-121213713D01*
X115881833Y-121213713D01*
X115809650Y-121285770D01*
X115550296Y-121910366D01*
X115549706Y-122586667D01*
X115807970Y-123211715D01*
X116245490Y-123650000D01*
X115352081Y-123650000D01*
X114403350Y-122701268D01*
X114449704Y-122589634D01*
X114450294Y-121913333D01*
X114192030Y-121288285D01*
X114117588Y-121213713D01*
X114675000Y-121213713D01*
X114934404Y-121164903D01*
X114998151Y-121123883D01*
X115047326Y-121157482D01*
X115047326Y-121157482D01*
G37*
X115047326Y-121157482D02*
X115325000Y-121213713D01*
X115881833Y-121213713D01*
X115809650Y-121285770D01*
X115550296Y-121910366D01*
X115549706Y-122586667D01*
X115807970Y-123211715D01*
X116245490Y-123650000D01*
X115352081Y-123650000D01*
X114403350Y-122701268D01*
X114449704Y-122589634D01*
X114450294Y-121913333D01*
X114192030Y-121288285D01*
X114117588Y-121213713D01*
X114675000Y-121213713D01*
X114934404Y-121164903D01*
X114998151Y-121123883D01*
X115047326Y-121157482D01*
G36*
X129450000Y-122347918D02*
X128547918Y-123250000D01*
X128513713Y-123250000D01*
X128513713Y-123200000D01*
X128494206Y-123096328D01*
X128513713Y-123000000D01*
X128513713Y-122842344D01*
X128740685Y-122690685D01*
X129450000Y-121981370D01*
X129450000Y-122347918D01*
X129450000Y-122347918D01*
G37*
X129450000Y-122347918D02*
X128547918Y-123250000D01*
X128513713Y-123250000D01*
X128513713Y-123200000D01*
X128494206Y-123096328D01*
X128513713Y-123000000D01*
X128513713Y-122842344D01*
X128740685Y-122690685D01*
X129450000Y-121981370D01*
X129450000Y-122347918D01*
G36*
X122650000Y-122947918D02*
X122499741Y-122797659D01*
X122500260Y-122202941D01*
X122272380Y-121651428D01*
X122212620Y-121591563D01*
X122424713Y-121379839D01*
X122431079Y-121377936D01*
X122434385Y-121370185D01*
X122440350Y-121364230D01*
X122566900Y-121059462D01*
X122650000Y-120864610D01*
X122650000Y-122947918D01*
X122650000Y-122947918D01*
G37*
X122650000Y-122947918D02*
X122499741Y-122797659D01*
X122500260Y-122202941D01*
X122272380Y-121651428D01*
X122212620Y-121591563D01*
X122424713Y-121379839D01*
X122431079Y-121377936D01*
X122434385Y-121370185D01*
X122440350Y-121364230D01*
X122566900Y-121059462D01*
X122650000Y-120864610D01*
X122650000Y-122947918D01*
G36*
X117232592Y-118948854D02*
X117249719Y-118960298D01*
X117575000Y-119025000D01*
X117924787Y-119025000D01*
X117972326Y-119057482D01*
X118127494Y-119088905D01*
X118139702Y-119150281D01*
X118250000Y-119315354D01*
X118250000Y-120845483D01*
X118214230Y-120809650D01*
X118050000Y-120741456D01*
X118050000Y-120275000D01*
X117989104Y-119968853D01*
X117980687Y-119956256D01*
X117815686Y-119709315D01*
X117540685Y-119434315D01*
X117281147Y-119260896D01*
X116975000Y-119200000D01*
X116913780Y-119200000D01*
X116786595Y-119002349D01*
X116656872Y-118913713D01*
X117180000Y-118913713D01*
X117232592Y-118948854D01*
X117232592Y-118948854D01*
G37*
X117232592Y-118948854D02*
X117249719Y-118960298D01*
X117575000Y-119025000D01*
X117924787Y-119025000D01*
X117972326Y-119057482D01*
X118127494Y-119088905D01*
X118139702Y-119150281D01*
X118250000Y-119315354D01*
X118250000Y-120845483D01*
X118214230Y-120809650D01*
X118050000Y-120741456D01*
X118050000Y-120275000D01*
X117989104Y-119968853D01*
X117980687Y-119956256D01*
X117815686Y-119709315D01*
X117540685Y-119434315D01*
X117281147Y-119260896D01*
X116975000Y-119200000D01*
X116913780Y-119200000D01*
X116786595Y-119002349D01*
X116656872Y-118913713D01*
X117180000Y-118913713D01*
X117232592Y-118948854D01*
G36*
X130732806Y-117747264D02*
X131100215Y-117899826D01*
X131498040Y-117900173D01*
X131504624Y-117897453D01*
X131505794Y-117903672D01*
X131486287Y-118000000D01*
X131486287Y-118450000D01*
X131505794Y-118553672D01*
X131486287Y-118650000D01*
X131486287Y-119100000D01*
X131505794Y-119203672D01*
X131486287Y-119300000D01*
X131486287Y-119448790D01*
X131298959Y-119573959D01*
X130895367Y-119977551D01*
X130534286Y-120126747D01*
X130400000Y-120260799D01*
X130400000Y-117631370D01*
X130508652Y-117522718D01*
X130732806Y-117747264D01*
X130732806Y-117747264D01*
G37*
X130732806Y-117747264D02*
X131100215Y-117899826D01*
X131498040Y-117900173D01*
X131504624Y-117897453D01*
X131505794Y-117903672D01*
X131486287Y-118000000D01*
X131486287Y-118450000D01*
X131505794Y-118553672D01*
X131486287Y-118650000D01*
X131486287Y-119100000D01*
X131505794Y-119203672D01*
X131486287Y-119300000D01*
X131486287Y-119448790D01*
X131298959Y-119573959D01*
X130895367Y-119977551D01*
X130534286Y-120126747D01*
X130400000Y-120260799D01*
X130400000Y-117631370D01*
X130508652Y-117522718D01*
X130732806Y-117747264D01*
G36*
X139468602Y-119599972D02*
X139400000Y-119599913D01*
X139400000Y-119531371D01*
X139468602Y-119599972D01*
X139468602Y-119599972D01*
G37*
X139468602Y-119599972D02*
X139400000Y-119599913D01*
X139400000Y-119531371D01*
X139468602Y-119599972D01*
G36*
X123098959Y-114876041D02*
X123286287Y-115001210D01*
X123286287Y-115150000D01*
X123305794Y-115253672D01*
X123286287Y-115350000D01*
X123286287Y-115800000D01*
X123305794Y-115903672D01*
X123286287Y-116000000D01*
X123286287Y-116000162D01*
X123116683Y-116000014D01*
X123199826Y-115799785D01*
X123200173Y-115401960D01*
X123048253Y-115034286D01*
X122863470Y-114849180D01*
X122865714Y-114848253D01*
X122968532Y-114745614D01*
X123098959Y-114876041D01*
X123098959Y-114876041D01*
G37*
X123098959Y-114876041D02*
X123286287Y-115001210D01*
X123286287Y-115150000D01*
X123305794Y-115253672D01*
X123286287Y-115350000D01*
X123286287Y-115800000D01*
X123305794Y-115903672D01*
X123286287Y-116000000D01*
X123286287Y-116000162D01*
X123116683Y-116000014D01*
X123199826Y-115799785D01*
X123200173Y-115401960D01*
X123048253Y-115034286D01*
X122863470Y-114849180D01*
X122865714Y-114848253D01*
X122968532Y-114745614D01*
X123098959Y-114876041D01*
G36*
X116850000Y-114100000D02*
X116862098Y-114160820D01*
X116298959Y-114723959D01*
X116114702Y-114999719D01*
X116050000Y-115325000D01*
X116050000Y-115604073D01*
X115799785Y-115500174D01*
X115644408Y-115500038D01*
X115715542Y-115357771D01*
X115723134Y-115330047D01*
X115739104Y-115306147D01*
X115764119Y-115180387D01*
X115797988Y-115056711D01*
X115794393Y-115028191D01*
X115800000Y-115000000D01*
X115774984Y-114874233D01*
X115758946Y-114747018D01*
X115744712Y-114722048D01*
X115739104Y-114693853D01*
X115667867Y-114587240D01*
X115604364Y-114475838D01*
X115581652Y-114458211D01*
X115577898Y-114452593D01*
X115599826Y-114399785D01*
X115600173Y-114001960D01*
X115448253Y-113634286D01*
X115315979Y-113501781D01*
X115431952Y-113353597D01*
X115946875Y-112325320D01*
X116019382Y-112071517D01*
X115988979Y-111789843D01*
X115988551Y-111789072D01*
X116066480Y-111672442D01*
X116214355Y-111483497D01*
X116639726Y-110634050D01*
X116712232Y-110380248D01*
X116704097Y-110304882D01*
X116756159Y-110275957D01*
X116850000Y-110156053D01*
X116850000Y-114100000D01*
X116850000Y-114100000D01*
G37*
X116850000Y-114100000D02*
X116862098Y-114160820D01*
X116298959Y-114723959D01*
X116114702Y-114999719D01*
X116050000Y-115325000D01*
X116050000Y-115604073D01*
X115799785Y-115500174D01*
X115644408Y-115500038D01*
X115715542Y-115357771D01*
X115723134Y-115330047D01*
X115739104Y-115306147D01*
X115764119Y-115180387D01*
X115797988Y-115056711D01*
X115794393Y-115028191D01*
X115800000Y-115000000D01*
X115774984Y-114874233D01*
X115758946Y-114747018D01*
X115744712Y-114722048D01*
X115739104Y-114693853D01*
X115667867Y-114587240D01*
X115604364Y-114475838D01*
X115581652Y-114458211D01*
X115577898Y-114452593D01*
X115599826Y-114399785D01*
X115600173Y-114001960D01*
X115448253Y-113634286D01*
X115315979Y-113501781D01*
X115431952Y-113353597D01*
X115946875Y-112325320D01*
X116019382Y-112071517D01*
X115988979Y-111789843D01*
X115988551Y-111789072D01*
X116066480Y-111672442D01*
X116214355Y-111483497D01*
X116639726Y-110634050D01*
X116712232Y-110380248D01*
X116704097Y-110304882D01*
X116756159Y-110275957D01*
X116850000Y-110156053D01*
X116850000Y-114100000D01*
G36*
X138700215Y-113199826D02*
X138997832Y-113200086D01*
X138513713Y-113684205D01*
X138513713Y-113225000D01*
X138492768Y-113113686D01*
X138700215Y-113199826D01*
X138700215Y-113199826D01*
G37*
X138700215Y-113199826D02*
X138997832Y-113200086D01*
X138513713Y-113684205D01*
X138513713Y-113225000D01*
X138492768Y-113113686D01*
X138700215Y-113199826D01*
G36*
X126925000Y-112913713D02*
X127559205Y-112913713D01*
X126850000Y-113622918D01*
X126850000Y-112898525D01*
X126925000Y-112913713D01*
X126925000Y-112913713D01*
G37*
X126925000Y-112913713D02*
X127559205Y-112913713D01*
X126850000Y-113622918D01*
X126850000Y-112898525D01*
X126925000Y-112913713D01*
G36*
X133647326Y-112857482D02*
X133925000Y-112913713D01*
X134725000Y-112913713D01*
X134921104Y-112876814D01*
X134647918Y-113150000D01*
X133227082Y-113150000D01*
X133276041Y-113101041D01*
X133460298Y-112825281D01*
X133469739Y-112777817D01*
X133501150Y-112757605D01*
X133647326Y-112857482D01*
X133647326Y-112857482D01*
G37*
X133647326Y-112857482D02*
X133925000Y-112913713D01*
X134725000Y-112913713D01*
X134921104Y-112876814D01*
X134647918Y-113150000D01*
X133227082Y-113150000D01*
X133276041Y-113101041D01*
X133460298Y-112825281D01*
X133469739Y-112777817D01*
X133501150Y-112757605D01*
X133647326Y-112857482D01*
G36*
X121110097Y-103459404D02*
X121263405Y-103697651D01*
X121325000Y-103739737D01*
X121325000Y-104857742D01*
X121277349Y-104888405D01*
X121117518Y-105122326D01*
X121061287Y-105400000D01*
X121061287Y-106200000D01*
X121110097Y-106459404D01*
X121263405Y-106697651D01*
X121325000Y-106739737D01*
X121325000Y-107857742D01*
X121277349Y-107888405D01*
X121117518Y-108122326D01*
X121061287Y-108400000D01*
X121061287Y-109200000D01*
X121110097Y-109459404D01*
X121263405Y-109697651D01*
X121325000Y-109739737D01*
X121325000Y-110857742D01*
X121277349Y-110888405D01*
X121117518Y-111122326D01*
X121061287Y-111400000D01*
X121061287Y-112200000D01*
X121110097Y-112459404D01*
X121263405Y-112697651D01*
X121325000Y-112739737D01*
X121325000Y-112750000D01*
X121339918Y-112825000D01*
X119998391Y-112825000D01*
X119877674Y-112742518D01*
X119600000Y-112686287D01*
X118550000Y-112686287D01*
X118550000Y-107152082D01*
X119401041Y-106301041D01*
X119585298Y-106025281D01*
X119650000Y-105700000D01*
X119650000Y-104652082D01*
X121067747Y-103234335D01*
X121110097Y-103459404D01*
X121110097Y-103459404D01*
G37*
X121110097Y-103459404D02*
X121263405Y-103697651D01*
X121325000Y-103739737D01*
X121325000Y-104857742D01*
X121277349Y-104888405D01*
X121117518Y-105122326D01*
X121061287Y-105400000D01*
X121061287Y-106200000D01*
X121110097Y-106459404D01*
X121263405Y-106697651D01*
X121325000Y-106739737D01*
X121325000Y-107857742D01*
X121277349Y-107888405D01*
X121117518Y-108122326D01*
X121061287Y-108400000D01*
X121061287Y-109200000D01*
X121110097Y-109459404D01*
X121263405Y-109697651D01*
X121325000Y-109739737D01*
X121325000Y-110857742D01*
X121277349Y-110888405D01*
X121117518Y-111122326D01*
X121061287Y-111400000D01*
X121061287Y-112200000D01*
X121110097Y-112459404D01*
X121263405Y-112697651D01*
X121325000Y-112739737D01*
X121325000Y-112750000D01*
X121339918Y-112825000D01*
X119998391Y-112825000D01*
X119877674Y-112742518D01*
X119600000Y-112686287D01*
X118550000Y-112686287D01*
X118550000Y-107152082D01*
X119401041Y-106301041D01*
X119585298Y-106025281D01*
X119650000Y-105700000D01*
X119650000Y-104652082D01*
X121067747Y-103234335D01*
X121110097Y-103459404D01*
G36*
X139900000Y-112213713D02*
X139925000Y-112213713D01*
X139925000Y-112272918D01*
X139899915Y-112298003D01*
X139899988Y-112213711D01*
X139900000Y-112213713D01*
X139900000Y-112213713D01*
G37*
X139900000Y-112213713D02*
X139925000Y-112213713D01*
X139925000Y-112272918D01*
X139899915Y-112298003D01*
X139899988Y-112213711D01*
X139900000Y-112213713D01*
G36*
X137147326Y-109857482D02*
X137425000Y-109913713D01*
X137934137Y-109913713D01*
X137895636Y-110103833D01*
X137625000Y-110050000D01*
X134525005Y-110050000D01*
X134525000Y-110049999D01*
X134324999Y-110089782D01*
X134125000Y-110050000D01*
X131025005Y-110050000D01*
X131025000Y-110049999D01*
X130824999Y-110089782D01*
X130625000Y-110050000D01*
X127525005Y-110050000D01*
X127525000Y-110049999D01*
X127324999Y-110089782D01*
X127125000Y-110050000D01*
X124025005Y-110050000D01*
X124025000Y-110049999D01*
X123699719Y-110114702D01*
X123423959Y-110298959D01*
X123223959Y-110498959D01*
X123039702Y-110774719D01*
X123030261Y-110822183D01*
X123025000Y-110825568D01*
X123025000Y-109773900D01*
X123147326Y-109857482D01*
X123425000Y-109913713D01*
X124225000Y-109913713D01*
X124484404Y-109864903D01*
X124591293Y-109796121D01*
X124600215Y-109799826D01*
X124913343Y-109800099D01*
X124997326Y-109857482D01*
X125275000Y-109913713D01*
X126075000Y-109913713D01*
X126334404Y-109864903D01*
X126501150Y-109757605D01*
X126647326Y-109857482D01*
X126925000Y-109913713D01*
X127725000Y-109913713D01*
X127984404Y-109864903D01*
X128091293Y-109796121D01*
X128100215Y-109799826D01*
X128413343Y-109800099D01*
X128497326Y-109857482D01*
X128775000Y-109913713D01*
X129575000Y-109913713D01*
X129834404Y-109864903D01*
X130001150Y-109757605D01*
X130147326Y-109857482D01*
X130425000Y-109913713D01*
X131225000Y-109913713D01*
X131484404Y-109864903D01*
X131591293Y-109796121D01*
X131600215Y-109799826D01*
X131913343Y-109800099D01*
X131997326Y-109857482D01*
X132275000Y-109913713D01*
X133075000Y-109913713D01*
X133334404Y-109864903D01*
X133501150Y-109757605D01*
X133647326Y-109857482D01*
X133925000Y-109913713D01*
X134725000Y-109913713D01*
X134984404Y-109864903D01*
X135091293Y-109796121D01*
X135100215Y-109799826D01*
X135413343Y-109800099D01*
X135497326Y-109857482D01*
X135775000Y-109913713D01*
X136575000Y-109913713D01*
X136834404Y-109864903D01*
X137001150Y-109757605D01*
X137147326Y-109857482D01*
X137147326Y-109857482D01*
G37*
X137147326Y-109857482D02*
X137425000Y-109913713D01*
X137934137Y-109913713D01*
X137895636Y-110103833D01*
X137625000Y-110050000D01*
X134525005Y-110050000D01*
X134525000Y-110049999D01*
X134324999Y-110089782D01*
X134125000Y-110050000D01*
X131025005Y-110050000D01*
X131025000Y-110049999D01*
X130824999Y-110089782D01*
X130625000Y-110050000D01*
X127525005Y-110050000D01*
X127525000Y-110049999D01*
X127324999Y-110089782D01*
X127125000Y-110050000D01*
X124025005Y-110050000D01*
X124025000Y-110049999D01*
X123699719Y-110114702D01*
X123423959Y-110298959D01*
X123223959Y-110498959D01*
X123039702Y-110774719D01*
X123030261Y-110822183D01*
X123025000Y-110825568D01*
X123025000Y-109773900D01*
X123147326Y-109857482D01*
X123425000Y-109913713D01*
X124225000Y-109913713D01*
X124484404Y-109864903D01*
X124591293Y-109796121D01*
X124600215Y-109799826D01*
X124913343Y-109800099D01*
X124997326Y-109857482D01*
X125275000Y-109913713D01*
X126075000Y-109913713D01*
X126334404Y-109864903D01*
X126501150Y-109757605D01*
X126647326Y-109857482D01*
X126925000Y-109913713D01*
X127725000Y-109913713D01*
X127984404Y-109864903D01*
X128091293Y-109796121D01*
X128100215Y-109799826D01*
X128413343Y-109800099D01*
X128497326Y-109857482D01*
X128775000Y-109913713D01*
X129575000Y-109913713D01*
X129834404Y-109864903D01*
X130001150Y-109757605D01*
X130147326Y-109857482D01*
X130425000Y-109913713D01*
X131225000Y-109913713D01*
X131484404Y-109864903D01*
X131591293Y-109796121D01*
X131600215Y-109799826D01*
X131913343Y-109800099D01*
X131997326Y-109857482D01*
X132275000Y-109913713D01*
X133075000Y-109913713D01*
X133334404Y-109864903D01*
X133501150Y-109757605D01*
X133647326Y-109857482D01*
X133925000Y-109913713D01*
X134725000Y-109913713D01*
X134984404Y-109864903D01*
X135091293Y-109796121D01*
X135100215Y-109799826D01*
X135413343Y-109800099D01*
X135497326Y-109857482D01*
X135775000Y-109913713D01*
X136575000Y-109913713D01*
X136834404Y-109864903D01*
X137001150Y-109757605D01*
X137147326Y-109857482D01*
G36*
X137147326Y-106857482D02*
X137425000Y-106913713D01*
X137811631Y-106913713D01*
X138138150Y-107240232D01*
X137950281Y-107114702D01*
X137625000Y-107050000D01*
X134525005Y-107050000D01*
X134525000Y-107049999D01*
X134324999Y-107089782D01*
X134125000Y-107050000D01*
X131025005Y-107050000D01*
X131025000Y-107049999D01*
X130824999Y-107089782D01*
X130625000Y-107050000D01*
X127525005Y-107050000D01*
X127525000Y-107049999D01*
X127324999Y-107089782D01*
X127125000Y-107050000D01*
X124025005Y-107050000D01*
X124025000Y-107049999D01*
X123699719Y-107114702D01*
X123423959Y-107298959D01*
X123223959Y-107498959D01*
X123039702Y-107774719D01*
X123030261Y-107822183D01*
X123025000Y-107825568D01*
X123025000Y-106773900D01*
X123147326Y-106857482D01*
X123425000Y-106913713D01*
X124225000Y-106913713D01*
X124484404Y-106864903D01*
X124591293Y-106796121D01*
X124600215Y-106799826D01*
X124913343Y-106800099D01*
X124997326Y-106857482D01*
X125275000Y-106913713D01*
X126075000Y-106913713D01*
X126334404Y-106864903D01*
X126501150Y-106757605D01*
X126647326Y-106857482D01*
X126925000Y-106913713D01*
X127725000Y-106913713D01*
X127984404Y-106864903D01*
X128091293Y-106796121D01*
X128100215Y-106799826D01*
X128413343Y-106800099D01*
X128497326Y-106857482D01*
X128775000Y-106913713D01*
X129575000Y-106913713D01*
X129834404Y-106864903D01*
X130001150Y-106757605D01*
X130147326Y-106857482D01*
X130425000Y-106913713D01*
X131225000Y-106913713D01*
X131484404Y-106864903D01*
X131591293Y-106796121D01*
X131600215Y-106799826D01*
X131913343Y-106800099D01*
X131997326Y-106857482D01*
X132275000Y-106913713D01*
X133075000Y-106913713D01*
X133334404Y-106864903D01*
X133501150Y-106757605D01*
X133647326Y-106857482D01*
X133925000Y-106913713D01*
X134725000Y-106913713D01*
X134984404Y-106864903D01*
X135091293Y-106796121D01*
X135100215Y-106799826D01*
X135413343Y-106800099D01*
X135497326Y-106857482D01*
X135775000Y-106913713D01*
X136575000Y-106913713D01*
X136834404Y-106864903D01*
X137001150Y-106757605D01*
X137147326Y-106857482D01*
X137147326Y-106857482D01*
G37*
X137147326Y-106857482D02*
X137425000Y-106913713D01*
X137811631Y-106913713D01*
X138138150Y-107240232D01*
X137950281Y-107114702D01*
X137625000Y-107050000D01*
X134525005Y-107050000D01*
X134525000Y-107049999D01*
X134324999Y-107089782D01*
X134125000Y-107050000D01*
X131025005Y-107050000D01*
X131025000Y-107049999D01*
X130824999Y-107089782D01*
X130625000Y-107050000D01*
X127525005Y-107050000D01*
X127525000Y-107049999D01*
X127324999Y-107089782D01*
X127125000Y-107050000D01*
X124025005Y-107050000D01*
X124025000Y-107049999D01*
X123699719Y-107114702D01*
X123423959Y-107298959D01*
X123223959Y-107498959D01*
X123039702Y-107774719D01*
X123030261Y-107822183D01*
X123025000Y-107825568D01*
X123025000Y-106773900D01*
X123147326Y-106857482D01*
X123425000Y-106913713D01*
X124225000Y-106913713D01*
X124484404Y-106864903D01*
X124591293Y-106796121D01*
X124600215Y-106799826D01*
X124913343Y-106800099D01*
X124997326Y-106857482D01*
X125275000Y-106913713D01*
X126075000Y-106913713D01*
X126334404Y-106864903D01*
X126501150Y-106757605D01*
X126647326Y-106857482D01*
X126925000Y-106913713D01*
X127725000Y-106913713D01*
X127984404Y-106864903D01*
X128091293Y-106796121D01*
X128100215Y-106799826D01*
X128413343Y-106800099D01*
X128497326Y-106857482D01*
X128775000Y-106913713D01*
X129575000Y-106913713D01*
X129834404Y-106864903D01*
X130001150Y-106757605D01*
X130147326Y-106857482D01*
X130425000Y-106913713D01*
X131225000Y-106913713D01*
X131484404Y-106864903D01*
X131591293Y-106796121D01*
X131600215Y-106799826D01*
X131913343Y-106800099D01*
X131997326Y-106857482D01*
X132275000Y-106913713D01*
X133075000Y-106913713D01*
X133334404Y-106864903D01*
X133501150Y-106757605D01*
X133647326Y-106857482D01*
X133925000Y-106913713D01*
X134725000Y-106913713D01*
X134984404Y-106864903D01*
X135091293Y-106796121D01*
X135100215Y-106799826D01*
X135413343Y-106800099D01*
X135497326Y-106857482D01*
X135775000Y-106913713D01*
X136575000Y-106913713D01*
X136834404Y-106864903D01*
X137001150Y-106757605D01*
X137147326Y-106857482D01*
G36*
X133647326Y-103857482D02*
X133925000Y-103913713D01*
X134725000Y-103913713D01*
X134984404Y-103864903D01*
X135091293Y-103796121D01*
X135100215Y-103799826D01*
X135413343Y-103800099D01*
X135497326Y-103857482D01*
X135775000Y-103913713D01*
X136575000Y-103913713D01*
X136834404Y-103864903D01*
X136975000Y-103774432D01*
X136975000Y-104050000D01*
X134525005Y-104050000D01*
X134525000Y-104049999D01*
X134324999Y-104089782D01*
X134125000Y-104050000D01*
X131025005Y-104050000D01*
X131025000Y-104049999D01*
X130824999Y-104089782D01*
X130625000Y-104050000D01*
X127525005Y-104050000D01*
X127525000Y-104049999D01*
X127324999Y-104089782D01*
X127125000Y-104050000D01*
X124025005Y-104050000D01*
X124025000Y-104049999D01*
X123699719Y-104114702D01*
X123423959Y-104298959D01*
X123223959Y-104498959D01*
X123039702Y-104774719D01*
X123030261Y-104822183D01*
X123025000Y-104825568D01*
X123025000Y-103773900D01*
X123147326Y-103857482D01*
X123425000Y-103913713D01*
X124225000Y-103913713D01*
X124484404Y-103864903D01*
X124591293Y-103796121D01*
X124600215Y-103799826D01*
X124913343Y-103800099D01*
X124997326Y-103857482D01*
X125275000Y-103913713D01*
X126075000Y-103913713D01*
X126334404Y-103864903D01*
X126501150Y-103757605D01*
X126647326Y-103857482D01*
X126925000Y-103913713D01*
X127725000Y-103913713D01*
X127984404Y-103864903D01*
X128091293Y-103796121D01*
X128100215Y-103799826D01*
X128413343Y-103800099D01*
X128497326Y-103857482D01*
X128775000Y-103913713D01*
X129575000Y-103913713D01*
X129834404Y-103864903D01*
X130001150Y-103757605D01*
X130147326Y-103857482D01*
X130425000Y-103913713D01*
X131225000Y-103913713D01*
X131484404Y-103864903D01*
X131591293Y-103796121D01*
X131600215Y-103799826D01*
X131913343Y-103800099D01*
X131997326Y-103857482D01*
X132275000Y-103913713D01*
X133075000Y-103913713D01*
X133334404Y-103864903D01*
X133501150Y-103757605D01*
X133647326Y-103857482D01*
X133647326Y-103857482D01*
G37*
X133647326Y-103857482D02*
X133925000Y-103913713D01*
X134725000Y-103913713D01*
X134984404Y-103864903D01*
X135091293Y-103796121D01*
X135100215Y-103799826D01*
X135413343Y-103800099D01*
X135497326Y-103857482D01*
X135775000Y-103913713D01*
X136575000Y-103913713D01*
X136834404Y-103864903D01*
X136975000Y-103774432D01*
X136975000Y-104050000D01*
X134525005Y-104050000D01*
X134525000Y-104049999D01*
X134324999Y-104089782D01*
X134125000Y-104050000D01*
X131025005Y-104050000D01*
X131025000Y-104049999D01*
X130824999Y-104089782D01*
X130625000Y-104050000D01*
X127525005Y-104050000D01*
X127525000Y-104049999D01*
X127324999Y-104089782D01*
X127125000Y-104050000D01*
X124025005Y-104050000D01*
X124025000Y-104049999D01*
X123699719Y-104114702D01*
X123423959Y-104298959D01*
X123223959Y-104498959D01*
X123039702Y-104774719D01*
X123030261Y-104822183D01*
X123025000Y-104825568D01*
X123025000Y-103773900D01*
X123147326Y-103857482D01*
X123425000Y-103913713D01*
X124225000Y-103913713D01*
X124484404Y-103864903D01*
X124591293Y-103796121D01*
X124600215Y-103799826D01*
X124913343Y-103800099D01*
X124997326Y-103857482D01*
X125275000Y-103913713D01*
X126075000Y-103913713D01*
X126334404Y-103864903D01*
X126501150Y-103757605D01*
X126647326Y-103857482D01*
X126925000Y-103913713D01*
X127725000Y-103913713D01*
X127984404Y-103864903D01*
X128091293Y-103796121D01*
X128100215Y-103799826D01*
X128413343Y-103800099D01*
X128497326Y-103857482D01*
X128775000Y-103913713D01*
X129575000Y-103913713D01*
X129834404Y-103864903D01*
X130001150Y-103757605D01*
X130147326Y-103857482D01*
X130425000Y-103913713D01*
X131225000Y-103913713D01*
X131484404Y-103864903D01*
X131591293Y-103796121D01*
X131600215Y-103799826D01*
X131913343Y-103800099D01*
X131997326Y-103857482D01*
X132275000Y-103913713D01*
X133075000Y-103913713D01*
X133334404Y-103864903D01*
X133501150Y-103757605D01*
X133647326Y-103857482D01*
G36*
X141148716Y-103086287D02*
X140525000Y-103086287D01*
X140265596Y-103135097D01*
X140250000Y-103145133D01*
X140250000Y-102499869D01*
X140598040Y-102500173D01*
X140811549Y-102411953D01*
X141148716Y-103086287D01*
X141148716Y-103086287D01*
G37*
X141148716Y-103086287D02*
X140525000Y-103086287D01*
X140265596Y-103135097D01*
X140250000Y-103145133D01*
X140250000Y-102499869D01*
X140598040Y-102500173D01*
X140811549Y-102411953D01*
X141148716Y-103086287D01*
G36*
X123030187Y-100777444D02*
X123039702Y-100825281D01*
X123223959Y-101101041D01*
X123422918Y-101300000D01*
X123223959Y-101498959D01*
X123039702Y-101774719D01*
X123030261Y-101822183D01*
X123025000Y-101825568D01*
X123025000Y-100773900D01*
X123030187Y-100777444D01*
X123030187Y-100777444D01*
G37*
X123030187Y-100777444D02*
X123039702Y-100825281D01*
X123223959Y-101101041D01*
X123422918Y-101300000D01*
X123223959Y-101498959D01*
X123039702Y-101774719D01*
X123030261Y-101822183D01*
X123025000Y-101825568D01*
X123025000Y-100773900D01*
X123030187Y-100777444D01*
G36*
X137127951Y-98759321D02*
X136998850Y-98842395D01*
X136982766Y-98831406D01*
X137091495Y-98722866D01*
X137127951Y-98759321D01*
X137127951Y-98759321D01*
G37*
X137127951Y-98759321D02*
X136998850Y-98842395D01*
X136982766Y-98831406D01*
X137091495Y-98722866D01*
X137127951Y-98759321D01*
G36*
X126786287Y-98712388D02*
X126753529Y-98718551D01*
X126786287Y-98685793D01*
X126786287Y-98712388D01*
X126786287Y-98712388D01*
G37*
X126786287Y-98712388D02*
X126753529Y-98718551D01*
X126786287Y-98685793D01*
X126786287Y-98712388D01*
G36*
X125117916Y-97950000D02*
X123360605Y-97950000D01*
X123000000Y-97800263D01*
X123000000Y-97631370D01*
X123131371Y-97500000D01*
X125567916Y-97500000D01*
X125117916Y-97950000D01*
X125117916Y-97950000D01*
G37*
X125117916Y-97950000D02*
X123360605Y-97950000D01*
X123000000Y-97800263D01*
X123000000Y-97631370D01*
X123131371Y-97500000D01*
X125567916Y-97500000D01*
X125117916Y-97950000D01*
G36*
X132725602Y-96731973D02*
X132500000Y-96686287D01*
X132425000Y-96686287D01*
X132425000Y-96431371D01*
X132725602Y-96731973D01*
X132725602Y-96731973D01*
G37*
X132725602Y-96731973D02*
X132500000Y-96686287D01*
X132425000Y-96686287D01*
X132425000Y-96431371D01*
X132725602Y-96731973D01*
G36*
X122332558Y-95134315D02*
X121109474Y-96357400D01*
X120951382Y-96278233D01*
X122229615Y-95000000D01*
X122533574Y-95000000D01*
X122332558Y-95134315D01*
X122332558Y-95134315D01*
G37*
X122332558Y-95134315D02*
X121109474Y-96357400D01*
X120951382Y-96278233D01*
X122229615Y-95000000D01*
X122533574Y-95000000D01*
X122332558Y-95134315D01*
G36*
X139048618Y-96278233D02*
X138890526Y-96357399D01*
X137667441Y-95134315D01*
X137466426Y-95000000D01*
X137770386Y-95000000D01*
X139048618Y-96278233D01*
X139048618Y-96278233D01*
G37*
X139048618Y-96278233D02*
X138890526Y-96357399D01*
X137667441Y-95134315D01*
X137466426Y-95000000D01*
X137770386Y-95000000D01*
X139048618Y-96278233D01*
G36*
X140178018Y-95144892D02*
X138667441Y-93634315D01*
X138407903Y-93460896D01*
X138400402Y-93459404D01*
X138101756Y-93400000D01*
X137348212Y-93400000D01*
X137388713Y-93200000D01*
X137388713Y-92200000D01*
X137339903Y-91940596D01*
X137186595Y-91702349D01*
X136952674Y-91542518D01*
X136675000Y-91486287D01*
X136344866Y-91486287D01*
X135754251Y-90895673D01*
X135759650Y-90887771D01*
X135782212Y-90783766D01*
X135869605Y-90767322D01*
X136105711Y-90610737D01*
X136742107Y-89974341D01*
X136891020Y-89756401D01*
X136951081Y-89479530D01*
X136946676Y-89456119D01*
X136965714Y-89448253D01*
X137208512Y-89205879D01*
X140178018Y-95144892D01*
X140178018Y-95144892D01*
G37*
X140178018Y-95144892D02*
X138667441Y-93634315D01*
X138407903Y-93460896D01*
X138400402Y-93459404D01*
X138101756Y-93400000D01*
X137348212Y-93400000D01*
X137388713Y-93200000D01*
X137388713Y-92200000D01*
X137339903Y-91940596D01*
X137186595Y-91702349D01*
X136952674Y-91542518D01*
X136675000Y-91486287D01*
X136344866Y-91486287D01*
X135754251Y-90895673D01*
X135759650Y-90887771D01*
X135782212Y-90783766D01*
X135869605Y-90767322D01*
X136105711Y-90610737D01*
X136742107Y-89974341D01*
X136891020Y-89756401D01*
X136951081Y-89479530D01*
X136946676Y-89456119D01*
X136965714Y-89448253D01*
X137208512Y-89205879D01*
X140178018Y-95144892D01*
G36*
X123032806Y-89447264D02*
X123050084Y-89454439D01*
X123048919Y-89459810D01*
X123101308Y-89738235D01*
X123257893Y-89974341D01*
X123894289Y-90610737D01*
X124112229Y-90759650D01*
X124216234Y-90782212D01*
X124232678Y-90869605D01*
X124248285Y-90893137D01*
X124034315Y-91107107D01*
X123860896Y-91366645D01*
X123821781Y-91563291D01*
X123627349Y-91688405D01*
X123467518Y-91922326D01*
X123411287Y-92200000D01*
X123411287Y-93200000D01*
X123448919Y-93400000D01*
X121898244Y-93400000D01*
X121592097Y-93460896D01*
X121332559Y-93634314D01*
X119821981Y-95144892D01*
X122791606Y-89205643D01*
X123032806Y-89447264D01*
X123032806Y-89447264D01*
G37*
X123032806Y-89447264D02*
X123050084Y-89454439D01*
X123048919Y-89459810D01*
X123101308Y-89738235D01*
X123257893Y-89974341D01*
X123894289Y-90610737D01*
X124112229Y-90759650D01*
X124216234Y-90782212D01*
X124232678Y-90869605D01*
X124248285Y-90893137D01*
X124034315Y-91107107D01*
X123860896Y-91366645D01*
X123821781Y-91563291D01*
X123627349Y-91688405D01*
X123467518Y-91922326D01*
X123411287Y-92200000D01*
X123411287Y-93200000D01*
X123448919Y-93400000D01*
X121898244Y-93400000D01*
X121592097Y-93460896D01*
X121332559Y-93634314D01*
X119821981Y-95144892D01*
X122791606Y-89205643D01*
X123032806Y-89447264D01*
G36*
X130193630Y-94200000D02*
X129806370Y-94200000D01*
X130000000Y-94006370D01*
X130193630Y-94200000D01*
X130193630Y-94200000D01*
G37*
X130193630Y-94200000D02*
X129806370Y-94200000D01*
X130000000Y-94006370D01*
X130193630Y-94200000D01*
G36*
X133411287Y-93200000D02*
X133448919Y-93400000D01*
X133073900Y-93400000D01*
X133157482Y-93277674D01*
X133188400Y-93125000D01*
X133411287Y-93125000D01*
X133411287Y-93200000D01*
X133411287Y-93200000D01*
G37*
X133411287Y-93200000D02*
X133448919Y-93400000D01*
X133073900Y-93400000D01*
X133157482Y-93277674D01*
X133188400Y-93125000D01*
X133411287Y-93125000D01*
X133411287Y-93200000D01*
G36*
X136405575Y-87600005D02*
X136201960Y-87599827D01*
X135834286Y-87751747D01*
X135552736Y-88032806D01*
X135545561Y-88050084D01*
X135540190Y-88048919D01*
X135261765Y-88101308D01*
X135025659Y-88257893D01*
X134389263Y-88894289D01*
X134240350Y-89112229D01*
X134217788Y-89216234D01*
X134130395Y-89232678D01*
X133894289Y-89389263D01*
X133257893Y-90025659D01*
X133108980Y-90243599D01*
X133048919Y-90520470D01*
X133101308Y-90798895D01*
X133257893Y-91035001D01*
X133747892Y-91525000D01*
X133190193Y-91525000D01*
X133164903Y-91390596D01*
X133011595Y-91152349D01*
X132777674Y-90992518D01*
X132500000Y-90936287D01*
X132050000Y-90936287D01*
X131946328Y-90955794D01*
X131850000Y-90936287D01*
X131400000Y-90936287D01*
X131296328Y-90955794D01*
X131200000Y-90936287D01*
X130750000Y-90936287D01*
X130646328Y-90955794D01*
X130550000Y-90936287D01*
X130100000Y-90936287D01*
X129996328Y-90955794D01*
X129900000Y-90936287D01*
X129450000Y-90936287D01*
X129346328Y-90955794D01*
X129250000Y-90936287D01*
X128800000Y-90936287D01*
X128696328Y-90955794D01*
X128600000Y-90936287D01*
X128401096Y-90936287D01*
X128400144Y-90934862D01*
X128400173Y-90901960D01*
X128248253Y-90534286D01*
X127967194Y-90252736D01*
X127599785Y-90100174D01*
X127201960Y-90099827D01*
X126879624Y-90233014D01*
X126742107Y-90025659D01*
X126105711Y-89389263D01*
X125887771Y-89240350D01*
X125783766Y-89217788D01*
X125767322Y-89130395D01*
X125610737Y-88894289D01*
X124974341Y-88257893D01*
X124756401Y-88108980D01*
X124479530Y-88048919D01*
X124456119Y-88053324D01*
X124448253Y-88034286D01*
X124400718Y-87986667D01*
X128299706Y-87986667D01*
X128557970Y-88611715D01*
X129035770Y-89090350D01*
X129660366Y-89349704D01*
X130336667Y-89350294D01*
X130961715Y-89092030D01*
X131440350Y-88614230D01*
X131699704Y-87989634D01*
X131700294Y-87313333D01*
X131442030Y-86688285D01*
X130964230Y-86209650D01*
X130339634Y-85950296D01*
X129663333Y-85949706D01*
X129038285Y-86207970D01*
X128559650Y-86685770D01*
X128300296Y-87310366D01*
X128299706Y-87986667D01*
X124400718Y-87986667D01*
X124167194Y-87752736D01*
X123799785Y-87600174D01*
X123594430Y-87599995D01*
X124494428Y-85800000D01*
X135505572Y-85800000D01*
X136405575Y-87600005D01*
X136405575Y-87600005D01*
G37*
X136405575Y-87600005D02*
X136201960Y-87599827D01*
X135834286Y-87751747D01*
X135552736Y-88032806D01*
X135545561Y-88050084D01*
X135540190Y-88048919D01*
X135261765Y-88101308D01*
X135025659Y-88257893D01*
X134389263Y-88894289D01*
X134240350Y-89112229D01*
X134217788Y-89216234D01*
X134130395Y-89232678D01*
X133894289Y-89389263D01*
X133257893Y-90025659D01*
X133108980Y-90243599D01*
X133048919Y-90520470D01*
X133101308Y-90798895D01*
X133257893Y-91035001D01*
X133747892Y-91525000D01*
X133190193Y-91525000D01*
X133164903Y-91390596D01*
X133011595Y-91152349D01*
X132777674Y-90992518D01*
X132500000Y-90936287D01*
X132050000Y-90936287D01*
X131946328Y-90955794D01*
X131850000Y-90936287D01*
X131400000Y-90936287D01*
X131296328Y-90955794D01*
X131200000Y-90936287D01*
X130750000Y-90936287D01*
X130646328Y-90955794D01*
X130550000Y-90936287D01*
X130100000Y-90936287D01*
X129996328Y-90955794D01*
X129900000Y-90936287D01*
X129450000Y-90936287D01*
X129346328Y-90955794D01*
X129250000Y-90936287D01*
X128800000Y-90936287D01*
X128696328Y-90955794D01*
X128600000Y-90936287D01*
X128401096Y-90936287D01*
X128400144Y-90934862D01*
X128400173Y-90901960D01*
X128248253Y-90534286D01*
X127967194Y-90252736D01*
X127599785Y-90100174D01*
X127201960Y-90099827D01*
X126879624Y-90233014D01*
X126742107Y-90025659D01*
X126105711Y-89389263D01*
X125887771Y-89240350D01*
X125783766Y-89217788D01*
X125767322Y-89130395D01*
X125610737Y-88894289D01*
X124974341Y-88257893D01*
X124756401Y-88108980D01*
X124479530Y-88048919D01*
X124456119Y-88053324D01*
X124448253Y-88034286D01*
X124400718Y-87986667D01*
X128299706Y-87986667D01*
X128557970Y-88611715D01*
X129035770Y-89090350D01*
X129660366Y-89349704D01*
X130336667Y-89350294D01*
X130961715Y-89092030D01*
X131440350Y-88614230D01*
X131699704Y-87989634D01*
X131700294Y-87313333D01*
X131442030Y-86688285D01*
X130964230Y-86209650D01*
X130339634Y-85950296D01*
X129663333Y-85949706D01*
X129038285Y-86207970D01*
X128559650Y-86685770D01*
X128300296Y-87310366D01*
X128299706Y-87986667D01*
X124400718Y-87986667D01*
X124167194Y-87752736D01*
X123799785Y-87600174D01*
X123594430Y-87599995D01*
X124494428Y-85800000D01*
X135505572Y-85800000D01*
X136405575Y-87600005D01*
G36*
X126477609Y-91486287D02*
X126290821Y-91486287D01*
X126422996Y-91354112D01*
X126477609Y-91486287D01*
X126477609Y-91486287D01*
G37*
X126477609Y-91486287D02*
X126290821Y-91486287D01*
X126422996Y-91354112D01*
X126477609Y-91486287D01*
M02*
