  0
SECTION
  2
HEADER
  9
$ANGBASE
  50
0.0
  9
$ANGDIR
  70
  1
  9
$MEASUREMENT
  70
0
  0
ENDSEC
  0
SECTION
  2
TABLES
  0
TABLE
  2
LTYPE
  70
1
  0
LTYPE
  2
CONTINUOUS
  70
0
  3
Solid line
  72
65
  73
0
  40
0.0
  0
ENDTAB
  0
TABLE
  2
STYLE
  70
4
  0
STYLE
  2
KICAD
  70
0
  40
0
  41
1
  42
1
  50
0
  71
0
  3
isocp.shx
  0
STYLE
  2
KICADB
  70
0
  40
0
  41
1
  42
1
  50
0
  71
0
  3
isocp.shx
  0
STYLE
  2
KICADI
  70
0
  40
0
  41
1
  42
1
  50
15
  71
0
  3
isocp.shx
  0
STYLE
  2
KICADBI
  70
0
  40
0
  41
1
  42
1
  50
15
  71
0
  3
isocp.shx
  0
ENDTAB
  0
TABLE
  2
LAYER
  70
30
  0
LAYER
  2
BLACK
  70
0
  62
7
  6
CONTINUOUS
  0
LAYER
  2
GRAY1
  70
0
  62
251
  6
CONTINUOUS
  0
LAYER
  2
GRAY2
  70
0
  62
8
  6
CONTINUOUS
  0
LAYER
  2
GRAY3
  70
0
  62
9
  6
CONTINUOUS
  0
LAYER
  2
WHITE
  70
0
  62
7
  6
CONTINUOUS
  0
LAYER
  2
LYELLOW
  70
0
  62
51
  6
CONTINUOUS
  0
LAYER
  2
BLUE1
  70
0
  62
178
  6
CONTINUOUS
  0
LAYER
  2
GREEN1
  70
0
  62
98
  6
CONTINUOUS
  0
LAYER
  2
CYAN1
  70
0
  62
138
  6
CONTINUOUS
  0
LAYER
  2
RED1
  70
0
  62
18
  6
CONTINUOUS
  0
LAYER
  2
MAGENTA1
  70
0
  62
228
  6
CONTINUOUS
  0
LAYER
  2
BROWN1
  70
0
  62
58
  6
CONTINUOUS
  0
LAYER
  2
BLUE2
  70
0
  62
5
  6
CONTINUOUS
  0
LAYER
  2
GREEN2
  70
0
  62
3
  6
CONTINUOUS
  0
LAYER
  2
CYAN2
  70
0
  62
4
  6
CONTINUOUS
  0
LAYER
  2
RED2
  70
0
  62
1
  6
CONTINUOUS
  0
LAYER
  2
MAGENTA2
  70
0
  62
6
  6
CONTINUOUS
  0
LAYER
  2
BROWN2
  70
0
  62
54
  6
CONTINUOUS
  0
LAYER
  2
BLUE3
  70
0
  62
171
  6
CONTINUOUS
  0
LAYER
  2
GREEN3
  70
0
  62
91
  6
CONTINUOUS
  0
LAYER
  2
CYAN3
  70
0
  62
131
  6
CONTINUOUS
  0
LAYER
  2
RED3
  70
0
  62
11
  6
CONTINUOUS
  0
LAYER
  2
MAGENTA3
  70
0
  62
221
  6
CONTINUOUS
  0
LAYER
  2
YELLOW3
  70
0
  62
2
  6
CONTINUOUS
  0
LAYER
  2
BLUE4
  70
0
  62
5
  6
CONTINUOUS
  0
LAYER
  2
GREEN4
  70
0
  62
3
  6
CONTINUOUS
  0
LAYER
  2
CYAN4
  70
0
  62
4
  6
CONTINUOUS
  0
LAYER
  2
RED4
  70
0
  62
1
  6
CONTINUOUS
  0
LAYER
  2
MAGENTA4
  70
0
  62
6
  6
CONTINUOUS
  0
LAYER
  2
YELLOW4
  70
0
  62
2
  6
CONTINUOUS
  0
ENDTAB
  0
ENDSEC
  0
SECTION
  2
ENTITIES
0
LINE
8
Black
10
125.175
20
-134
11
124.225
21
-134
0
LINE
8
Black
10
124.225
20
-134
11
124.225
21
-133
0
LINE
8
Black
10
124.225
20
-133
11
125.175
21
-133
0
LINE
8
Black
10
125.175
20
-133
11
125.175
21
-134
0
LINE
8
Black
10
126.775
20
-134
11
125.825
21
-134
0
LINE
8
Black
10
125.825
20
-134
11
125.825
21
-133
0
LINE
8
Black
10
125.825
20
-133
11
126.775
21
-133
0
LINE
8
Black
10
126.775
20
-133
11
126.775
21
-134
0
LINE
8
Black
10
133.675
20
-133.9
11
132.725
21
-133.9
0
LINE
8
Black
10
132.725
20
-133.9
11
132.725
21
-132.9
0
LINE
8
Black
10
132.725
20
-132.9
11
133.675
21
-132.9
0
LINE
8
Black
10
133.675
20
-132.9
11
133.675
21
-133.9
0
LINE
8
Black
10
135.275
20
-133.9
11
134.325
21
-133.9
0
LINE
8
Black
10
134.325
20
-133.9
11
134.325
21
-132.9
0
LINE
8
Black
10
134.325
20
-132.9
11
135.275
21
-132.9
0
LINE
8
Black
10
135.275
20
-132.9
11
135.275
21
-133.9
0
LINE
8
Black
10
134.3
20
-132.15
11
133.7
21
-132.15
0
LINE
8
Black
10
133.7
20
-132.15
11
133.7
21
-131.15
0
LINE
8
Black
10
133.7
20
-131.15
11
134.3
21
-131.15
0
LINE
8
Black
10
134.3
20
-131.15
11
134.3
21
-132.15
0
LINE
8
Black
10
126.65
20
-131.85
11
125.85
21
-131.85
0
LINE
8
Black
10
125.85
20
-131.85
11
125.85
21
-130.15
0
LINE
8
Black
10
125.85
20
-130.15
11
126.65
21
-130.15
0
LINE
8
Black
10
126.65
20
-130.15
11
126.65
21
-131.85
0
LINE
8
Black
10
125.15
20
-131.85
11
124.35
21
-131.85
0
LINE
8
Black
10
124.35
20
-131.85
11
124.35
21
-130.15
0
LINE
8
Black
10
124.35
20
-130.15
11
125.15
21
-130.15
0
LINE
8
Black
10
125.15
20
-130.15
11
125.15
21
-131.85
0
LINE
8
Black
10
129.675
20
-130
11
128.725
21
-130
0
LINE
8
Black
10
128.725
20
-130
11
128.725
21
-129
0
LINE
8
Black
10
128.725
20
-129
11
129.675
21
-129
0
LINE
8
Black
10
129.675
20
-129
11
129.675
21
-130
0
LINE
8
Black
10
131.275
20
-130
11
130.325
21
-130
0
LINE
8
Black
10
130.325
20
-130
11
130.325
21
-129
0
LINE
8
Black
10
130.325
20
-129
11
131.275
21
-129
0
LINE
8
Black
10
131.275
20
-129
11
131.275
21
-130
0
LINE
8
Black
10
133.35
20
-129.85
11
132.75
21
-129.85
0
LINE
8
Black
10
132.75
20
-129.85
11
132.75
21
-128.85
0
LINE
8
Black
10
132.75
20
-128.85
11
133.35
21
-128.85
0
LINE
8
Black
10
133.35
20
-128.85
11
133.35
21
-129.85
0
LINE
8
Black
10
135.25
20
-129.85
11
134.65
21
-129.85
0
LINE
8
Black
10
134.65
20
-129.85
11
134.65
21
-128.85
0
LINE
8
Black
10
134.65
20
-128.85
11
135.25
21
-128.85
0
LINE
8
Black
10
135.25
20
-128.85
11
135.25
21
-129.85
0
LINE
8
Black
10
125.075
20
-129.05
11
124.125
21
-129.05
0
LINE
8
Black
10
124.125
20
-129.05
11
124.125
21
-128.65
0
LINE
8
Black
10
124.125
20
-128.65
11
125.075
21
-128.65
0
LINE
8
Black
10
125.075
20
-128.65
11
125.075
21
-129.05
0
LINE
8
Black
10
127.275
20
-129.05
11
126.325
21
-129.05
0
LINE
8
Black
10
126.325
20
-129.05
11
126.325
21
-128.65
0
LINE
8
Black
10
126.325
20
-128.65
11
127.275
21
-128.65
0
LINE
8
Black
10
127.275
20
-128.65
11
127.275
21
-129.05
0
LINE
8
Black
10
150.708
20
-128.276
11
149.546
21
-128.858
0
LINE
8
Black
10
149.546
20
-128.858
11
149.109
21
-127.986
0
LINE
8
Black
10
149.109
20
-127.986
11
150.272
21
-127.404
0
LINE
8
Black
10
150.272
20
-127.404
11
150.708
21
-128.276
0
LINE
8
Black
10
127.275
20
-128.4
11
126.325
21
-128.4
0
LINE
8
Black
10
126.325
20
-128.4
11
126.325
21
-128
0
LINE
8
Black
10
126.325
20
-128
11
127.275
21
-128
0
LINE
8
Black
10
127.275
20
-128
11
127.275
21
-128.4
0
LINE
8
Black
10
125.075
20
-128.4
11
124.125
21
-128.4
0
LINE
8
Black
10
124.125
20
-128.4
11
124.125
21
-128
0
LINE
8
Black
10
124.125
20
-128
11
125.075
21
-128
0
LINE
8
Black
10
125.075
20
-128
11
125.075
21
-128.4
0
LINE
8
Black
10
135.275
20
-128.1
11
134.325
21
-128.1
0
LINE
8
Black
10
134.325
20
-128.1
11
134.325
21
-127.1
0
LINE
8
Black
10
134.325
20
-127.1
11
135.275
21
-127.1
0
LINE
8
Black
10
135.275
20
-127.1
11
135.275
21
-128.1
0
LINE
8
Black
10
133.675
20
-128.1
11
132.725
21
-128.1
0
LINE
8
Black
10
132.725
20
-128.1
11
132.725
21
-127.1
0
LINE
8
Black
10
132.725
20
-127.1
11
133.675
21
-127.1
0
LINE
8
Black
10
133.675
20
-127.1
11
133.675
21
-128.1
0
LINE
8
Black
10
131.275
20
-128
11
130.325
21
-128
0
LINE
8
Black
10
130.325
20
-128
11
130.325
21
-127
0
LINE
8
Black
10
130.325
20
-127
11
131.275
21
-127
0
LINE
8
Black
10
131.275
20
-127
11
131.275
21
-128
0
LINE
8
Black
10
129.675
20
-128
11
128.725
21
-128
0
LINE
8
Black
10
128.725
20
-128
11
128.725
21
-127
0
LINE
8
Black
10
128.725
20
-127
11
129.675
21
-127
0
LINE
8
Black
10
129.675
20
-127
11
129.675
21
-128
0
LINE
8
Black
10
147.275
20
-127.339
11
146.068
21
-127.943
0
LINE
8
Black
10
146.068
20
-127.943
11
145.889
21
-127.586
0
LINE
8
Black
10
145.889
20
-127.586
11
147.096
21
-126.981
0
LINE
8
Black
10
147.096
20
-126.981
11
147.275
21
-127.339
0
LINE
8
Black
10
125.075
20
-127.75
11
124.125
21
-127.75
0
LINE
8
Black
10
124.125
20
-127.75
11
124.125
21
-127.35
0
LINE
8
Black
10
124.125
20
-127.35
11
125.075
21
-127.35
0
LINE
8
Black
10
125.075
20
-127.35
11
125.075
21
-127.75
0
LINE
8
Black
10
127.275
20
-127.75
11
126.325
21
-127.75
0
LINE
8
Black
10
126.325
20
-127.75
11
126.325
21
-127.35
0
LINE
8
Black
10
126.325
20
-127.35
11
127.275
21
-127.35
0
LINE
8
Black
10
127.275
20
-127.35
11
127.275
21
-127.75
0
LINE
8
Black
10
146.984
20
-126.758
11
145.777
21
-127.362
0
LINE
8
Black
10
145.777
20
-127.362
11
145.598
21
-127.005
0
LINE
8
Black
10
145.598
20
-127.005
11
146.805
21
-126.4
0
LINE
8
Black
10
146.805
20
-126.4
11
146.984
21
-126.758
0
LINE
8
Black
10
149.824
20
-126.398
11
148.572
21
-127.025
0
LINE
8
Black
10
148.572
20
-127.025
11
147.99
21
-125.863
0
LINE
8
Black
10
147.99
20
-125.863
11
149.242
21
-125.236
0
LINE
8
Black
10
149.242
20
-125.236
11
149.824
21
-126.398
0
LINE
8
Black
10
146.693
20
-126.177
11
145.486
21
-126.781
0
LINE
8
Black
10
145.486
20
-126.781
11
145.307
21
-126.423
0
LINE
8
Black
10
145.307
20
-126.423
11
146.514
21
-125.819
0
LINE
8
Black
10
146.514
20
-125.819
11
146.693
21
-126.177
0
LINE
8
Black
10
125.275
20
-126.6
11
124.325
21
-126.6
0
LINE
8
Black
10
124.325
20
-126.6
11
124.325
21
-125.6
0
LINE
8
Black
10
124.325
20
-125.6
11
125.275
21
-125.6
0
LINE
8
Black
10
125.275
20
-125.6
11
125.275
21
-126.6
0
LINE
8
Black
10
126.875
20
-126.6
11
125.925
21
-126.6
0
LINE
8
Black
10
125.925
20
-126.6
11
125.925
21
-125.6
0
LINE
8
Black
10
125.925
20
-125.6
11
126.875
21
-125.6
0
LINE
8
Black
10
126.875
20
-125.6
11
126.875
21
-126.6
0
LINE
8
Black
10
146.402
20
-125.595
11
145.195
21
-126.2
0
LINE
8
Black
10
145.195
20
-126.2
11
145.016
21
-125.842
0
LINE
8
Black
10
145.016
20
-125.842
11
146.223
21
-125.238
0
LINE
8
Black
10
146.223
20
-125.238
11
146.402
21
-125.595
0
LINE
8
Black
10
146.111
20
-125.014
11
144.904
21
-125.619
0
LINE
8
Black
10
144.904
20
-125.619
11
144.725
21
-125.261
0
LINE
8
Black
10
144.725
20
-125.261
11
145.932
21
-124.657
0
LINE
8
Black
10
145.932
20
-124.657
11
146.111
21
-125.014
0
LINE
8
Black
10
148.794
20
-124.342
11
147.542
21
-124.969
0
LINE
8
Black
10
147.542
20
-124.969
11
146.96
21
-123.806
0
LINE
8
Black
10
146.96
20
-123.806
11
148.212
21
-123.179
0
LINE
8
Black
10
148.212
20
-123.179
11
148.794
21
-124.342
0
LINE
8
Black
10
127.8
20
-123.65
11
126.45
21
-123.65
0
LINE
8
Black
10
126.45
20
-123.65
11
126.45
21
-123.2
0
LINE
8
Black
10
126.45
20
-123.2
11
127.8
21
-123.2
0
LINE
8
Black
10
127.8
20
-123.2
11
127.8
21
-123.65
0
LINE
8
Black
10
133.55
20
-123.65
11
132.2
21
-123.65
0
LINE
8
Black
10
132.2
20
-123.65
11
132.2
21
-123.2
0
LINE
8
Black
10
132.2
20
-123.2
11
133.55
21
-123.2
0
LINE
8
Black
10
133.55
20
-123.2
11
133.55
21
-123.65
0
LINE
8
Black
10
127.8
20
-123
11
126.45
21
-123
0
LINE
8
Black
10
126.45
20
-123
11
126.45
21
-122.55
0
LINE
8
Black
10
126.45
20
-122.55
11
127.8
21
-122.55
0
LINE
8
Black
10
127.8
20
-122.55
11
127.8
21
-123
0
LINE
8
Black
10
133.55
20
-123
11
132.2
21
-123
0
LINE
8
Black
10
132.2
20
-123
11
132.2
21
-122.55
0
LINE
8
Black
10
132.2
20
-122.55
11
133.55
21
-122.55
0
LINE
8
Black
10
133.55
20
-122.55
11
133.55
21
-123
0
LINE
8
Black
10
147.675
20
-122.218
11
146.512
21
-122.8
0
LINE
8
Black
10
146.512
20
-122.8
11
146.076
21
-121.928
0
LINE
8
Black
10
146.076
20
-121.928
11
147.238
21
-121.346
0
LINE
8
Black
10
147.238
20
-121.346
11
147.675
21
-122.218
0
LINE
8
Black
10
135.5
20
-122.375
11
134.5
21
-122.375
0
LINE
8
Black
10
134.5
20
-122.375
11
134.5
21
-121.425
0
LINE
8
Black
10
134.5
20
-121.425
11
135.5
21
-121.425
0
LINE
8
Black
10
135.5
20
-121.425
11
135.5
21
-122.375
0
LINE
8
Black
10
137.5
20
-122.375
11
136.5
21
-122.375
0
LINE
8
Black
10
136.5
20
-122.375
11
136.5
21
-121.425
0
LINE
8
Black
10
136.5
20
-121.425
11
137.5
21
-121.425
0
LINE
8
Black
10
137.5
20
-121.425
11
137.5
21
-122.375
0
LINE
8
Black
10
127.8
20
-122.35
11
126.45
21
-122.35
0
LINE
8
Black
10
126.45
20
-122.35
11
126.45
21
-121.9
0
LINE
8
Black
10
126.45
20
-121.9
11
127.8
21
-121.9
0
LINE
8
Black
10
127.8
20
-121.9
11
127.8
21
-122.35
0
LINE
8
Black
10
133.55
20
-122.35
11
132.2
21
-122.35
0
LINE
8
Black
10
132.2
20
-122.35
11
132.2
21
-121.9
0
LINE
8
Black
10
132.2
20
-121.9
11
133.55
21
-121.9
0
LINE
8
Black
10
133.55
20
-121.9
11
133.55
21
-122.35
0
LINE
8
Black
10
125.5
20
-122.275
11
124.5
21
-122.275
0
LINE
8
Black
10
124.5
20
-122.275
11
124.5
21
-121.325
0
LINE
8
Black
10
124.5
20
-121.325
11
125.5
21
-121.325
0
LINE
8
Black
10
125.5
20
-121.325
11
125.5
21
-122.275
0
LINE
8
Black
10
133.55
20
-121.7
11
132.2
21
-121.7
0
LINE
8
Black
10
132.2
20
-121.7
11
132.2
21
-121.25
0
LINE
8
Black
10
132.2
20
-121.25
11
133.55
21
-121.25
0
LINE
8
Black
10
133.55
20
-121.25
11
133.55
21
-121.7
0
LINE
8
Black
10
127.8
20
-121.7
11
126.45
21
-121.7
0
LINE
8
Black
10
126.45
20
-121.7
11
126.45
21
-121.25
0
LINE
8
Black
10
126.45
20
-121.25
11
127.8
21
-121.25
0
LINE
8
Black
10
127.8
20
-121.25
11
127.8
21
-121.7
0
LINE
8
Black
10
133.55
20
-121.05
11
132.2
21
-121.05
0
LINE
8
Black
10
132.2
20
-121.05
11
132.2
21
-120.6
0
LINE
8
Black
10
132.2
20
-120.6
11
133.55
21
-120.6
0
LINE
8
Black
10
133.55
20
-120.6
11
133.55
21
-121.05
0
LINE
8
Black
10
127.8
20
-121.05
11
126.45
21
-121.05
0
LINE
8
Black
10
126.45
20
-121.05
11
126.45
21
-120.6
0
LINE
8
Black
10
126.45
20
-120.6
11
127.8
21
-120.6
0
LINE
8
Black
10
127.8
20
-120.6
11
127.8
21
-121.05
0
LINE
8
Black
10
137.5
20
-120.775
11
136.5
21
-120.775
0
LINE
8
Black
10
136.5
20
-120.775
11
136.5
21
-119.825
0
LINE
8
Black
10
136.5
20
-119.825
11
137.5
21
-119.825
0
LINE
8
Black
10
137.5
20
-119.825
11
137.5
21
-120.775
0
LINE
8
Black
10
135.5
20
-120.775
11
134.5
21
-120.775
0
LINE
8
Black
10
134.5
20
-120.775
11
134.5
21
-119.825
0
LINE
8
Black
10
134.5
20
-119.825
11
135.5
21
-119.825
0
LINE
8
Black
10
135.5
20
-119.825
11
135.5
21
-120.775
0
LINE
8
Black
10
125.5
20
-120.675
11
124.5
21
-120.675
0
LINE
8
Black
10
124.5
20
-120.675
11
124.5
21
-119.725
0
LINE
8
Black
10
124.5
20
-119.725
11
125.5
21
-119.725
0
LINE
8
Black
10
125.5
20
-119.725
11
125.5
21
-120.675
0
LINE
8
Black
10
114.675
20
-120.5
11
113.725
21
-120.5
0
LINE
8
Black
10
113.725
20
-120.5
11
113.725
21
-119.5
0
LINE
8
Black
10
113.725
20
-119.5
11
114.675
21
-119.5
0
LINE
8
Black
10
114.675
20
-119.5
11
114.675
21
-120.5
0
LINE
8
Black
10
116.275
20
-120.5
11
115.325
21
-120.5
0
LINE
8
Black
10
115.325
20
-120.5
11
115.325
21
-119.5
0
LINE
8
Black
10
115.325
20
-119.5
11
116.275
21
-119.5
0
LINE
8
Black
10
116.275
20
-119.5
11
116.275
21
-120.5
0
LINE
8
Black
10
133.55
20
-120.4
11
132.2
21
-120.4
0
LINE
8
Black
10
132.2
20
-120.4
11
132.2
21
-119.95
0
LINE
8
Black
10
132.2
20
-119.95
11
133.55
21
-119.95
0
LINE
8
Black
10
133.55
20
-119.95
11
133.55
21
-120.4
0
LINE
8
Black
10
127.8
20
-120.4
11
126.45
21
-120.4
0
LINE
8
Black
10
126.45
20
-120.4
11
126.45
21
-119.95
0
LINE
8
Black
10
126.45
20
-119.95
11
127.8
21
-119.95
0
LINE
8
Black
10
127.8
20
-119.95
11
127.8
21
-120.4
0
LINE
8
Black
10
127.8
20
-119.75
11
126.45
21
-119.75
0
LINE
8
Black
10
126.45
20
-119.75
11
126.45
21
-119.3
0
LINE
8
Black
10
126.45
20
-119.3
11
127.8
21
-119.3
0
LINE
8
Black
10
127.8
20
-119.3
11
127.8
21
-119.75
0
LINE
8
Black
10
133.55
20
-119.75
11
132.2
21
-119.75
0
LINE
8
Black
10
132.2
20
-119.75
11
132.2
21
-119.3
0
LINE
8
Black
10
132.2
20
-119.3
11
133.55
21
-119.3
0
LINE
8
Black
10
133.55
20
-119.3
11
133.55
21
-119.75
0
LINE
8
Black
10
127.8
20
-119.1
11
126.45
21
-119.1
0
LINE
8
Black
10
126.45
20
-119.1
11
126.45
21
-118.65
0
LINE
8
Black
10
126.45
20
-118.65
11
127.8
21
-118.65
0
LINE
8
Black
10
127.8
20
-118.65
11
127.8
21
-119.1
0
LINE
8
Black
10
133.55
20
-119.1
11
132.2
21
-119.1
0
LINE
8
Black
10
132.2
20
-119.1
11
132.2
21
-118.65
0
LINE
8
Black
10
132.2
20
-118.65
11
133.55
21
-118.65
0
LINE
8
Black
10
133.55
20
-118.65
11
133.55
21
-119.1
0
LINE
8
Black
10
143.775
20
-118.8
11
142.825
21
-118.8
0
LINE
8
Black
10
142.825
20
-118.8
11
142.825
21
-117.8
0
LINE
8
Black
10
142.825
20
-117.8
11
143.775
21
-117.8
0
LINE
8
Black
10
143.775
20
-117.8
11
143.775
21
-118.8
0
LINE
8
Black
10
142.175
20
-118.8
11
141.225
21
-118.8
0
LINE
8
Black
10
141.225
20
-118.8
11
141.225
21
-117.8
0
LINE
8
Black
10
141.225
20
-117.8
11
142.175
21
-117.8
0
LINE
8
Black
10
142.175
20
-117.8
11
142.175
21
-118.8
0
LINE
8
Black
10
127.8
20
-118.45
11
126.45
21
-118.45
0
LINE
8
Black
10
126.45
20
-118.45
11
126.45
21
-118
0
LINE
8
Black
10
126.45
20
-118
11
127.8
21
-118
0
LINE
8
Black
10
127.8
20
-118
11
127.8
21
-118.45
0
LINE
8
Black
10
133.55
20
-118.45
11
132.2
21
-118.45
0
LINE
8
Black
10
132.2
20
-118.45
11
132.2
21
-118
0
LINE
8
Black
10
132.2
20
-118
11
133.55
21
-118
0
LINE
8
Black
10
133.55
20
-118
11
133.55
21
-118.45
0
LINE
8
Black
10
119.6
20
-118.4
11
118.25
21
-118.4
0
LINE
8
Black
10
118.25
20
-118.4
11
118.25
21
-117.95
0
LINE
8
Black
10
118.25
20
-117.95
11
119.6
21
-117.95
0
LINE
8
Black
10
119.6
20
-117.95
11
119.6
21
-118.4
0
LINE
8
Black
10
125.35
20
-118.4
11
124
21
-118.4
0
LINE
8
Black
10
124
20
-118.4
11
124
21
-117.95
0
LINE
8
Black
10
124
20
-117.95
11
125.35
21
-117.95
0
LINE
8
Black
10
125.35
20
-117.95
11
125.35
21
-118.4
0
LINE
8
Black
10
117.575
20
-118.2
11
116.625
21
-118.2
0
LINE
8
Black
10
116.625
20
-118.2
11
116.625
21
-117.2
0
LINE
8
Black
10
116.625
20
-117.2
11
117.575
21
-117.2
0
LINE
8
Black
10
117.575
20
-117.2
11
117.575
21
-118.2
0
LINE
8
Black
10
115.975
20
-118.2
11
115.025
21
-118.2
0
LINE
8
Black
10
115.025
20
-118.2
11
115.025
21
-117.2
0
LINE
8
Black
10
115.025
20
-117.2
11
115.975
21
-117.2
0
LINE
8
Black
10
115.975
20
-117.2
11
115.975
21
-118.2
0
LINE
8
Black
10
133.55
20
-117.8
11
132.2
21
-117.8
0
LINE
8
Black
10
132.2
20
-117.8
11
132.2
21
-117.35
0
LINE
8
Black
10
132.2
20
-117.35
11
133.55
21
-117.35
0
LINE
8
Black
10
133.55
20
-117.35
11
133.55
21
-117.8
0
LINE
8
Black
10
127.8
20
-117.8
11
126.45
21
-117.8
0
LINE
8
Black
10
126.45
20
-117.8
11
126.45
21
-117.35
0
LINE
8
Black
10
126.45
20
-117.35
11
127.8
21
-117.35
0
LINE
8
Black
10
127.8
20
-117.35
11
127.8
21
-117.8
0
LINE
8
Black
10
119.6
20
-117.75
11
118.25
21
-117.75
0
LINE
8
Black
10
118.25
20
-117.75
11
118.25
21
-117.3
0
LINE
8
Black
10
118.25
20
-117.3
11
119.6
21
-117.3
0
LINE
8
Black
10
119.6
20
-117.3
11
119.6
21
-117.75
0
LINE
8
Black
10
125.35
20
-117.75
11
124
21
-117.75
0
LINE
8
Black
10
124
20
-117.75
11
124
21
-117.3
0
LINE
8
Black
10
124
20
-117.3
11
125.35
21
-117.3
0
LINE
8
Black
10
125.35
20
-117.3
11
125.35
21
-117.75
0
LINE
8
Black
10
142.3
20
-117.25
11
141.85
21
-117.25
0
LINE
8
Black
10
141.85
20
-117.25
11
141.85
21
-115.9
0
LINE
8
Black
10
141.85
20
-115.9
11
142.3
21
-115.9
0
LINE
8
Black
10
142.3
20
-115.9
11
142.3
21
-117.25
0
LINE
8
Black
10
142.95
20
-117.25
11
142.5
21
-117.25
0
LINE
8
Black
10
142.5
20
-117.25
11
142.5
21
-115.9
0
LINE
8
Black
10
142.5
20
-115.9
11
142.95
21
-115.9
0
LINE
8
Black
10
142.95
20
-115.9
11
142.95
21
-117.25
0
LINE
8
Black
10
143.6
20
-117.25
11
143.15
21
-117.25
0
LINE
8
Black
10
143.15
20
-117.25
11
143.15
21
-115.9
0
LINE
8
Black
10
143.15
20
-115.9
11
143.6
21
-115.9
0
LINE
8
Black
10
143.6
20
-115.9
11
143.6
21
-117.25
0
LINE
8
Black
10
141.65
20
-117.25
11
141.2
21
-117.25
0
LINE
8
Black
10
141.2
20
-117.25
11
141.2
21
-115.9
0
LINE
8
Black
10
141.2
20
-115.9
11
141.65
21
-115.9
0
LINE
8
Black
10
141.65
20
-115.9
11
141.65
21
-117.25
0
LINE
8
Black
10
141
20
-117.25
11
140.55
21
-117.25
0
LINE
8
Black
10
140.55
20
-117.25
11
140.55
21
-115.9
0
LINE
8
Black
10
140.55
20
-115.9
11
141
21
-115.9
0
LINE
8
Black
10
141
20
-115.9
11
141
21
-117.25
0
LINE
8
Black
10
140.35
20
-117.25
11
139.9
21
-117.25
0
LINE
8
Black
10
139.9
20
-117.25
11
139.9
21
-115.9
0
LINE
8
Black
10
139.9
20
-115.9
11
140.35
21
-115.9
0
LINE
8
Black
10
140.35
20
-115.9
11
140.35
21
-117.25
0
LINE
8
Black
10
139.7
20
-117.25
11
139.25
21
-117.25
0
LINE
8
Black
10
139.25
20
-117.25
11
139.25
21
-115.9
0
LINE
8
Black
10
139.25
20
-115.9
11
139.7
21
-115.9
0
LINE
8
Black
10
139.7
20
-115.9
11
139.7
21
-117.25
0
LINE
8
Black
10
139.05
20
-117.25
11
138.6
21
-117.25
0
LINE
8
Black
10
138.6
20
-117.25
11
138.6
21
-115.9
0
LINE
8
Black
10
138.6
20
-115.9
11
139.05
21
-115.9
0
LINE
8
Black
10
139.05
20
-115.9
11
139.05
21
-117.25
0
LINE
8
Black
10
125.35
20
-117.1
11
124
21
-117.1
0
LINE
8
Black
10
124
20
-117.1
11
124
21
-116.65
0
LINE
8
Black
10
124
20
-116.65
11
125.35
21
-116.65
0
LINE
8
Black
10
125.35
20
-116.65
11
125.35
21
-117.1
0
LINE
8
Black
10
119.6
20
-117.1
11
118.25
21
-117.1
0
LINE
8
Black
10
118.25
20
-117.1
11
118.25
21
-116.65
0
LINE
8
Black
10
118.25
20
-116.65
11
119.6
21
-116.65
0
LINE
8
Black
10
119.6
20
-116.65
11
119.6
21
-117.1
0
LINE
8
Black
10
125.35
20
-116.45
11
124
21
-116.45
0
LINE
8
Black
10
124
20
-116.45
11
124
21
-116
0
LINE
8
Black
10
124
20
-116
11
125.35
21
-116
0
LINE
8
Black
10
125.35
20
-116
11
125.35
21
-116.45
0
LINE
8
Black
10
119.6
20
-116.45
11
118.25
21
-116.45
0
LINE
8
Black
10
118.25
20
-116.45
11
118.25
21
-116
0
LINE
8
Black
10
118.25
20
-116
11
119.6
21
-116
0
LINE
8
Black
10
119.6
20
-116
11
119.6
21
-116.45
0
LINE
8
Black
10
125.35
20
-115.8
11
124
21
-115.8
0
LINE
8
Black
10
124
20
-115.8
11
124
21
-115.35
0
LINE
8
Black
10
124
20
-115.35
11
125.35
21
-115.35
0
LINE
8
Black
10
125.35
20
-115.35
11
125.35
21
-115.8
0
LINE
8
Black
10
119.6
20
-115.8
11
118.25
21
-115.8
0
LINE
8
Black
10
118.25
20
-115.8
11
118.25
21
-115.35
0
LINE
8
Black
10
118.25
20
-115.35
11
119.6
21
-115.35
0
LINE
8
Black
10
119.6
20
-115.35
11
119.6
21
-115.8
0
LINE
8
Black
10
137.8
20
-115.775
11
136.8
21
-115.775
0
LINE
8
Black
10
136.8
20
-115.775
11
136.8
21
-114.825
0
LINE
8
Black
10
136.8
20
-114.825
11
137.8
21
-114.825
0
LINE
8
Black
10
137.8
20
-114.825
11
137.8
21
-115.775
0
LINE
8
Black
10
125.35
20
-115.15
11
124
21
-115.15
0
LINE
8
Black
10
124
20
-115.15
11
124
21
-114.7
0
LINE
8
Black
10
124
20
-114.7
11
125.35
21
-114.7
0
LINE
8
Black
10
125.35
20
-114.7
11
125.35
21
-115.15
0
LINE
8
Black
10
119.6
20
-115.15
11
118.25
21
-115.15
0
LINE
8
Black
10
118.25
20
-115.15
11
118.25
21
-114.7
0
LINE
8
Black
10
118.25
20
-114.7
11
119.6
21
-114.7
0
LINE
8
Black
10
119.6
20
-114.7
11
119.6
21
-115.15
0
LINE
8
Black
10
114.503
20
-113.615
11
113.988
21
-114.644
0
LINE
8
Black
10
113.988
20
-114.644
11
112.691
21
-113.994
0
LINE
8
Black
10
112.691
20
-113.994
11
113.206
21
-112.966
0
LINE
8
Black
10
113.206
20
-112.966
11
114.503
21
-113.615
0
LINE
8
Black
10
147.309
20
-113.994
11
146.012
21
-114.644
0
LINE
8
Black
10
146.012
20
-114.644
11
145.497
21
-113.615
0
LINE
8
Black
10
145.497
20
-113.615
11
146.794
21
-112.966
0
LINE
8
Black
10
146.794
20
-112.966
11
147.309
21
-113.994
0
LINE
8
Black
10
125.35
20
-114.5
11
124
21
-114.5
0
LINE
8
Black
10
124
20
-114.5
11
124
21
-114.05
0
LINE
8
Black
10
124
20
-114.05
11
125.35
21
-114.05
0
LINE
8
Black
10
125.35
20
-114.05
11
125.35
21
-114.5
0
LINE
8
Black
10
119.6
20
-114.5
11
118.25
21
-114.5
0
LINE
8
Black
10
118.25
20
-114.5
11
118.25
21
-114.05
0
LINE
8
Black
10
118.25
20
-114.05
11
119.6
21
-114.05
0
LINE
8
Black
10
119.6
20
-114.05
11
119.6
21
-114.5
0
LINE
8
Black
10
137.8
20
-114.175
11
136.8
21
-114.175
0
LINE
8
Black
10
136.8
20
-114.175
11
136.8
21
-113.225
0
LINE
8
Black
10
136.8
20
-113.225
11
137.8
21
-113.225
0
LINE
8
Black
10
137.8
20
-113.225
11
137.8
21
-114.175
0
LINE
8
Black
10
125.35
20
-113.85
11
124
21
-113.85
0
LINE
8
Black
10
124
20
-113.85
11
124
21
-113.4
0
LINE
8
Black
10
124
20
-113.4
11
125.35
21
-113.4
0
LINE
8
Black
10
125.35
20
-113.4
11
125.35
21
-113.85
0
LINE
8
Black
10
119.6
20
-113.85
11
118.25
21
-113.85
0
LINE
8
Black
10
118.25
20
-113.85
11
118.25
21
-113.4
0
LINE
8
Black
10
118.25
20
-113.4
11
119.6
21
-113.4
0
LINE
8
Black
10
119.6
20
-113.4
11
119.6
21
-113.85
0
LINE
8
Black
10
115.309
20
-112.006
11
114.794
21
-113.034
0
LINE
8
Black
10
114.794
20
-113.034
11
113.497
21
-112.385
0
LINE
8
Black
10
113.497
20
-112.385
11
114.012
21
-111.356
0
LINE
8
Black
10
114.012
20
-111.356
11
115.309
21
-112.006
0
LINE
8
Black
10
146.503
20
-112.385
11
145.206
21
-113.034
0
LINE
8
Black
10
145.206
20
-113.034
11
144.691
21
-112.006
0
LINE
8
Black
10
144.691
20
-112.006
11
145.988
21
-111.356
0
LINE
8
Black
10
145.988
20
-111.356
11
146.503
21
-112.385
0
LINE
8
Black
10
138.225
20
-112.2
11
137.425
21
-112.2
0
LINE
8
Black
10
137.425
20
-112.2
11
137.425
21
-111.4
0
LINE
8
Black
10
137.425
20
-111.4
11
138.225
21
-111.4
0
LINE
8
Black
10
138.225
20
-111.4
11
138.225
21
-112.2
0
LINE
8
Black
10
124.225
20
-112.2
11
123.425
21
-112.2
0
LINE
8
Black
10
123.425
20
-112.2
11
123.425
21
-111.4
0
LINE
8
Black
10
123.425
20
-111.4
11
124.225
21
-111.4
0
LINE
8
Black
10
124.225
20
-111.4
11
124.225
21
-112.2
0
LINE
8
Black
10
122.575
20
-112.2
11
121.775
21
-112.2
0
LINE
8
Black
10
121.775
20
-112.2
11
121.775
21
-111.4
0
LINE
8
Black
10
121.775
20
-111.4
11
122.575
21
-111.4
0
LINE
8
Black
10
122.575
20
-111.4
11
122.575
21
-112.2
0
LINE
8
Black
10
127.725
20
-112.2
11
126.925
21
-112.2
0
LINE
8
Black
10
126.925
20
-112.2
11
126.925
21
-111.4
0
LINE
8
Black
10
126.925
20
-111.4
11
127.725
21
-111.4
0
LINE
8
Black
10
127.725
20
-111.4
11
127.725
21
-112.2
0
LINE
8
Black
10
126.075
20
-112.2
11
125.275
21
-112.2
0
LINE
8
Black
10
125.275
20
-112.2
11
125.275
21
-111.4
0
LINE
8
Black
10
125.275
20
-111.4
11
126.075
21
-111.4
0
LINE
8
Black
10
126.075
20
-111.4
11
126.075
21
-112.2
0
LINE
8
Black
10
131.225
20
-112.2
11
130.425
21
-112.2
0
LINE
8
Black
10
130.425
20
-112.2
11
130.425
21
-111.4
0
LINE
8
Black
10
130.425
20
-111.4
11
131.225
21
-111.4
0
LINE
8
Black
10
131.225
20
-111.4
11
131.225
21
-112.2
0
LINE
8
Black
10
129.575
20
-112.2
11
128.775
21
-112.2
0
LINE
8
Black
10
128.775
20
-112.2
11
128.775
21
-111.4
0
LINE
8
Black
10
128.775
20
-111.4
11
129.575
21
-111.4
0
LINE
8
Black
10
129.575
20
-111.4
11
129.575
21
-112.2
0
LINE
8
Black
10
134.725
20
-112.2
11
133.925
21
-112.2
0
LINE
8
Black
10
133.925
20
-112.2
11
133.925
21
-111.4
0
LINE
8
Black
10
133.925
20
-111.4
11
134.725
21
-111.4
0
LINE
8
Black
10
134.725
20
-111.4
11
134.725
21
-112.2
0
LINE
8
Black
10
133.075
20
-112.2
11
132.275
21
-112.2
0
LINE
8
Black
10
132.275
20
-112.2
11
132.275
21
-111.4
0
LINE
8
Black
10
132.275
20
-111.4
11
133.075
21
-111.4
0
LINE
8
Black
10
133.075
20
-111.4
11
133.075
21
-112.2
0
LINE
8
Black
10
136.575
20
-112.2
11
135.775
21
-112.2
0
LINE
8
Black
10
135.775
20
-112.2
11
135.775
21
-111.4
0
LINE
8
Black
10
135.775
20
-111.4
11
136.575
21
-111.4
0
LINE
8
Black
10
136.575
20
-111.4
11
136.575
21
-112.2
0
LINE
8
Black
10
139.05
20
-111.5
11
138.6
21
-111.5
0
LINE
8
Black
10
138.6
20
-111.5
11
138.6
21
-110.15
0
LINE
8
Black
10
138.6
20
-110.15
11
139.05
21
-110.15
0
LINE
8
Black
10
139.05
20
-110.15
11
139.05
21
-111.5
0
LINE
8
Black
10
139.7
20
-111.5
11
139.25
21
-111.5
0
LINE
8
Black
10
139.25
20
-111.5
11
139.25
21
-110.15
0
LINE
8
Black
10
139.25
20
-110.15
11
139.7
21
-110.15
0
LINE
8
Black
10
139.7
20
-110.15
11
139.7
21
-111.5
0
LINE
8
Black
10
143.6
20
-111.5
11
143.15
21
-111.5
0
LINE
8
Black
10
143.15
20
-111.5
11
143.15
21
-110.15
0
LINE
8
Black
10
143.15
20
-110.15
11
143.6
21
-110.15
0
LINE
8
Black
10
143.6
20
-110.15
11
143.6
21
-111.5
0
LINE
8
Black
10
142.95
20
-111.5
11
142.5
21
-111.5
0
LINE
8
Black
10
142.5
20
-111.5
11
142.5
21
-110.15
0
LINE
8
Black
10
142.5
20
-110.15
11
142.95
21
-110.15
0
LINE
8
Black
10
142.95
20
-110.15
11
142.95
21
-111.5
0
LINE
8
Black
10
142.3
20
-111.5
11
141.85
21
-111.5
0
LINE
8
Black
10
141.85
20
-111.5
11
141.85
21
-110.15
0
LINE
8
Black
10
141.85
20
-110.15
11
142.3
21
-110.15
0
LINE
8
Black
10
142.3
20
-110.15
11
142.3
21
-111.5
0
LINE
8
Black
10
141.65
20
-111.5
11
141.2
21
-111.5
0
LINE
8
Black
10
141.2
20
-111.5
11
141.2
21
-110.15
0
LINE
8
Black
10
141.2
20
-110.15
11
141.65
21
-110.15
0
LINE
8
Black
10
141.65
20
-110.15
11
141.65
21
-111.5
0
LINE
8
Black
10
141
20
-111.5
11
140.55
21
-111.5
0
LINE
8
Black
10
140.55
20
-111.5
11
140.55
21
-110.15
0
LINE
8
Black
10
140.55
20
-110.15
11
141
21
-110.15
0
LINE
8
Black
10
141
20
-110.15
11
141
21
-111.5
0
LINE
8
Black
10
140.35
20
-111.5
11
139.9
21
-111.5
0
LINE
8
Black
10
139.9
20
-111.5
11
139.9
21
-110.15
0
LINE
8
Black
10
139.9
20
-110.15
11
140.35
21
-110.15
0
LINE
8
Black
10
140.35
20
-110.15
11
140.35
21
-111.5
0
LINE
8
Black
10
145.418
20
-110.816
11
144.524
21
-111.264
0
LINE
8
Black
10
144.524
20
-111.264
11
144.098
21
-110.414
0
LINE
8
Black
10
144.098
20
-110.414
11
144.993
21
-109.967
0
LINE
8
Black
10
144.993
20
-109.967
11
145.418
21
-110.816
0
LINE
8
Black
10
116.002
20
-110.314
11
115.576
21
-111.164
0
LINE
8
Black
10
115.576
20
-111.164
11
114.682
21
-110.716
0
LINE
8
Black
10
114.682
20
-110.716
11
115.107
21
-109.867
0
LINE
8
Black
10
115.107
20
-109.867
11
116.002
21
-110.314
0
LINE
8
Black
10
144.702
20
-109.386
11
143.807
21
-109.833
0
LINE
8
Black
10
143.807
20
-109.833
11
143.382
21
-108.984
0
LINE
8
Black
10
143.382
20
-108.984
11
144.276
21
-108.536
0
LINE
8
Black
10
144.276
20
-108.536
11
144.702
21
-109.386
0
LINE
8
Black
10
116.718
20
-108.884
11
116.293
21
-109.733
0
LINE
8
Black
10
116.293
20
-109.733
11
115.398
21
-109.286
0
LINE
8
Black
10
115.398
20
-109.286
11
115.824
21
-108.436
0
LINE
8
Black
10
115.824
20
-108.436
11
116.718
21
-108.884
0
LINE
8
Black
10
141.475
20
-109.3
11
140.525
21
-109.3
0
LINE
8
Black
10
140.525
20
-109.3
11
140.525
21
-108.3
0
LINE
8
Black
10
140.525
20
-108.3
11
141.475
21
-108.3
0
LINE
8
Black
10
141.475
20
-108.3
11
141.475
21
-109.3
0
LINE
8
Black
10
139.875
20
-109.3
11
138.925
21
-109.3
0
LINE
8
Black
10
138.925
20
-109.3
11
138.925
21
-108.3
0
LINE
8
Black
10
138.925
20
-108.3
11
139.875
21
-108.3
0
LINE
8
Black
10
139.875
20
-108.3
11
139.875
21
-109.3
0
LINE
8
Black
10
126.075
20
-109.2
11
125.275
21
-109.2
0
LINE
8
Black
10
125.275
20
-109.2
11
125.275
21
-108.4
0
LINE
8
Black
10
125.275
20
-108.4
11
126.075
21
-108.4
0
LINE
8
Black
10
126.075
20
-108.4
11
126.075
21
-109.2
0
LINE
8
Black
10
136.575
20
-109.2
11
135.775
21
-109.2
0
LINE
8
Black
10
135.775
20
-109.2
11
135.775
21
-108.4
0
LINE
8
Black
10
135.775
20
-108.4
11
136.575
21
-108.4
0
LINE
8
Black
10
136.575
20
-108.4
11
136.575
21
-109.2
0
LINE
8
Black
10
138.225
20
-109.2
11
137.425
21
-109.2
0
LINE
8
Black
10
137.425
20
-109.2
11
137.425
21
-108.4
0
LINE
8
Black
10
137.425
20
-108.4
11
138.225
21
-108.4
0
LINE
8
Black
10
138.225
20
-108.4
11
138.225
21
-109.2
0
LINE
8
Black
10
133.075
20
-109.2
11
132.275
21
-109.2
0
LINE
8
Black
10
132.275
20
-109.2
11
132.275
21
-108.4
0
LINE
8
Black
10
132.275
20
-108.4
11
133.075
21
-108.4
0
LINE
8
Black
10
133.075
20
-108.4
11
133.075
21
-109.2
0
LINE
8
Black
10
134.725
20
-109.2
11
133.925
21
-109.2
0
LINE
8
Black
10
133.925
20
-109.2
11
133.925
21
-108.4
0
LINE
8
Black
10
133.925
20
-108.4
11
134.725
21
-108.4
0
LINE
8
Black
10
134.725
20
-108.4
11
134.725
21
-109.2
0
LINE
8
Black
10
129.575
20
-109.2
11
128.775
21
-109.2
0
LINE
8
Black
10
128.775
20
-109.2
11
128.775
21
-108.4
0
LINE
8
Black
10
128.775
20
-108.4
11
129.575
21
-108.4
0
LINE
8
Black
10
129.575
20
-108.4
11
129.575
21
-109.2
0
LINE
8
Black
10
131.225
20
-109.2
11
130.425
21
-109.2
0
LINE
8
Black
10
130.425
20
-109.2
11
130.425
21
-108.4
0
LINE
8
Black
10
130.425
20
-108.4
11
131.225
21
-108.4
0
LINE
8
Black
10
131.225
20
-108.4
11
131.225
21
-109.2
0
LINE
8
Black
10
127.725
20
-109.2
11
126.925
21
-109.2
0
LINE
8
Black
10
126.925
20
-109.2
11
126.925
21
-108.4
0
LINE
8
Black
10
126.925
20
-108.4
11
127.725
21
-108.4
0
LINE
8
Black
10
127.725
20
-108.4
11
127.725
21
-109.2
0
LINE
8
Black
10
122.575
20
-109.2
11
121.775
21
-109.2
0
LINE
8
Black
10
121.775
20
-109.2
11
121.775
21
-108.4
0
LINE
8
Black
10
121.775
20
-108.4
11
122.575
21
-108.4
0
LINE
8
Black
10
122.575
20
-108.4
11
122.575
21
-109.2
0
LINE
8
Black
10
124.225
20
-109.2
11
123.425
21
-109.2
0
LINE
8
Black
10
123.425
20
-109.2
11
123.425
21
-108.4
0
LINE
8
Black
10
123.425
20
-108.4
11
124.225
21
-108.4
0
LINE
8
Black
10
124.225
20
-108.4
11
124.225
21
-109.2
0
LINE
8
Black
10
139.875
20
-107.8
11
138.925
21
-107.8
0
LINE
8
Black
10
138.925
20
-107.8
11
138.925
21
-106.8
0
LINE
8
Black
10
138.925
20
-106.8
11
139.875
21
-106.8
0
LINE
8
Black
10
139.875
20
-106.8
11
139.875
21
-107.8
0
LINE
8
Black
10
141.475
20
-107.8
11
140.525
21
-107.8
0
LINE
8
Black
10
140.525
20
-107.8
11
140.525
21
-106.8
0
LINE
8
Black
10
140.525
20
-106.8
11
141.475
21
-106.8
0
LINE
8
Black
10
141.475
20
-106.8
11
141.475
21
-107.8
0
LINE
8
Black
10
141.475
20
-106.3
11
140.525
21
-106.3
0
LINE
8
Black
10
140.525
20
-106.3
11
140.525
21
-105.3
0
LINE
8
Black
10
140.525
20
-105.3
11
141.475
21
-105.3
0
LINE
8
Black
10
141.475
20
-105.3
11
141.475
21
-106.3
0
LINE
8
Black
10
139.875
20
-106.3
11
138.925
21
-106.3
0
LINE
8
Black
10
138.925
20
-106.3
11
138.925
21
-105.3
0
LINE
8
Black
10
138.925
20
-105.3
11
139.875
21
-105.3
0
LINE
8
Black
10
139.875
20
-105.3
11
139.875
21
-106.3
0
LINE
8
Black
10
134.725
20
-106.2
11
133.925
21
-106.2
0
LINE
8
Black
10
133.925
20
-106.2
11
133.925
21
-105.4
0
LINE
8
Black
10
133.925
20
-105.4
11
134.725
21
-105.4
0
LINE
8
Black
10
134.725
20
-105.4
11
134.725
21
-106.2
0
LINE
8
Black
10
124.225
20
-106.2
11
123.425
21
-106.2
0
LINE
8
Black
10
123.425
20
-106.2
11
123.425
21
-105.4
0
LINE
8
Black
10
123.425
20
-105.4
11
124.225
21
-105.4
0
LINE
8
Black
10
124.225
20
-105.4
11
124.225
21
-106.2
0
LINE
8
Black
10
122.575
20
-106.2
11
121.775
21
-106.2
0
LINE
8
Black
10
121.775
20
-106.2
11
121.775
21
-105.4
0
LINE
8
Black
10
121.775
20
-105.4
11
122.575
21
-105.4
0
LINE
8
Black
10
122.575
20
-105.4
11
122.575
21
-106.2
0
LINE
8
Black
10
136.575
20
-106.2
11
135.775
21
-106.2
0
LINE
8
Black
10
135.775
20
-106.2
11
135.775
21
-105.4
0
LINE
8
Black
10
135.775
20
-105.4
11
136.575
21
-105.4
0
LINE
8
Black
10
136.575
20
-105.4
11
136.575
21
-106.2
0
LINE
8
Black
10
138.225
20
-106.2
11
137.425
21
-106.2
0
LINE
8
Black
10
137.425
20
-106.2
11
137.425
21
-105.4
0
LINE
8
Black
10
137.425
20
-105.4
11
138.225
21
-105.4
0
LINE
8
Black
10
138.225
20
-105.4
11
138.225
21
-106.2
0
LINE
8
Black
10
133.075
20
-106.2
11
132.275
21
-106.2
0
LINE
8
Black
10
132.275
20
-106.2
11
132.275
21
-105.4
0
LINE
8
Black
10
132.275
20
-105.4
11
133.075
21
-105.4
0
LINE
8
Black
10
133.075
20
-105.4
11
133.075
21
-106.2
0
LINE
8
Black
10
127.725
20
-106.2
11
126.925
21
-106.2
0
LINE
8
Black
10
126.925
20
-106.2
11
126.925
21
-105.4
0
LINE
8
Black
10
126.925
20
-105.4
11
127.725
21
-105.4
0
LINE
8
Black
10
127.725
20
-105.4
11
127.725
21
-106.2
0
LINE
8
Black
10
129.575
20
-106.2
11
128.775
21
-106.2
0
LINE
8
Black
10
128.775
20
-106.2
11
128.775
21
-105.4
0
LINE
8
Black
10
128.775
20
-105.4
11
129.575
21
-105.4
0
LINE
8
Black
10
129.575
20
-105.4
11
129.575
21
-106.2
0
LINE
8
Black
10
131.225
20
-106.2
11
130.425
21
-106.2
0
LINE
8
Black
10
130.425
20
-106.2
11
130.425
21
-105.4
0
LINE
8
Black
10
130.425
20
-105.4
11
131.225
21
-105.4
0
LINE
8
Black
10
131.225
20
-105.4
11
131.225
21
-106.2
0
LINE
8
Black
10
126.075
20
-106.2
11
125.275
21
-106.2
0
LINE
8
Black
10
125.275
20
-106.2
11
125.275
21
-105.4
0
LINE
8
Black
10
125.275
20
-105.4
11
126.075
21
-105.4
0
LINE
8
Black
10
126.075
20
-105.4
11
126.075
21
-106.2
0
LINE
8
Black
10
141.475
20
-104.8
11
140.525
21
-104.8
0
LINE
8
Black
10
140.525
20
-104.8
11
140.525
21
-103.8
0
LINE
8
Black
10
140.525
20
-103.8
11
141.475
21
-103.8
0
LINE
8
Black
10
141.475
20
-103.8
11
141.475
21
-104.8
0
LINE
8
Black
10
139.875
20
-104.8
11
138.925
21
-104.8
0
LINE
8
Black
10
138.925
20
-104.8
11
138.925
21
-103.8
0
LINE
8
Black
10
138.925
20
-103.8
11
139.875
21
-103.8
0
LINE
8
Black
10
139.875
20
-103.8
11
139.875
21
-104.8
0
LINE
8
Black
10
133.075
20
-103.2
11
132.275
21
-103.2
0
LINE
8
Black
10
132.275
20
-103.2
11
132.275
21
-102.4
0
LINE
8
Black
10
132.275
20
-102.4
11
133.075
21
-102.4
0
LINE
8
Black
10
133.075
20
-102.4
11
133.075
21
-103.2
0
LINE
8
Black
10
138.225
20
-103.2
11
137.425
21
-103.2
0
LINE
8
Black
10
137.425
20
-103.2
11
137.425
21
-102.4
0
LINE
8
Black
10
137.425
20
-102.4
11
138.225
21
-102.4
0
LINE
8
Black
10
138.225
20
-102.4
11
138.225
21
-103.2
0
LINE
8
Black
10
124.225
20
-103.2
11
123.425
21
-103.2
0
LINE
8
Black
10
123.425
20
-103.2
11
123.425
21
-102.4
0
LINE
8
Black
10
123.425
20
-102.4
11
124.225
21
-102.4
0
LINE
8
Black
10
124.225
20
-102.4
11
124.225
21
-103.2
0
LINE
8
Black
10
122.575
20
-103.2
11
121.775
21
-103.2
0
LINE
8
Black
10
121.775
20
-103.2
11
121.775
21
-102.4
0
LINE
8
Black
10
121.775
20
-102.4
11
122.575
21
-102.4
0
LINE
8
Black
10
122.575
20
-102.4
11
122.575
21
-103.2
0
LINE
8
Black
10
136.575
20
-103.2
11
135.775
21
-103.2
0
LINE
8
Black
10
135.775
20
-103.2
11
135.775
21
-102.4
0
LINE
8
Black
10
135.775
20
-102.4
11
136.575
21
-102.4
0
LINE
8
Black
10
136.575
20
-102.4
11
136.575
21
-103.2
0
LINE
8
Black
10
134.725
20
-103.2
11
133.925
21
-103.2
0
LINE
8
Black
10
133.925
20
-103.2
11
133.925
21
-102.4
0
LINE
8
Black
10
133.925
20
-102.4
11
134.725
21
-102.4
0
LINE
8
Black
10
134.725
20
-102.4
11
134.725
21
-103.2
0
LINE
8
Black
10
129.575
20
-103.2
11
128.775
21
-103.2
0
LINE
8
Black
10
128.775
20
-103.2
11
128.775
21
-102.4
0
LINE
8
Black
10
128.775
20
-102.4
11
129.575
21
-102.4
0
LINE
8
Black
10
129.575
20
-102.4
11
129.575
21
-103.2
0
LINE
8
Black
10
127.725
20
-103.2
11
126.925
21
-103.2
0
LINE
8
Black
10
126.925
20
-103.2
11
126.925
21
-102.4
0
LINE
8
Black
10
126.925
20
-102.4
11
127.725
21
-102.4
0
LINE
8
Black
10
127.725
20
-102.4
11
127.725
21
-103.2
0
LINE
8
Black
10
126.075
20
-103.2
11
125.275
21
-103.2
0
LINE
8
Black
10
125.275
20
-103.2
11
125.275
21
-102.4
0
LINE
8
Black
10
125.275
20
-102.4
11
126.075
21
-102.4
0
LINE
8
Black
10
126.075
20
-102.4
11
126.075
21
-103.2
0
LINE
8
Black
10
131.225
20
-103.2
11
130.425
21
-103.2
0
LINE
8
Black
10
130.425
20
-103.2
11
130.425
21
-102.4
0
LINE
8
Black
10
130.425
20
-102.4
11
131.225
21
-102.4
0
LINE
8
Black
10
131.225
20
-102.4
11
131.225
21
-103.2
0
LINE
8
Black
10
134.725
20
-100.2
11
133.925
21
-100.2
0
LINE
8
Black
10
133.925
20
-100.2
11
133.925
21
-99.4
0
LINE
8
Black
10
133.925
20
-99.4
11
134.725
21
-99.4
0
LINE
8
Black
10
134.725
20
-99.4
11
134.725
21
-100.2
0
LINE
8
Black
10
138.225
20
-100.2
11
137.425
21
-100.2
0
LINE
8
Black
10
137.425
20
-100.2
11
137.425
21
-99.4
0
LINE
8
Black
10
137.425
20
-99.4
11
138.225
21
-99.4
0
LINE
8
Black
10
138.225
20
-99.4
11
138.225
21
-100.2
0
LINE
8
Black
10
136.575
20
-100.2
11
135.775
21
-100.2
0
LINE
8
Black
10
135.775
20
-100.2
11
135.775
21
-99.4
0
LINE
8
Black
10
135.775
20
-99.4
11
136.575
21
-99.4
0
LINE
8
Black
10
136.575
20
-99.4
11
136.575
21
-100.2
0
LINE
8
Black
10
129.575
20
-100.2
11
128.775
21
-100.2
0
LINE
8
Black
10
128.775
20
-100.2
11
128.775
21
-99.4
0
LINE
8
Black
10
128.775
20
-99.4
11
129.575
21
-99.4
0
LINE
8
Black
10
129.575
20
-99.4
11
129.575
21
-100.2
0
LINE
8
Black
10
131.225
20
-100.2
11
130.425
21
-100.2
0
LINE
8
Black
10
130.425
20
-100.2
11
130.425
21
-99.4
0
LINE
8
Black
10
130.425
20
-99.4
11
131.225
21
-99.4
0
LINE
8
Black
10
131.225
20
-99.4
11
131.225
21
-100.2
0
LINE
8
Black
10
126.075
20
-100.2
11
125.275
21
-100.2
0
LINE
8
Black
10
125.275
20
-100.2
11
125.275
21
-99.4
0
LINE
8
Black
10
125.275
20
-99.4
11
126.075
21
-99.4
0
LINE
8
Black
10
126.075
20
-99.4
11
126.075
21
-100.2
0
LINE
8
Black
10
127.725
20
-100.2
11
126.925
21
-100.2
0
LINE
8
Black
10
126.925
20
-100.2
11
126.925
21
-99.4
0
LINE
8
Black
10
126.925
20
-99.4
11
127.725
21
-99.4
0
LINE
8
Black
10
127.725
20
-99.4
11
127.725
21
-100.2
0
LINE
8
Black
10
122.575
20
-100.2
11
121.775
21
-100.2
0
LINE
8
Black
10
121.775
20
-100.2
11
121.775
21
-99.4
0
LINE
8
Black
10
121.775
20
-99.4
11
122.575
21
-99.4
0
LINE
8
Black
10
122.575
20
-99.4
11
122.575
21
-100.2
0
LINE
8
Black
10
124.225
20
-100.2
11
123.425
21
-100.2
0
LINE
8
Black
10
123.425
20
-100.2
11
123.425
21
-99.4
0
LINE
8
Black
10
123.425
20
-99.4
11
124.225
21
-99.4
0
LINE
8
Black
10
124.225
20
-99.4
11
124.225
21
-100.2
0
LINE
8
Black
10
133.075
20
-100.2
11
132.275
21
-100.2
0
LINE
8
Black
10
132.275
20
-100.2
11
132.275
21
-99.4
0
LINE
8
Black
10
132.275
20
-99.4
11
133.075
21
-99.4
0
LINE
8
Black
10
133.075
20
-99.4
11
133.075
21
-100.2
0
LINE
8
Black
10
140.809
20
-99.4943
11
139.512
21
-100.144
0
LINE
8
Black
10
139.512
20
-100.144
11
138.997
21
-99.1152
0
LINE
8
Black
10
138.997
20
-99.1152
11
140.294
21
-98.466
0
LINE
8
Black
10
140.294
20
-98.466
11
140.809
21
-99.4943
0
LINE
8
Black
10
121.003
20
-99.1152
11
120.488
21
-100.144
0
LINE
8
Black
10
120.488
20
-100.144
11
119.191
21
-99.4943
0
LINE
8
Black
10
119.191
20
-99.4943
11
119.706
21
-98.466
0
LINE
8
Black
10
119.706
20
-98.466
11
121.003
21
-99.1152
0
LINE
8
Black
10
119.003
20
-98.6152
11
118.488
21
-99.6435
0
LINE
8
Black
10
118.488
20
-99.6435
11
117.191
21
-98.9943
0
LINE
8
Black
10
117.191
20
-98.9943
11
117.706
21
-97.966
0
LINE
8
Black
10
117.706
20
-97.966
11
119.003
21
-98.6152
0
LINE
8
Black
10
142.809
20
-98.9943
11
141.512
21
-99.6435
0
LINE
8
Black
10
141.512
20
-99.6435
11
140.997
21
-98.6152
0
LINE
8
Black
10
140.997
20
-98.6152
11
142.294
21
-97.966
0
LINE
8
Black
10
142.294
20
-97.966
11
142.809
21
-98.9943
0
LINE
8
Black
10
131.85
20
-98.75
11
131.4
21
-98.75
0
LINE
8
Black
10
131.4
20
-98.75
11
131.4
21
-97.4
0
LINE
8
Black
10
131.4
20
-97.4
11
131.85
21
-97.4
0
LINE
8
Black
10
131.85
20
-97.4
11
131.85
21
-98.75
0
LINE
8
Black
10
131.2
20
-98.75
11
130.75
21
-98.75
0
LINE
8
Black
10
130.75
20
-98.75
11
130.75
21
-97.4
0
LINE
8
Black
10
130.75
20
-97.4
11
131.2
21
-97.4
0
LINE
8
Black
10
131.2
20
-97.4
11
131.2
21
-98.75
0
LINE
8
Black
10
128.6
20
-98.75
11
128.15
21
-98.75
0
LINE
8
Black
10
128.15
20
-98.75
11
128.15
21
-97.4
0
LINE
8
Black
10
128.15
20
-97.4
11
128.6
21
-97.4
0
LINE
8
Black
10
128.6
20
-97.4
11
128.6
21
-98.75
0
LINE
8
Black
10
129.25
20
-98.75
11
128.8
21
-98.75
0
LINE
8
Black
10
128.8
20
-98.75
11
128.8
21
-97.4
0
LINE
8
Black
10
128.8
20
-97.4
11
129.25
21
-97.4
0
LINE
8
Black
10
129.25
20
-97.4
11
129.25
21
-98.75
0
LINE
8
Black
10
129.9
20
-98.75
11
129.45
21
-98.75
0
LINE
8
Black
10
129.45
20
-98.75
11
129.45
21
-97.4
0
LINE
8
Black
10
129.45
20
-97.4
11
129.9
21
-97.4
0
LINE
8
Black
10
129.9
20
-97.4
11
129.9
21
-98.75
0
LINE
8
Black
10
127.95
20
-98.75
11
127.5
21
-98.75
0
LINE
8
Black
10
127.5
20
-98.75
11
127.5
21
-97.4
0
LINE
8
Black
10
127.5
20
-97.4
11
127.95
21
-97.4
0
LINE
8
Black
10
127.95
20
-97.4
11
127.95
21
-98.75
0
LINE
8
Black
10
130.55
20
-98.75
11
130.1
21
-98.75
0
LINE
8
Black
10
130.1
20
-98.75
11
130.1
21
-97.4
0
LINE
8
Black
10
130.1
20
-97.4
11
130.55
21
-97.4
0
LINE
8
Black
10
130.55
20
-97.4
11
130.55
21
-98.75
0
LINE
8
Black
10
132.5
20
-98.75
11
132.05
21
-98.75
0
LINE
8
Black
10
132.05
20
-98.75
11
132.05
21
-97.4
0
LINE
8
Black
10
132.05
20
-97.4
11
132.5
21
-97.4
0
LINE
8
Black
10
132.5
20
-97.4
11
132.5
21
-98.75
0
LINE
8
Black
10
134.175
20
-98.6
11
133.225
21
-98.6
0
LINE
8
Black
10
133.225
20
-98.6
11
133.225
21
-97.6
0
LINE
8
Black
10
133.225
20
-97.6
11
134.175
21
-97.6
0
LINE
8
Black
10
134.175
20
-97.6
11
134.175
21
-98.6
0
LINE
8
Black
10
135.775
20
-98.6
11
134.825
21
-98.6
0
LINE
8
Black
10
134.825
20
-98.6
11
134.825
21
-97.6
0
LINE
8
Black
10
134.825
20
-97.6
11
135.775
21
-97.6
0
LINE
8
Black
10
135.775
20
-97.6
11
135.775
21
-98.6
0
LINE
8
Black
10
140.003
20
-97.8848
11
138.706
21
-98.534
0
LINE
8
Black
10
138.706
20
-98.534
11
138.191
21
-97.5057
0
LINE
8
Black
10
138.191
20
-97.5057
11
139.488
21
-96.8565
0
LINE
8
Black
10
139.488
20
-96.8565
11
140.003
21
-97.8848
0
LINE
8
Black
10
121.809
20
-97.5057
11
121.294
21
-98.534
0
LINE
8
Black
10
121.294
20
-98.534
11
119.997
21
-97.8848
0
LINE
8
Black
10
119.997
20
-97.8848
11
120.512
21
-96.8565
0
LINE
8
Black
10
120.512
20
-96.8565
11
121.809
21
-97.5057
0
LINE
8
Black
10
142.003
20
-97.3848
11
140.706
21
-98.034
0
LINE
8
Black
10
140.706
20
-98.034
11
140.191
21
-97.0057
0
LINE
8
Black
10
140.191
20
-97.0057
11
141.488
21
-96.3565
0
LINE
8
Black
10
141.488
20
-96.3565
11
142.003
21
-97.3848
0
LINE
8
Black
10
119.809
20
-97.0057
11
119.294
21
-98.034
0
LINE
8
Black
10
119.294
20
-98.034
11
117.997
21
-97.3848
0
LINE
8
Black
10
117.997
20
-97.3848
11
118.512
21
-96.3565
0
LINE
8
Black
10
118.512
20
-96.3565
11
119.809
21
-97.0057
0
LINE
8
Black
10
126.675
20
-96.2
11
125.725
21
-96.2
0
LINE
8
Black
10
125.725
20
-96.2
11
125.725
21
-95.2
0
LINE
8
Black
10
125.725
20
-95.2
11
126.675
21
-95.2
0
LINE
8
Black
10
126.675
20
-95.2
11
126.675
21
-96.2
0
LINE
8
Black
10
136.675
20
-96.2
11
135.725
21
-96.2
0
LINE
8
Black
10
135.725
20
-96.2
11
135.725
21
-95.2
0
LINE
8
Black
10
135.725
20
-95.2
11
136.675
21
-95.2
0
LINE
8
Black
10
136.675
20
-95.2
11
136.675
21
-96.2
0
LINE
8
Black
10
135.075
20
-96.2
11
134.125
21
-96.2
0
LINE
8
Black
10
134.125
20
-96.2
11
134.125
21
-95.2
0
LINE
8
Black
10
134.125
20
-95.2
11
135.075
21
-95.2
0
LINE
8
Black
10
135.075
20
-95.2
11
135.075
21
-96.2
0
LINE
8
Black
10
125.075
20
-96.2
11
124.125
21
-96.2
0
LINE
8
Black
10
124.125
20
-96.2
11
124.125
21
-95.2
0
LINE
8
Black
10
124.125
20
-95.2
11
125.075
21
-95.2
0
LINE
8
Black
10
125.075
20
-95.2
11
125.075
21
-96.2
0
LINE
8
Black
10
136.675
20
-94.7
11
135.725
21
-94.7
0
LINE
8
Black
10
135.725
20
-94.7
11
135.725
21
-93.7
0
LINE
8
Black
10
135.725
20
-93.7
11
136.675
21
-93.7
0
LINE
8
Black
10
136.675
20
-93.7
11
136.675
21
-94.7
0
LINE
8
Black
10
135.075
20
-94.7
11
134.125
21
-94.7
0
LINE
8
Black
10
134.125
20
-94.7
11
134.125
21
-93.7
0
LINE
8
Black
10
134.125
20
-93.7
11
135.075
21
-93.7
0
LINE
8
Black
10
135.075
20
-93.7
11
135.075
21
-94.7
0
LINE
8
Black
10
125.075
20
-94.7
11
124.125
21
-94.7
0
LINE
8
Black
10
124.125
20
-94.7
11
124.125
21
-93.7
0
LINE
8
Black
10
124.125
20
-93.7
11
125.075
21
-93.7
0
LINE
8
Black
10
125.075
20
-93.7
11
125.075
21
-94.7
0
LINE
8
Black
10
126.675
20
-94.7
11
125.725
21
-94.7
0
LINE
8
Black
10
125.725
20
-94.7
11
125.725
21
-93.7
0
LINE
8
Black
10
125.725
20
-93.7
11
126.675
21
-93.7
0
LINE
8
Black
10
126.675
20
-93.7
11
126.675
21
-94.7
0
LINE
8
Black
10
135.075
20
-93.2
11
134.125
21
-93.2
0
LINE
8
Black
10
134.125
20
-93.2
11
134.125
21
-92.2
0
LINE
8
Black
10
134.125
20
-92.2
11
135.075
21
-92.2
0
LINE
8
Black
10
135.075
20
-92.2
11
135.075
21
-93.2
0
LINE
8
Black
10
136.675
20
-93.2
11
135.725
21
-93.2
0
LINE
8
Black
10
135.725
20
-93.2
11
135.725
21
-92.2
0
LINE
8
Black
10
135.725
20
-92.2
11
136.675
21
-92.2
0
LINE
8
Black
10
136.675
20
-92.2
11
136.675
21
-93.2
0
LINE
8
Black
10
125.075
20
-93.2
11
124.125
21
-93.2
0
LINE
8
Black
10
124.125
20
-93.2
11
124.125
21
-92.2
0
LINE
8
Black
10
124.125
20
-92.2
11
125.075
21
-92.2
0
LINE
8
Black
10
125.075
20
-92.2
11
125.075
21
-93.2
0
LINE
8
Black
10
126.675
20
-93.2
11
125.725
21
-93.2
0
LINE
8
Black
10
125.725
20
-93.2
11
125.725
21
-92.2
0
LINE
8
Black
10
125.725
20
-92.2
11
126.675
21
-92.2
0
LINE
8
Black
10
126.675
20
-92.2
11
126.675
21
-93.2
0
LINE
8
Black
10
132.5
20
-93
11
132.05
21
-93
0
LINE
8
Black
10
132.05
20
-93
11
132.05
21
-91.65
0
LINE
8
Black
10
132.05
20
-91.65
11
132.5
21
-91.65
0
LINE
8
Black
10
132.5
20
-91.65
11
132.5
21
-93
0
LINE
8
Black
10
131.85
20
-93
11
131.4
21
-93
0
LINE
8
Black
10
131.4
20
-93
11
131.4
21
-91.65
0
LINE
8
Black
10
131.4
20
-91.65
11
131.85
21
-91.65
0
LINE
8
Black
10
131.85
20
-91.65
11
131.85
21
-93
0
LINE
8
Black
10
131.2
20
-93
11
130.75
21
-93
0
LINE
8
Black
10
130.75
20
-93
11
130.75
21
-91.65
0
LINE
8
Black
10
130.75
20
-91.65
11
131.2
21
-91.65
0
LINE
8
Black
10
131.2
20
-91.65
11
131.2
21
-93
0
LINE
8
Black
10
130.55
20
-93
11
130.1
21
-93
0
LINE
8
Black
10
130.1
20
-93
11
130.1
21
-91.65
0
LINE
8
Black
10
130.1
20
-91.65
11
130.55
21
-91.65
0
LINE
8
Black
10
130.55
20
-91.65
11
130.55
21
-93
0
LINE
8
Black
10
129.9
20
-93
11
129.45
21
-93
0
LINE
8
Black
10
129.45
20
-93
11
129.45
21
-91.65
0
LINE
8
Black
10
129.45
20
-91.65
11
129.9
21
-91.65
0
LINE
8
Black
10
129.9
20
-91.65
11
129.9
21
-93
0
LINE
8
Black
10
129.25
20
-93
11
128.8
21
-93
0
LINE
8
Black
10
128.8
20
-93
11
128.8
21
-91.65
0
LINE
8
Black
10
128.8
20
-91.65
11
129.25
21
-91.65
0
LINE
8
Black
10
129.25
20
-91.65
11
129.25
21
-93
0
LINE
8
Black
10
128.6
20
-93
11
128.15
21
-93
0
LINE
8
Black
10
128.15
20
-93
11
128.15
21
-91.65
0
LINE
8
Black
10
128.15
20
-91.65
11
128.6
21
-91.65
0
LINE
8
Black
10
128.6
20
-91.65
11
128.6
21
-93
0
LINE
8
Black
10
127.95
20
-93
11
127.5
21
-93
0
LINE
8
Black
10
127.5
20
-93
11
127.5
21
-91.65
0
LINE
8
Black
10
127.5
20
-91.65
11
127.95
21
-91.65
0
LINE
8
Black
10
127.95
20
-91.65
11
127.95
21
-93
0
LINE
8
Black
10
135.106
20
-90.601
11
134.47
21
-91.2374
0
LINE
8
Black
10
134.47
20
-91.2374
11
133.763
21
-90.5303
0
LINE
8
Black
10
133.763
20
-90.5303
11
134.399
21
-89.8939
0
LINE
8
Black
10
134.399
20
-89.8939
11
135.106
21
-90.601
0
LINE
8
Black
10
126.237
20
-90.5303
11
125.53
21
-91.2374
0
LINE
8
Black
10
125.53
20
-91.2374
11
124.894
21
-90.601
0
LINE
8
Black
10
124.894
20
-90.601
11
125.601
21
-89.8939
0
LINE
8
Black
10
125.601
20
-89.8939
11
126.237
21
-90.5303
0
LINE
8
Black
10
136.237
20
-89.4697
11
135.601
21
-90.1061
0
LINE
8
Black
10
135.601
20
-90.1061
11
134.894
21
-89.399
0
LINE
8
Black
10
134.894
20
-89.399
11
135.53
21
-88.7626
0
LINE
8
Black
10
135.53
20
-88.7626
11
136.237
21
-89.4697
0
LINE
8
Black
10
125.106
20
-89.399
11
124.399
21
-90.1061
0
LINE
8
Black
10
124.399
20
-90.1061
11
123.763
21
-89.4697
0
LINE
8
Black
10
123.763
20
-89.4697
11
124.47
21
-88.7626
0
LINE
8
Black
10
124.47
20
-88.7626
11
125.106
21
-89.399
  0
ENDSEC
  0
EOF
